<svg width="208" height="163" viewBox="0 0 208 163" fill="none" xmlns="http://www.w3.org/2000/svg">
    <g clip-path="url(#qtpqv4h8pa)">
        <path opacity=".08" d="M48.135 151.98c39.042 25.808 95.302 2.241 130.059-29.07 33.359-30.053 49.582-108.088-10.622-120.862-25.067-5.318-36.467.228-54.928 10.791C97.74 21.367 77.261 17.33 62.45 9.686 41.508-1.122 15.698 14.598 4.648 38.306-8.889 67.358 7.593 125.179 48.135 151.98z" fill="#fff"/>
        <path opacity=".5" d="M48.135 150.98c39.042 25.808 95.302 2.241 130.059-29.07 33.359-30.053 49.582-108.088-10.622-120.862-25.067-5.318-36.467.228-54.928 10.791C97.74 20.367 77.261 16.33 62.45 8.686 41.508-2.122 15.698 13.598 4.648 37.306-8.889 66.358 7.593 124.179 48.135 150.98z" fill="#fff"/>
        <path d="M55.097 25.159s-.853 12.76-3.732 17.388c-8.29 13.327-10.691 28.32-2.39 36.153 8.301 7.833 61.25 7.942 65.261-10.075 3.377-15.167-3.87-16.798-5.633-29.31-.798-5.661-2.993-17.533-2.993-17.533" fill="#0A0A0A"/>
        <path d="M100.531 65.987c-.091-.012-1.105 16.766-20.656 15.304-13.535-1.011-18.361-15.329-18.67-15.329 1.458-.309 3.916-.759 4.564-1.103 2.131-1.142 4.767-2.33 5.455-6.456.397-2.377-.278-14.545-.069-16.953l20.777 4.624c-.29 5.082-2.322 16.863 4.8 18.948 1.183.345 2.46.662 3.799.965z" fill="#E98862"/>
        <path opacity=".5" d="M92.222 60.207a14.947 14.947 0 0 1-.625-3.214 34.184 34.184 0 0 1 .136-7.478A22.81 22.81 0 0 1 80.252 44.5c-.386 1.42-2.508 7.627-1.92 8.977 1.109 2.552 6.326 6.73 13.89 6.73z" fill="#0C0C0C"/>
        <path d="M89.535 54.98c-8.191.792-18.789-2.477-20.984-13.351l-1.981-9.813c-2.196-10.875 1.754-20.84 12.024-22.901 10.27-2.06 19.727 5.214 21.922 16.09l.878 4.345c.842 4.171 2.756 24.22-11.859 25.63z" fill="#E98862"/>
        <path d="M95.361 41.974a13.47 13.47 0 0 1-8.63 1.213.545.545 0 0 0-.643.5.54.54 0 0 0 .067.296c.874 1.535 2.947 4.158 6.504 3.089 2.296-.69 3.164-3.046 3.486-4.503a.54.54 0 0 0-.486-.655.546.546 0 0 0-.298.06z" fill="#fff"/>
        <path d="M95.528 30.174c.71 0 1.286-.574 1.286-1.282 0-.708-.575-1.282-1.286-1.282-.71 0-1.286.574-1.286 1.282 0 .708.576 1.282 1.286 1.282zM83.17 32.331c.711 0 1.287-.574 1.287-1.282 0-.708-.576-1.282-1.286-1.282-.71 0-1.286.574-1.286 1.282 0 .708.575 1.282 1.286 1.282z" fill="#0C0C0C"/>
        <path opacity=".1" d="M84.329 40.73c1.348-.16 2.345-1.09 2.227-2.076-.118-.985-1.306-1.654-2.654-1.494-1.348.16-2.345 1.09-2.228 2.075.118.986 1.307 1.655 2.655 1.494zM98.572 36.788c.119.985 1.309 1.653 2.657 1.495.233-.028.462-.08.684-.155.063-1.174.067-2.303.033-3.348a3.113 3.113 0 0 0-1.146-.067c-1.348.158-2.345 1.087-2.228 2.075z" fill="#0C0C0C"/>
        <path opacity=".5" d="m92.616 39.83.02-.002c.416-.087.827-.196 1.232-.328.603-.201 1.39-.532 1.282-1.075-.125-.62-3.178-6.964-3.525-7.684a.263.263 0 0 0-.254-.156.266.266 0 0 0-.251.284c.003.035.012.069.028.1 1.302 2.702 3.4 7.144 3.484 7.561-.067.194-1.067.574-2.1.782a.264.264 0 0 0-.218.302.263.263 0 0 0 .303.218l-.001-.001z" fill="#0C0C0C"/>
        <path d="m58.375 35.338 9.207-1.793c6.956-2.9 8.929-14.984 8.929-14.984s8.584 8.15 29.099 3.221c0 0-4.457-28.551-34.749-19.883-9.767 2.794-16.686 12.72-15.657 25.867.721 9.211 3.17 7.572 3.17 7.572z" fill="#0A0A0A"/>
        <path d="M69.857 44.814c-3.121.626-6.324-2.195-6.953-5.308-.63-3.112 1.556-5.335 4.677-5.961l2.03 1.762 2.929 8.967-2.683.54z" fill="#E98862"/>
        <path d="M93.84 25.681a5.42 5.42 0 0 1 2.646-.97c.478-.044.96-.018 1.43.08a5.8 5.8 0 0 1 1.371.463l.014.006a.203.203 0 0 0 .27-.096.201.201 0 0 0-.098-.269 6.238 6.238 0 0 0-1.46-.547 5.267 5.267 0 0 0-1.565-.139 5.97 5.97 0 0 0-2.98.99.303.303 0 1 0 .343.501l.007-.005.022-.014zM85.427 26.84a5.98 5.98 0 0 0-3.134.221c-.497.17-.966.415-1.39.725a6.216 6.216 0 0 0-1.14 1.063.201.201 0 0 0 .3.272l.01-.011c.322-.361.687-.68 1.089-.95.397-.271.833-.48 1.293-.62a5.434 5.434 0 0 1 2.817-.114l.023.005a.304.304 0 0 0 .367-.223.302.302 0 0 0-.224-.365l-.011-.003zM67.59 33.395c6.188-2.297 8.242-6.559 8.875-9.73.41-2.114.371-4.291-.113-6.39l-.191.052c.476 2.072.513 4.22.108 6.307-.625 3.12-2.65 7.312-8.75 9.575l.07.186z" fill="#0C0C0C"/>
        <path d="m124.907 76.339 25.313 67.101-21.008-5.925 47.78-35.528 17.022 23.205-48.442 34.627a14.01 14.01 0 0 1-17.193-.726 13.933 13.933 0 0 1-3.68-4.887l-.135-.312-29.078-65.568 29.421-11.987z" fill="#0D47A1"/>
        <path d="M79.51 77.095c-13.544-.637-14.114-12.098-14.114-12.098s-6.711.432-11.172 1.034c-7.304.985-12.122 3.454-15.957 7.277-3.567 3.556-5.738 7.404-3.44 31.968 1.663 17.787.492 56.909.492 56.909h81.742s4.902-51.279 5.585-59.285c1.304-15.285 6.645-23.9-.82-31.773-5.413-5.71-19.387-6.13-25.012-6.13-.091 0 1.142 12.964-17.304 12.098z" fill="#0D47A1"/>
        <path d="M158.087 79.647c-5.081-8.555-16.579-9.583-25.16-4.515l-.544.337-.365-.586c-5.252-8.452-15.959-12.86-24.437-7.624a18.005 18.005 0 0 0-8.068 11.186 17.957 17.957 0 0 0 2.228 13.598l17.448 27.479a4.036 4.036 0 0 0 5.508 1.279l27.691-16.884a18 18 0 0 0 7.744-10.993c1.063-4.523.33-9.28-2.045-13.277z" fill="#0D47A1"/>
        <path opacity=".6" d="M158.087 79.647c-5.081-8.555-16.579-9.583-25.16-4.515l-.544.337-.365-.586c-5.252-8.452-15.959-12.86-24.437-7.624a18.005 18.005 0 0 0-8.068 11.186 17.957 17.957 0 0 0 2.228 13.598l17.448 27.479a4.036 4.036 0 0 0 5.508 1.279l27.691-16.884a18 18 0 0 0 7.744-10.993c1.063-4.523.33-9.28-2.045-13.277z" fill="#fff"/>
        <path d="M128.834 97.34c-9.009-5.413-20.203-.636-25.633 8.346l-.336.584-.633-.363c-9.116-5.232-21.271-3.99-26.519 5.099a18.938 18.938 0 0 0-1.885 14.411 18.996 18.996 0 0 0 8.888 11.519l29.984 16.825a4.26 4.26 0 0 0 5.758-1.558l17.25-29.482a18.937 18.937 0 0 0 1.681-14.068 18.993 18.993 0 0 0-8.555-11.312z" fill="#367CFF"/>
        <path opacity=".5" d="M128.834 97.34c-9.009-5.413-20.203-.636-25.633 8.346l-.336.584-.633-.363c-9.116-5.232-21.271-3.99-26.519 5.099a18.938 18.938 0 0 0-1.885 14.411 18.996 18.996 0 0 0 8.888 11.519l29.984 16.825a4.26 4.26 0 0 0 5.758-1.558l17.25-29.482a18.937 18.937 0 0 0 1.681-14.068 18.993 18.993 0 0 0-8.555-11.312z" fill="#fff"/>
        <path d="M120.979 110.076a.196.196 0 0 1 .067-.136.198.198 0 0 1 .33.161l-1.663 26.468a.195.195 0 0 1-.182.185h-.028a.2.2 0 0 1-.137-.066.2.2 0 0 1-.049-.144" fill="#0C0C0C"/>
        <path d="M182.945 107.702a2.137 2.137 0 0 1 .782-1.507 2.158 2.158 0 0 1 1.635-.47 2.231 2.231 0 0 1 1.87 2.404l-.208 2.891 4.258-7.788c.522-.99 1.799-1.873 2.875-1.215.905.475 2.61.217 3.239 1.408.011.004 3.297 11.605 2.813 12.526-2.057 3.898-8.974 6.495-13.37 6.06l-6.919-.691 3.025-13.618z" fill="#E98862"/>
        <path d="M182.945 107.702a2.137 2.137 0 0 1 .782-1.507 2.158 2.158 0 0 1 1.635-.47 2.231 2.231 0 0 1 1.87 2.404l-.208 2.891 4.258-7.788c.522-.99 1.799-1.873 2.875-1.215.905.475 2.61.217 3.239 1.408.011.004 3.297 11.605 2.813 12.526-2.057 3.898-8.974 6.495-13.37 6.06l-6.919-.691 3.025-13.618z" fill="#0C0C0C" opacity=".1"/>
        <path d="M127.607 104.998c7.514 0 13.605-6.267 13.605-13.999 0-7.73-6.091-13.998-13.605-13.998s-13.605 6.267-13.605 13.998c0 7.732 6.091 13.999 13.605 13.999z" fill="#fff"/>
        <path opacity=".09" d="M114 91c0 2.768.798 5.474 2.293 7.776a13.7 13.7 0 0 0 6.105 5.156 13.257 13.257 0 0 0 7.861.797 13.504 13.504 0 0 0 6.966-3.831 14.136 14.136 0 0 0 3.723-7.168 14.38 14.38 0 0 0-.774-8.088 13.924 13.924 0 0 0-5.011-6.282 13.334 13.334 0 0 0-7.558-2.36 13.219 13.219 0 0 0-5.214 1.053 13.535 13.535 0 0 0-4.421 3.033 14.002 14.002 0 0 0-2.948 4.548A14.318 14.318 0 0 0 114 91z" fill="#367CFF"/>
        <path d="M133.781 83.275c-.217 2.592-.015 3.471 1.031 4.956.882 1.252-4.138.188-6.359-.219l1.96-5.894s3.445.247 3.368 1.157z" fill="#0A0A0A"/>
        <path d="M126.117 82.197c-.655 2.512-.581 3.29-1.864 4.61-1.062 1.093 3.08 1.315 5.302 1.712l.113-6.227s-3.32-.978-3.551-.095z" fill="#0A0A0A"/>
        <path d="M126.337 89.505c.014-.002.177 2.777 3.315 2.535 2.171-.168 2.946-2.539 2.996-2.539a5.041 5.041 0 0 1-.733-.183c-.342-.189-.765-.385-.875-1.069-.064-.394.044-2.409.011-2.808l-3.334.766c.047.842.373 2.793-.77 3.138-.19.058-.395.11-.61.16z" fill="#E98862"/>
        <path opacity=".5" d="M127.673 88.546c.052-.174.086-.352.1-.533a5.76 5.76 0 0 0-.022-1.238 3.607 3.607 0 0 0 1.843-.83c.062.235.402 1.262.308 1.486-.178.423-1.015 1.115-2.229 1.115z" fill="#0C0C0C"/>
        <path d="M128.101 87.684c1.315.131 3.015-.41 3.368-2.21l.318-1.626c.352-1.8-.282-3.451-1.93-3.793-1.648-.34-3.165.864-3.518 2.665l-.14.72c-.136.69-.443 4.011 1.902 4.245z" fill="#E98862"/>
        <path d="m133.379 84.36-1.483-.168c-2.901-.549-3.612-2.958-3.612-2.958s-1.217 1.672-2.25 1.288c0 0 .333-4.03 4.92-3.322 1.803.278 2.826 1.815 2.826 3.877 0 1.516-.401 1.282-.401 1.282z" fill="#0A0A0A"/>
        <path opacity=".1" d="M129.363 85.076c.019-.163-.141-.317-.357-.344-.216-.026-.407.085-.426.248-.019.163.141.317.358.343.216.027.407-.084.425-.247zM126.654 84.67c-.019.162-.21.273-.426.247a.536.536 0 0 1-.11-.026 6.482 6.482 0 0 1-.005-.554.485.485 0 0 1 .184-.011c.215.026.375.18.357.343z" fill="#0C0C0C"/>
        <path opacity=".5" d="M127.608 85.173h-.003a1.735 1.735 0 0 1-.197-.054c-.097-.033-.224-.088-.206-.178.02-.103.51-1.153.565-1.273a.064.064 0 0 1 .01-.014.038.038 0 0 1 .015-.009.039.039 0 0 1 .016-.003.045.045 0 0 1 .03.015c.004.004.007.01.008.015a.05.05 0 0 1 .003.017.049.049 0 0 1-.005.017c-.209.447-.545 1.183-.559 1.252a.75.75 0 0 0 .337.13c.01.002.02.008.026.018a.044.044 0 0 1-.009.06.043.043 0 0 1-.031.008z" fill="#0C0C0C"/>
        <path d="M131.261 86.001c.501.104 1.014-.363 1.115-.879.101-.515-.249-.883-.75-.987l-.326.292-.47 1.485.431.09z" fill="#E98862"/>
        <path d="M127.413 82.83a.842.842 0 0 0-.874-.071l-.002.001a.033.033 0 0 1-.024 0 .038.038 0 0 1-.017-.017.033.033 0 0 1-.001-.024.03.03 0 0 1 .014-.019.987.987 0 0 1 .234-.09.82.82 0 0 1 .251-.024c.171.01.336.067.478.165.011.007.018.019.02.032a.053.053 0 0 1-.008.037.048.048 0 0 1-.03.02.046.046 0 0 1-.036-.007h-.002l-.003-.004zM128.762 83.023a.93.93 0 0 1 .726.157c.068.05.129.11.183.176a.03.03 0 0 1 .008.024.033.033 0 0 1-.01.023.034.034 0 0 1-.024.009.032.032 0 0 1-.022-.01l-.002-.003a.9.9 0 0 0-.175-.157.741.741 0 0 0-.207-.103.847.847 0 0 0-.452-.019l-.004.001a.048.048 0 0 1-.037-.005.05.05 0 0 1-.016-.069.046.046 0 0 1 .03-.023h.002z" fill="#0C0C0C"/>
        <path d="M121.284 103.399c-.534-.24-.935-.497-1.848-1.205a13.763 13.763 0 0 1-1.83-1.702l4.69-9.182.204-.399 4.229 2.288-3.669 7.184-.017.032.032.128" fill="#EA394A"/>
        <path d="M136.879 96.01c-.123 1.362-.15 3.48-.141 5.363a13.471 13.471 0 0 1-6.261 3.311 13.23 13.23 0 0 1-7.031-.354c-.279-2.839-.692-7.011-.925-9.58-.237-2.661-.931-3.54.965-4.814 1.045-.548 2.701-.596 3.446-.596-.253 2.523 4.913 2.833 5.042 0 3.864.372 5.653.464 4.905 6.67z" fill="#EA394A"/>
        <path d="M127.165 85.53c.427.223.915.294 1.385.2a.087.087 0 0 1 .049.005.09.09 0 0 1 .038.031.09.09 0 0 1 .017.047.103.103 0 0 1-.011.05c-.14.254-.473.688-1.044.511-.369-.114-.508-.504-.56-.745a.107.107 0 0 1 .003-.05.094.094 0 0 1 .029-.041.091.091 0 0 1 .046-.019.084.084 0 0 1 .048.01z" fill="#fff"/>
        <path d="M127.14 83.574a.209.209 0 0 0 .206-.212.209.209 0 0 0-.206-.212.209.209 0 0 0-.206.212c0 .117.092.212.206.212zM129.123 83.932a.21.21 0 0 0 .207-.212.21.21 0 0 0-.207-.213.209.209 0 0 0-.206.213.21.21 0 0 0 .206.212zM122.978 99.336h.004a.032.032 0 0 0 .021-.013.035.035 0 0 0 .006-.024l-.365-3.781a.026.026 0 0 0-.003-.013l-.009-.01a.029.029 0 0 0-.023-.005.025.025 0 0 0-.012.004.034.034 0 0 0-.01.008.043.043 0 0 0-.005.012l-.001.013.365 3.781a.032.032 0 0 0 .011.02.03.03 0 0 0 .021.008z" fill="#0C0C0C"/>
        <path d="M122.502 96.453h-3.724v4.699h3.724v-4.699z" fill="#fff"/>
        <path d="M120.977 98.805c0-.31.089-.614.257-.872.167-.258.406-.459.684-.578.279-.118.585-.15.881-.089.296.06.568.21.781.43a1.605 1.605 0 0 1 .33 1.71 1.562 1.562 0 0 1-.561.704 1.5 1.5 0 0 1-.848.264c-.404 0-.792-.166-1.077-.46a1.592 1.592 0 0 1-.447-1.11zm.624 0c0 .183.053.362.152.514a.904.904 0 0 0 .404.342.875.875 0 0 0 .981-.201.95.95 0 0 0 .195-1.01.92.92 0 0 0-.331-.416.885.885 0 0 0-1.137.116.94.94 0 0 0-.264.655z" fill="#fff"/>
        <path d="M122.472 99.386a.35.35 0 0 1 .111-.204.33.33 0 0 1 .213-.084.04.04 0 0 1-.004-.01l-.111-.025a.337.337 0 0 1-.197-.12.357.357 0 0 1-.079-.223.354.354 0 0 1 .126-.264.333.333 0 0 1 .279-.067l.261.058v-.003a.189.189 0 0 1 .003-.006.332.332 0 0 1-.157-.158.354.354 0 0 1-.028-.224c.029-.2.261-.265.431-.227l.678.125-.229-.156a.363.363 0 0 1-.1-.475.328.328 0 0 1 .476-.093l2.731 3.216-.607-.283a1.692 1.692 0 0 1-.765.633 1.634 1.634 0 0 1-.979.084l-1.481-.332a.334.334 0 0 1-.197-.121.356.356 0 0 1-.079-.222.348.348 0 0 1 .068-.202.334.334 0 0 1 .171-.122c-.002-.005-.003-.01-.002-.016a.036.036 0 0 1 .006-.014.029.029 0 0 1 .012-.01l-.273-.06a.344.344 0 0 1-.214-.141.361.361 0 0 1-.064-.254z" fill="#E98862"/>
        <path opacity=".2" d="M123.566 98.563a.034.034 0 0 0 .018-.011.038.038 0 0 0 .007-.021.037.037 0 0 0-.008-.02.031.031 0 0 0-.018-.011l-.458-.08h-.012a.032.032 0 0 0-.012.005.067.067 0 0 0-.009.01.026.026 0 0 0-.004.011.028.028 0 0 0 0 .013.045.045 0 0 0 .005.012.036.036 0 0 0 .01.008.024.024 0 0 0 .012.005l.457.08h.012zM123.455 99.225a.03.03 0 0 0 .018-.011.031.031 0 0 0 .007-.02.037.037 0 0 0-.007-.021.034.034 0 0 0-.019-.011l-.626-.114a.032.032 0 0 0-.025.004.066.066 0 0 0-.009.01.026.026 0 0 0-.004.011.029.029 0 0 0 0 .013.045.045 0 0 0 .005.012.036.036 0 0 0 .01.009.025.025 0 0 0 .012.004l.626.115a.03.03 0 0 0 .012 0zM123.34 99.95a.03.03 0 0 0 .018-.011.032.032 0 0 0 .007-.021.031.031 0 0 0-.008-.02.03.03 0 0 0-.019-.011l-.297-.047a.03.03 0 0 0-.022.007.033.033 0 0 0-.012.02.037.037 0 0 0 .005.024.033.033 0 0 0 .02.013l.297.047h.011z" fill="#0C0C0C"/>
        <path d="M138.778 98.99a13.69 13.69 0 0 1-6.866 5.296l-.001-.001c-.619-.125-6.515-2.52-7.295-2.677l.854-4.097c2.191.449 6.188 2.178 8.391 2.629l-1.554-7.254a2.518 2.518 0 0 1 .396-1.852 2.43 2.43 0 0 1 .681-.667 2.321 2.321 0 0 1 1.818-.315c.308.075.599.21.856.401.257.19.474.432.639.71.166.277.276.586.325.907l1.756 6.92z" fill="#EA394A"/>
        <path d="M135.531 100.669a.029.029 0 0 0 .021-.009.032.032 0 0 0 .01-.021.039.039 0 0 0-.007-.023.032.032 0 0 0-.02-.012l-1.657-.578a.024.024 0 0 0-.012 0 .024.024 0 0 0-.011.006.02.02 0 0 0-.009.009.056.056 0 0 0-.004.012.036.036 0 0 0 .006.025.036.036 0 0 0 .021.013l1.657.578h.005z" fill="#0C0C0C"/>
        <path d="M133.903 100.056a.037.037 0 0 1-.009.028c-.003.004-.008.006-.012.008a.038.038 0 0 1-.015.001l-8.346-2.535-.837 4.032 7.187 2.706a1.813 1.813 0 0 0-.068.023c-.016.005-.032.011-.049.015l-7.117-2.689a.029.029 0 0 1-.019-.015c-.004-.007-.006-.016-.004-.024l.853-4.097a.027.027 0 0 1 .006-.011.03.03 0 0 1 .009-.008.029.029 0 0 1 .025-.004l8.326 2.537-.943-3.999a.034.034 0 0 1 .006-.024.034.034 0 0 1 .033-.013l.012.005a.031.031 0 0 1 .008.01.027.027 0 0 1 .005.011l.949 4.043z" fill="#0C0C0C"/>
        <path d="M190.88 113.293a1.76 1.76 0 0 1 1.283-1.694c-.013-.029-.065-.088-.015-.107l-1.449-.256a1.79 1.79 0 0 1-1.52-1.798 1.725 1.725 0 0 1 1.637-1.636c-.01-.014-.007-.034-.012-.05l-.596-.106a1.767 1.767 0 0 1-1.492-1.667 1.734 1.734 0 0 1 1.274-1.705c.247-.067.506-.079.758-.035l1.374.243c0-.007-.006-.013-.005-.02.001-.008.012-.015.014-.024a1.729 1.729 0 0 1-1.033-1.888c.111-1.004 1.302-1.378 2.19-1.221l2.759.713a2.66 2.66 0 0 1 1.853 1.703c1.249 3.584 4.286 13.023 1.451 12.523l-6.978-1.233a1.872 1.872 0 0 1-1.493-1.742z" fill="#E98862"/>
        <path d="M190.522 98.884c-7.946-10.02-22.765-9.358-32.816-1.436l-.636.522-.565-.683c-8.144-9.863-22.541-13.638-32.432-5.516a23.136 23.136 0 0 0-5.731 6.986 23.065 23.065 0 0 0-1.71 17.622 23.1 23.1 0 0 0 4.282 7.953l26.957 31.997a5.192 5.192 0 0 0 7.235.684l32.344-26.25a23.107 23.107 0 0 0 7.965-15.323 23.087 23.087 0 0 0-4.893-16.556zM104.148 137c6.709 0 12.148-5.596 12.148-12.5 0-6.903-5.439-12.499-12.148-12.499-6.71 0-12.148 5.596-12.148 12.499 0 6.904 5.439 12.5 12.148 12.5z" fill="#fff"/>
        <path opacity=".09" d="M116.296 124.5c0 2.472-.713 4.889-2.048 6.945a12.229 12.229 0 0 1-5.451 4.603 11.835 11.835 0 0 1-7.019.712 12.052 12.052 0 0 1-6.22-3.421 12.619 12.619 0 0 1-3.325-6.4 12.837 12.837 0 0 1 .692-7.222 12.433 12.433 0 0 1 4.474-5.61 11.909 11.909 0 0 1 6.749-2.106 11.811 11.811 0 0 1 4.656.939 12.085 12.085 0 0 1 3.947 2.708 12.476 12.476 0 0 1 2.632 4.062c.608 1.519.919 3.147.913 4.79z" fill="#367CFF"/>
        <path d="M98.768 117.131s-.122 1.887-.535 2.571c-1.187 1.971-1.532 4.188-.342 5.347 1.19 1.159 8.776 1.175 9.351-1.49.483-2.243-.555-2.484-.807-4.334-.115-.838-.429-2.593-.429-2.593" fill="#0A0A0A"/>
        <path d="M105.278 123.168c-.013-.001-.158 2.48-2.959 2.264-1.94-.15-2.631-2.267-2.675-2.267.209-.045.561-.112.654-.163.305-.169.683-.344.781-.955.057-.351-.039-2.151-.009-2.506l2.977.683c-.042.751-.333 2.494.687 2.802.17.051.353.098.544.142z" fill="#E98862"/>
        <path opacity=".5" d="M104.088 122.314a2.251 2.251 0 0 1-.09-.475 5.243 5.243 0 0 1 .02-1.106 3.223 3.223 0 0 1-1.645-.741c-.056.21-.36 1.127-.275 1.327.159.377.906.995 1.99.995z" fill="#0C0C0C"/>
        <path d="M103.703 121.54c-1.174.117-2.692-.366-3.007-1.974l-.284-1.451c-.314-1.608.252-3.082 1.723-3.387 1.472-.305 2.827.771 3.141 2.379l.126.643c.121.617.395 3.582-1.699 3.79z" fill="#E98862"/>
        <path opacity=".1" d="M102.957 119.435c.193-.024.336-.161.319-.307-.017-.146-.187-.245-.38-.221-.194.024-.336.161-.319.307.016.146.187.245.38.221zM104.996 118.851c.018.146.188.244.381.221a.411.411 0 0 0 .098-.023c.009-.173.01-.34.005-.495a.432.432 0 0 0-.164-.009c-.193.023-.336.16-.32.306z" fill="#0C0C0C"/>
        <path opacity=".5" d="M104.145 119.303h.003c.059-.013.118-.029.176-.049.087-.029.199-.078.184-.159-.018-.091-.455-1.029-.505-1.136a.04.04 0 0 0-.022-.019.039.039 0 0 0-.028.002.041.041 0 0 0-.019.022.042.042 0 0 0 .001.029c.186.4.487 1.056.499 1.118-.01.028-.153.085-.301.115a.036.036 0 0 0-.023.017.035.035 0 0 0-.006.028.038.038 0 0 0 .041.032z" fill="#0C0C0C"/>
        <path d="m99.238 118.636 1.32-.265c.996-.429 1.279-2.216 1.279-2.216s1.23 1.205 4.169.477c0 0-.638-4.223-4.978-2.941-1.4.413-2.391 1.881-2.244 3.825.103 1.363.454 1.12.454 1.12z" fill="#0A0A0A"/>
        <path d="M100.882 120.04c-.447.092-.906-.325-.996-.785-.09-.46.223-.789.671-.882l.29.261.42 1.326-.385.08z" fill="#E98862"/>
        <path d="M104.32 117.209a.763.763 0 0 1 .379-.143.64.64 0 0 1 .205.012.821.821 0 0 1 .197.068l.002.001a.026.026 0 0 0 .021 0 .03.03 0 0 0 .016-.015.033.033 0 0 0 .001-.022.026.026 0 0 0-.014-.017.87.87 0 0 0-.209-.081.735.735 0 0 0-.224-.021.845.845 0 0 0-.427.147.034.034 0 0 0-.012.012.037.037 0 0 0-.007.016.054.054 0 0 0 0 .018.036.036 0 0 0 .007.017.034.034 0 0 0 .012.012c.005.003.01.006.016.007s.012 0 .018-.001a.041.041 0 0 0 .015-.007l.001-.001.003-.002zM103.114 117.376a.837.837 0 0 0-.449.033.766.766 0 0 0-.199.107.903.903 0 0 0-.163.158.027.027 0 0 0-.007.021c0 .008.004.015.009.02a.032.032 0 0 0 .021.008c.007 0 .014-.004.02-.009l.001-.002a.864.864 0 0 1 .156-.14.68.68 0 0 1 .185-.092.76.76 0 0 1 .404-.017l.003.001c.006.001.012.002.018.001a.052.052 0 0 0 .016-.006.049.049 0 0 0 .013-.012.077.077 0 0 0 .007-.016l.001-.017a.036.036 0 0 0-.007-.017l-.011-.013c-.005-.003-.01-.006-.016-.007l-.002-.001zM100.558 118.348c.887-.339 1.181-.969 1.272-1.438a2.368 2.368 0 0 0-.016-.945l-.028.007c.068.307.074.624.015.933-.089.461-.379 1.081-1.253 1.416l.01.027z" fill="#0C0C0C"/>
        <path d="m111.772 122.674.531-1.854a.303.303 0 0 1 .273-.219.276.276 0 0 1 .121.021.323.323 0 0 1 .172.386l-.114.397.915-1.081c.1-.122.298-.206.424-.081a.31.31 0 0 1 .073.373l.004.002.002.003.154-.188a.284.284 0 0 1 .232-.109.3.3 0 0 1 .229.117.318.318 0 0 1-.014.394l-.065.08.002.01a.293.293 0 0 1 .197-.061.295.295 0 0 1 .275.297.325.325 0 0 1-.075.216l-.163.199a.029.029 0 0 1 .025.006.027.027 0 0 1 .007.013.298.298 0 0 1 .191-.009.302.302 0 0 1 .212.309.316.316 0 0 1-.075.191l-1.371 1.678a1.498 1.498 0 0 1-.734.489 1.46 1.46 0 0 1-.875-.016.998.998 0 0 1-.568-.493 1.043 1.043 0 0 1-.073-.76l.088-.31z" fill="#E98862"/>
        <path d="M113.267 121.691a.025.025 0 0 0 .02.006c.007 0 .013-.004.018-.009l.869-1.029a.031.031 0 0 0 .007-.021.03.03 0 0 0-.01-.019.027.027 0 0 0-.02-.007.025.025 0 0 0-.018.01l-.869 1.029a.024.024 0 0 0-.006.009l-.001.011a.02.02 0 0 0 .003.011l.006.009h.001zM113.696 122.098a.03.03 0 0 0 .02.006.031.031 0 0 0 .018-.009l.97-1.149a.04.04 0 0 0 .005-.009l.002-.011-.003-.011a.055.055 0 0 0-.007-.009.028.028 0 0 0-.02-.006.028.028 0 0 0-.018.009l-.97 1.149a.026.026 0 0 0-.005.009c-.001.004-.002.007-.001.011l.002.011.007.008v.001zM114.159 122.542a.022.022 0 0 0 .019.006.028.028 0 0 0 .019-.009l.773-.916a.025.025 0 0 0 .006-.02.031.031 0 0 0-.009-.019.03.03 0 0 0-.02-.007c-.007 0-.013.004-.018.009l-.774.916-.005.009c-.001.004-.002.008-.001.011l.002.011.007.009h.001z" fill="#0C0C0C" opacity=".2"/>
        <path d="m115.004 123.482-2.053 9.583-.015.065a12.382 12.382 0 0 1-1.818 1.608 2.032 2.032 0 0 1-1.247-.276 2.118 2.118 0 0 1-.763-.784l-3.913-6.966 3.613-2.147 1.224 2.179.897-4.186 4.075.924z" fill="#0D47A1"/>
        <path d="M108.685 127.851c-.012.152-.037.423-.071.78-.171 1.826-.57 5.894-.755 7.774a11.87 11.87 0 0 1-7.193.076h-.001a12.04 12.04 0 0 1-4.675-2.717c.008-1.681-.016-3.572-.126-4.787-.329-3.633-.018-4.201.493-4.727a3.93 3.93 0 0 1 .13-.126c.527-.494 1.19-.816 2.156-.951.64-.088 1.601-.153 1.601-.153s.081 1.696 2.022 1.79c2.643.128 2.467-1.79 2.48-1.79.665 0 2.144.043 3.077.532l.002.001c.188.094.359.221.505.374 1.069 1.165.542 1.663.355 3.924z" fill="#0D47A1"/>
        <path d="M104.539 119.616c-.381.2-.817.263-1.237.18a.076.076 0 0 0-.077.031.08.08 0 0 0-.005.086c.125.227.422.616.932.457.329-.102.453-.45.499-.666a.082.082 0 0 0-.029-.081.083.083 0 0 0-.04-.016.08.08 0 0 0-.043.009z" fill="#fff"/>
        <path d="M104.561 117.87a.187.187 0 0 0 .184-.189.187.187 0 0 0-.184-.19.187.187 0 0 0-.184.19c0 .104.082.189.184.189zM102.791 118.191a.187.187 0 0 0 .184-.189.187.187 0 0 0-.184-.19.188.188 0 0 0-.185.19c0 .104.083.189.185.189zM108.278 131.945h-.003a.027.027 0 0 1-.019-.011.03.03 0 0 1-.006-.022l.326-3.377c0-.004.002-.007.003-.011a.03.03 0 0 1 .008-.008.02.02 0 0 1 .01-.005l.011-.001a.026.026 0 0 1 .019.012.031.031 0 0 1 .005.021l-.325 3.377a.032.032 0 0 1-.01.018.026.026 0 0 1-.019.007z" fill="#0C0C0C"/>
        <path d="m106.305 131.783 1.78-.818a.3.3 0 0 1 .249-.001.316.316 0 0 1 .169.188.334.334 0 0 1-.181.399l-.381.176 1.446.015c.161-.001.359.104.349.289a.325.325 0 0 1-.066.198.304.304 0 0 1-.171.113v.008l.248-.001a.31.31 0 0 1 .301.24.33.33 0 0 1 .003.14.324.324 0 0 1-.112.184.31.31 0 0 1-.199.07l-.106.001a.016.016 0 0 1-.006.008.31.31 0 0 1 .179.119c.044.06.066.134.062.21a.326.326 0 0 1-.321.298l-.262.002a.028.028 0 0 1 .009.01.032.032 0 0 1 .003.014.027.027 0 0 1-.005.015.318.318 0 0 1 .155.351.314.314 0 0 1-.31.247l-2.212.016a1.526 1.526 0 0 1-.87-.267 1.585 1.585 0 0 1-.577-.722 1.08 1.08 0 0 1-.005-.793c.099-.255.291-.461.535-.573l.296-.136z" fill="#E98862"/>
        <path d="M108.067 132.334c0 .008.003.015.009.021a.029.029 0 0 0 .02.009l1.375.012a.032.032 0 0 0 .021-.008.032.032 0 0 0 .008-.021.032.032 0 0 0-.008-.021.028.028 0 0 0-.02-.008l-1.376-.013a.027.027 0 0 0-.02.009.028.028 0 0 0-.008.02h-.001zM108.045 132.955c0 .008.003.015.008.02a.028.028 0 0 0 .02.009l1.536.014a.032.032 0 0 0 .02-.008.032.032 0 0 0 .008-.021.025.025 0 0 0-.009-.02.025.025 0 0 0-.019-.009l-1.536-.015c-.007 0-.014.004-.02.009a.032.032 0 0 0-.008.021zM108.018 133.633c0 .008.003.015.008.021a.028.028 0 0 0 .02.008l1.225.012c.007 0 .014-.004.02-.009a.032.032 0 0 0 .008-.021.028.028 0 0 0-.008-.02.028.028 0 0 0-.02-.009l-1.225-.011a.028.028 0 0 0-.02.008.032.032 0 0 0-.008.021z" fill="#0C0C0C" opacity=".2"/>
        <path d="m106.816 135.045-6.15 1.438h-.001a12.05 12.05 0 0 1-5.098-3.13c-.24-.247-.47-.503-.69-.77l.862-7.126a2.204 2.204 0 0 1 .867-1.425 2.09 2.09 0 0 1 1.592-.377 2.131 2.131 0 0 1 1.385.892c.328.475.46 1.064.366 1.639l-.544 6.691 6.857-1.597.554 3.765z" fill="#0D47A1"/>
        <path d="M98.017 133.137a.021.021 0 0 1-.011-.001.022.022 0 0 1-.01-.006.02.02 0 0 1-.007-.009.027.027 0 0 1-.003-.011c0-.004 0-.007.002-.011a.027.027 0 0 1 .005-.01.033.033 0 0 1 .009-.007.02.02 0 0 1 .01-.003l1.376-.303.01.001a.035.035 0 0 1 .01.005.027.027 0 0 1 .008.008.037.037 0 0 1 .004.011v.011a.03.03 0 0 1-.005.011.03.03 0 0 1-.009.007.02.02 0 0 1-.01.004l-1.375.303h-.004z" fill="#0C0C0C"/>
        <path d="M106.815 135.045a.029.029 0 0 1-.003.022.031.031 0 0 1-.017.013l-5.975 1.449a3.661 3.661 0 0 1-.112-.034l6.045-1.464-.539-3.707-6.816 1.513-.014-.001a.027.027 0 0 1-.011-.007.033.033 0 0 1-.006-.012.034.034 0 0 1-.002-.013l.383-3.824c0-.004.002-.007.004-.011a.03.03 0 0 1 .007-.008.02.02 0 0 1 .01-.004.02.02 0 0 1 .012 0 .028.028 0 0 1 .018.011.03.03 0 0 1 .005.022l-.376 3.784 6.799-1.516a.02.02 0 0 1 .011 0c.004 0 .007.002.01.004a.022.022 0 0 1 .009.007.037.037 0 0 1 .005.011l.553 3.765z" fill="#0C0C0C"/>
        <path d="m106.604 126.665 10.838-8.202a2.165 2.165 0 0 1 1.69-.402 2.15 2.15 0 0 1 1.437.972 2.215 2.215 0 0 1-.612 2.917l-2.324 1.758 9.855-2.185c1.091-.262 2.599.112 2.813 1.352.114.472.064.968-.142 1.408-.206.44-.555.797-.99 1.014a.134.134 0 0 1 .012.03v.025l1.683-.404a2.163 2.163 0 0 1 2.422 1.11c.146.284.227.598.236.917a2.205 2.205 0 0 1-1.728 2.165l-.715.172a.19.19 0 0 1-.025.065 2.15 2.15 0 0 1 2.139 1.782 2.221 2.221 0 0 1-1.718 2.473l-1.779.427c.029.011.055.03.076.054a.186.186 0 0 1 .043.082.188.188 0 0 1-.01.11 2.151 2.151 0 0 1 1.595 2.064 2.203 2.203 0 0 1-1.729 2.111l-15.01 3.604a10.868 10.868 0 0 1-6.326-.38 10.833 10.833 0 0 1-5.032-3.842 7.113 7.113 0 0 1-1.254-5.218 7.133 7.133 0 0 1 2.748-4.613l1.807-1.366z" fill="#E98862"/>
        <path d="M119.424 127.508a.2.2 0 0 0 .088.121.203.203 0 0 0 .148.025l9.37-2.09a.2.2 0 0 0 .063-.361.194.194 0 0 0-.15-.026l-9.37 2.09a.202.202 0 0 0-.152.16.187.187 0 0 0 .002.078l.001.003zM120.236 131.654c.012.05.044.093.088.12a.197.197 0 0 0 .148.025l10.456-2.333a.197.197 0 0 0 .153-.16.205.205 0 0 0-.002-.078.205.205 0 0 0-.239-.149l-10.456 2.333a.181.181 0 0 0-.071.031.192.192 0 0 0-.082.129.2.2 0 0 0 .003.077l.002.005zM121.088 136.148a.197.197 0 0 0 .236.145l8.343-1.861a.204.204 0 0 0 .125-.087.2.2 0 0 0-.212-.3l-8.343 1.862a.195.195 0 0 0-.152.16.181.181 0 0 0 .002.077l.001.004z" fill="#0C0C0C" opacity=".2"/>
        <path d="M111.258 146.289 42.374 161.9a14.952 14.952 0 0 1-6.764-.829 14.9 14.9 0 0 1-5.685-3.745 14.81 14.81 0 0 1-3.855-12.656l7.883-63.215a14.848 14.848 0 0 1 6.05-9.635 14.933 14.933 0 0 1 11.113-2.548 14.904 14.904 0 0 1 9.665 6.033 14.818 14.818 0 0 1 2.555 11.079L59.54 131.63l47.859-10.797 3.859 25.456z" fill="#0D47A1"/>
        <path d="M49.855 133.408a.196.196 0 0 1-.144-.048.197.197 0 0 1-.02-.28.2.2 0 0 1 .135-.068l9.6-2.043a.203.203 0 0 1 .147.035.198.198 0 0 1 .041.278.2.2 0 0 1-.13.078l-9.599 2.044a.296.296 0 0 1-.03.004z" fill="#0C0C0C"/>
        <path d="M44.44 162.185a.2.2 0 0 1-.211-.185.197.197 0 0 1 .186-.211l66.411-15.594-3.763-25.072-47.573 10.24a.203.203 0 0 1-.092-.009.213.213 0 0 1-.077-.05.193.193 0 0 1-.053-.17l2.668-25.853a.193.193 0 0 1 .08-.129.205.205 0 0 1 .071-.032.204.204 0 0 1 .207.079c.03.043.043.096.034.148l-2.622 25.587 47.45-10.247a.186.186 0 0 1 .078-.005.191.191 0 0 1 .133.078.19.19 0 0 1 .034.07l3.859 25.458a.197.197 0 0 1-.14.237l-66.654 15.658a.222.222 0 0 1-.026.002z" fill="#0C0C0C"/>
        <path d="M196.758 46.87c-2.622-4.416-8.559-4.947-12.989-2.332l-.281.174-.188-.303c-2.712-4.363-8.239-6.638-12.616-3.935a9.294 9.294 0 0 0-4.164 5.774 9.27 9.27 0 0 0 1.149 7.02l9.008 14.185a2.08 2.08 0 0 0 2.843.66l14.295-8.716a9.275 9.275 0 0 0 2.943-12.526z" fill="#fff"/>
        <path opacity=".2" d="M196.758 46.87c-2.622-4.416-8.559-4.947-12.989-2.332l-.281.174-.188-.303c-2.712-4.363-8.239-6.638-12.616-3.935a9.294 9.294 0 0 0-4.164 5.774 9.27 9.27 0 0 0 1.149 7.02l9.008 14.185a2.08 2.08 0 0 0 2.843.66l14.295-8.716a9.275 9.275 0 0 0 2.943-12.526z" fill="#fff"/>
        <path d="M155.895 5.612c-4.034-2.354-8.98-.168-11.34 3.854l-.147.26-.283-.156c-4.08-2.273-9.473-1.652-11.753 2.415a8.412 8.412 0 0 0-.755 6.414 8.431 8.431 0 0 0 4.016 5.067l13.418 7.304a1.895 1.895 0 0 0 2.549-.725l7.495-13.197a8.414 8.414 0 0 0 .666-6.26 8.444 8.444 0 0 0-3.866-4.976z" fill="#0D47A1"/>
        <path opacity=".5" d="M155.895 5.612c-4.034-2.354-8.98-.168-11.34 3.854l-.147.26-.283-.156c-4.08-2.273-9.473-1.652-11.753 2.415a8.412 8.412 0 0 0-.755 6.414 8.431 8.431 0 0 0 4.016 5.067l13.418 7.304a1.895 1.895 0 0 0 2.549-.725l7.495-13.197a8.414 8.414 0 0 0 .666-6.26 8.444 8.444 0 0 0-3.866-4.976z" fill="#fff"/>
        <path d="m76.2 90.49-1.353 1.369a.608.608 0 0 0 0 .853c.233.236.61.236.843 0l1.354-1.37a.608.608 0 0 0 0-.853.592.592 0 0 0-.844 0zM78.472 89.905l1.353-1.37a.609.609 0 0 0 0-.853.592.592 0 0 0-.844 0l-1.353 1.37a.608.608 0 0 0 0 .853c.233.236.61.236.844 0zM75.69 87.682a.592.592 0 0 0-.843 0 .608.608 0 0 0 0 .854l1.353 1.37c.233.235.61.235.844 0a.609.609 0 0 0 0-.854l-1.354-1.37zM78.472 90.495a.592.592 0 0 0-.844 0 .608.608 0 0 0 0 .854l1.353 1.37c.233.235.611.235.844 0a.609.609 0 0 0 0-.854l-1.353-1.37zM71.707 87.501a.596.596 0 0 0-.593.6v4.198c0 .332.266.6.593.6a.596.596 0 0 0 .593-.6v-4.198c0-.331-.265-.6-.593-.6zM73.486 87.504a.596.596 0 0 0-.593.6v4.198c0 .331.265.6.593.6a.596.596 0 0 0 .592-.6v-4.199c0-.33-.265-.6-.593-.6zM66.364 92.901c-.33 0-.6.272-.6.607v2.385c0 .335.27.607.6.607.332 0 .6-.272.6-.607v-2.385a.603.603 0 0 0-.6-.607zM65.779 92.301c0-.33-.266-.6-.593-.6h-.593a.596.596 0 0 0-.593.6c0 .332.266.6.593.6h.593a.596.596 0 0 0 .593-.6zM67.853 87.5h-1.468a.61.61 0 0 0-.607.613v2.989c0 .331.266.6.593.6a.596.596 0 0 0 .593-.6V88.7h.86c.81 0 1.492.645 1.511 1.464a1.494 1.494 0 0 1-1.482 1.537h-.297a.596.596 0 0 0-.592.6c0 .33.266.6.593.6h.296c1.474 0 2.669-1.21 2.669-2.7 0-1.492-1.195-2.701-2.67-2.701zM72.41 94.696h-.213v-.472c0-.068-.011-.117-.034-.148a.11.11 0 0 0-.094-.046.177.177 0 0 0-.12.048.27.27 0 0 0-.079.128v.49h-.212v-.472c0-.068-.012-.117-.034-.148a.11.11 0 0 0-.095-.046.18.18 0 0 0-.118.048.263.263 0 0 0-.08.126v.492h-.213v-.841h.192v.155a.32.32 0 0 1 .126-.126.374.374 0 0 1 .184-.044c.07 0 .123.017.161.051a.23.23 0 0 1 .073.127.361.361 0 0 1 .129-.132.344.344 0 0 1 .178-.046c.05 0 .092.01.125.029.033.02.058.044.076.075a.32.32 0 0 1 .038.106c.006.04.01.08.01.12v.526zM73.162 94.204a.225.225 0 0 0-.07-.151.21.21 0 0 0-.148-.057.21.21 0 0 0-.193.123.237.237 0 0 0-.021.085h.431zm-.216.508a.455.455 0 0 1-.181-.035.413.413 0 0 1-.226-.232.474.474 0 0 1 0-.335.416.416 0 0 1 .408-.27.418.418 0 0 1 .318.13c.038.04.067.086.086.138a.464.464 0 0 1 .025.236h-.643a.252.252 0 0 0 .024.088.218.218 0 0 0 .197.122c.042 0 .082-.01.12-.03a.165.165 0 0 0 .076-.084l.183.052a.374.374 0 0 1-.147.158.45.45 0 0 1-.24.062zM74.767 94.696h-.212v-.472c0-.068-.012-.117-.035-.148a.11.11 0 0 0-.094-.046.177.177 0 0 0-.119.048.27.27 0 0 0-.08.128v.49h-.212v-.472c0-.068-.011-.117-.034-.148a.11.11 0 0 0-.094-.046.18.18 0 0 0-.119.048.263.263 0 0 0-.08.126v.492h-.212v-.841h.192v.155a.32.32 0 0 1 .126-.126.373.373 0 0 1 .183-.044c.07 0 .124.017.162.051a.23.23 0 0 1 .073.127.344.344 0 0 1 .306-.178c.05 0 .093.01.125.029.033.02.059.044.077.075.018.031.03.067.037.106.007.04.01.08.01.12v.526zM75.332 94.529a.217.217 0 0 0 .167-.074.244.244 0 0 0 .047-.079.3.3 0 0 0 0-.194.257.257 0 0 0-.045-.082.227.227 0 0 0-.069-.056.193.193 0 0 0-.215.027.314.314 0 0 0-.086.116v.2a.18.18 0 0 0 .032.058.235.235 0 0 0 .107.073c.021.007.042.01.062.01zm.059.183a.332.332 0 0 1-.17-.044.314.314 0 0 1-.117-.118v.146h-.186v-1.172h.213v.478a.323.323 0 0 1 .116-.12.328.328 0 0 1 .17-.042.31.31 0 0 1 .147.035.371.371 0 0 1 .115.095.43.43 0 0 1 .074.14.543.543 0 0 1-.003.338.429.429 0 0 1-.082.138.384.384 0 0 1-.123.092.356.356 0 0 1-.154.034zM76.385 94.04a.417.417 0 0 0-.173.038.22.22 0 0 0-.11.109v.509h-.212v-.841h.195v.18a.386.386 0 0 1 .188-.178.195.195 0 0 1 .069-.014h.026c.006 0 .011 0 .017.002v.196zM77.029 94.204a.225.225 0 0 0-.07-.151.21.21 0 0 0-.148-.057.21.21 0 0 0-.193.123.235.235 0 0 0-.02.085h.43zm-.216.508a.456.456 0 0 1-.181-.035.413.413 0 0 1-.226-.232.474.474 0 0 1 0-.335.414.414 0 0 1 .225-.235.458.458 0 0 1 .183-.035.418.418 0 0 1 .318.13c.038.04.067.086.086.138a.464.464 0 0 1 .025.236H76.6a.252.252 0 0 0 .024.088.218.218 0 0 0 .197.122c.042 0 .082-.01.12-.03a.165.165 0 0 0 .077-.084l.182.052a.374.374 0 0 1-.147.158.45.45 0 0 1-.24.062zM77.657 94.712a.636.636 0 0 1-.204-.034.5.5 0 0 1-.172-.096l.08-.135c.05.036.1.064.148.082a.394.394 0 0 0 .144.029.18.18 0 0 0 .1-.025.078.078 0 0 0 .036-.069c0-.03-.014-.051-.043-.065a.921.921 0 0 0-.14-.049c-.053-.014-.1-.029-.137-.043a.35.35 0 0 1-.093-.047.161.161 0 0 1-.066-.144.25.25 0 0 1 .094-.203.316.316 0 0 1 .103-.055.418.418 0 0 1 .13-.02c.062 0 .12.01.175.028a.428.428 0 0 1 .15.088l-.086.13a.496.496 0 0 0-.123-.07.333.333 0 0 0-.118-.023.17.17 0 0 0-.09.022c-.025.015-.037.04-.037.073 0 .015.003.027.009.037.006.01.015.018.028.025.012.008.029.015.05.022.02.007.046.014.077.022.057.015.106.03.146.045a.4.4 0 0 1 .1.05c.026.02.045.042.057.067a.208.208 0 0 1 .019.091c0 .083-.03.148-.09.195a.386.386 0 0 1-.247.072zM78.257 93.757l-.136-.042.085-.191h.198l-.147.233zm-.16.097h.212v.842h-.212v-.841zM78.754 94.554c.035 0 .07-.006.102-.019a.185.185 0 0 0 .075-.051c.023-.018.035-.039.035-.061v-.097a.511.511 0 0 0-.168-.032c-.055 0-.1.013-.135.038a.113.113 0 0 0-.052.096c0 .036.013.066.041.09a.149.149 0 0 0 .102.036zm-.06.158a.31.31 0 0 1-.113-.02.27.27 0 0 1-.15-.14.258.258 0 0 1 .004-.217.249.249 0 0 1 .073-.086.36.36 0 0 1 .112-.055.601.601 0 0 1 .346.017v-.048c0-.056-.015-.099-.047-.129-.03-.03-.077-.045-.138-.045a.365.365 0 0 0-.13.024.599.599 0 0 0-.13.071l-.066-.136a.609.609 0 0 1 .346-.108c.12 0 .212.03.279.09.066.058.099.144.099.257v.261c0 .023.004.039.012.049.008.01.02.015.038.016v.183a.468.468 0 0 1-.093.01.14.14 0 0 1-.093-.026.118.118 0 0 1-.04-.073l-.005-.046a.369.369 0 0 1-.305.15zM79.656 94.712a.636.636 0 0 1-.204-.034.499.499 0 0 1-.172-.096l.08-.135c.05.036.1.064.148.082a.394.394 0 0 0 .144.029.18.18 0 0 0 .1-.025.078.078 0 0 0 .036-.069c0-.03-.014-.051-.043-.065a.917.917 0 0 0-.14-.049c-.053-.014-.1-.029-.138-.043a.35.35 0 0 1-.091-.047.161.161 0 0 1-.067-.144.249.249 0 0 1 .094-.203.316.316 0 0 1 .103-.055.419.419 0 0 1 .13-.02c.062 0 .12.01.175.028a.428.428 0 0 1 .15.088l-.086.13a.496.496 0 0 0-.123-.07.332.332 0 0 0-.118-.023.17.17 0 0 0-.09.022c-.025.015-.037.04-.037.073 0 .015.003.027.009.037.006.01.015.018.028.025.012.008.029.015.05.022.02.007.046.014.077.022.057.015.106.03.146.045a.4.4 0 0 1 .1.05c.026.02.045.042.058.067a.208.208 0 0 1 .018.091c0 .083-.03.148-.09.195a.386.386 0 0 1-.247.072zM154.968 19.537a8.4 8.4 0 0 1-1.056 3.772 8.132 8.132 0 0 1-2.635 2.838 7.79 7.79 0 0 1-8.96-.262 8.19 8.19 0 0 1-2.286-2.626v-.001a8.43 8.43 0 0 1-.37-7.313 8.206 8.206 0 0 1 2.185-3.016 7.902 7.902 0 0 1 3.262-1.698 7.766 7.766 0 0 1 3.655-.025 7.903 7.903 0 0 1 3.284 1.653 8.2 8.2 0 0 1 2.223 2.986 8.422 8.422 0 0 1 .698 3.692z" fill="#fff"/>
        <path opacity=".09" d="M154.968 19.537a8.4 8.4 0 0 1-1.056 3.772 8.132 8.132 0 0 1-2.635 2.838 7.79 7.79 0 0 1-8.96-.262 8.19 8.19 0 0 1-2.286-2.626v-.001a8.43 8.43 0 0 1-.37-7.313 8.206 8.206 0 0 1 2.185-3.016 7.902 7.902 0 0 1 3.262-1.698 7.766 7.766 0 0 1 3.655-.025 7.903 7.903 0 0 1 3.284 1.653 8.2 8.2 0 0 1 2.223 2.986 8.422 8.422 0 0 1 .698 3.692z" fill="#367CFF"/>
        <path d="M148.876 12.959s1.909.024 1.251 2.731l-.179.01-.364.018" fill="#0C0C0C"/>
        <path d="M146.743 18.527c.009-.001.044 1.688 1.952 1.617 1.321-.05 1.845-1.468 1.875-1.467-.141-.037-.378-.091-.44-.128-.203-.123-.455-.253-.506-.67-.03-.24.082-1.46.071-1.702l-2.04.384c.009.511.163 1.702-.538 1.884a5.96 5.96 0 0 1-.374.082z" fill="#E98862"/>
        <path opacity=".52" d="M147.573 17.977c.036-.104.06-.211.073-.32.032-.25.037-.502.015-.752.413-.04.807-.2 1.137-.459.032.144.215.776.152.909-.117.252-.641.651-1.377.622z" fill="#0C0C0C"/>
        <path d="M148.036 17.68c.799-.058 1.764-.559 1.797-1.673l.03-1.006c.034-1.114-.508-2.035-1.527-2.068-1.02-.033-1.809.847-1.843 1.961l-.013.445a3.5 3.5 0 0 0 .024.458c.045.401.116 1.012.373 1.429.242.393.648.492 1.159.455z" fill="#E98862"/>
        <path d="M149.759 16.345c.31.01.571-.323.581-.642.009-.319-.237-.503-.547-.513l-.166.209-.135.937.267.009z" fill="#E98862"/>
        <path d="M146.547 16.13a.522.522 0 0 0 .463.186c.185-.024.307.054.461.039.129-.014.151-.075.372-.088.851-.052 1.489-.107 1.53-1.206l.542-.495s.242 3.044-1.358 3.45c-.984.248-1.906.157-2.025-.793-.096-.772.015-1.093.015-1.093zM146.948 15.496a.128.128 0 0 0 .126-.13.128.128 0 0 0-.126-.129.128.128 0 0 0-.126.13c0 .07.057.129.126.129z" fill="#0C0C0C"/>
        <path d="M148.072 15.472a.128.128 0 0 0 .126-.129.128.128 0 0 0-.126-.13.128.128 0 0 0-.126.13c0 .071.057.13.126.13z" fill="#0C0C0C"/>
        <path d="M149.461 15.829s-.077-1.58-.54-1.685c-.308-.071-1.067.367-1.76.217-.303-.065-.593.007-.625.154-.013.058-.253-.459.235-1.088.388-.502 1.651-.643 2.213-.465 1.555.49.874 2.301.874 2.301l-.08.543-.317.023z" fill="#0C0C0C"/>
        <path d="M150.167 14.555a.841.841 0 0 0 .829-.853.841.841 0 0 0-.829-.852.841.841 0 0 0-.829.852c0 .471.371.853.829.853z" fill="#0C0C0C"/>
        <path d="M147.486 16.309h-.002c-.1-.003-.267-.02-.265-.096.002-.064.19-.747.211-.824a.03.03 0 0 1 .012-.016.027.027 0 0 1 .02-.002.026.026 0 0 1 .015.012.027.027 0 0 1 .002.02 14.95 14.95 0 0 0-.209.81c.009.02.112.04.215.043.007 0 .013.003.018.008a.026.026 0 0 1 .008.018.03.03 0 0 1-.007.019.025.025 0 0 1-.018.008z" fill="#0C0C0C" opacity=".52"/>
        <path d="M147.181 14.93a.584.584 0 0 0-.462.056.593.593 0 0 0-.123.098.03.03 0 0 0-.011.023c0 .009.002.018.008.024.006.007.014.01.022.011a.033.033 0 0 0 .024-.008l.002-.002a.542.542 0 0 1 .113-.081.497.497 0 0 1 .393-.027l.004.001a.044.044 0 0 0 .018.003.048.048 0 0 0 .019-.004.059.059 0 0 0 .016-.011.084.084 0 0 0 .01-.017.064.064 0 0 0 .003-.02.063.063 0 0 0-.005-.019.071.071 0 0 0-.011-.016.05.05 0 0 0-.017-.01h-.003zM147.921 15.024a.496.496 0 0 1 .514.057l.002.002a.033.033 0 0 0 .024.005.032.032 0 0 0 .02-.013.034.034 0 0 0-.006-.046.619.619 0 0 0-.131-.086.584.584 0 0 0-.466-.009.05.05 0 0 0-.026.028.05.05 0 0 0 0 .037.053.053 0 0 0 .026.027.048.048 0 0 0 .037 0h.003l.003-.002z" fill="#0C0C0C"/>
        <path d="M153.012 22.745c-.071.552-.14 1.31-.202 2.095a8.103 8.103 0 0 1-1.314 1.158 7.873 7.873 0 0 1-3.346 1.346c-1.2.182-2.425.08-3.581-.296l-.059-2.611a180.747 180.747 0 0 0-.062-2.274c-.055-1.212-.367-2.02-.131-2.682a1.36 1.36 0 0 1 .331-.516c.55-.554 1.917-.541 2.465-.52.009.001-.16 1.303 1.643 1.287 1.325-.011 1.425-1.164 1.425-1.164s.653.07 1.087.148c.709.128 1.17.395 1.529.795.335.373.533.769.215 3.234z" fill="#367CFF"/>
        <path d="m142.409 18.577.055-1.388a.227.227 0 0 0-.063-.166.21.21 0 0 0-.161-.063.221.221 0 0 0-.144.07.234.234 0 0 0-.06.152l-.011.298-.381-.954c-.041-.107-.157-.21-.271-.156a.219.219 0 0 0-.133.237.01.01 0 0 0-.003 0l-.002.002-.063-.165a.213.213 0 0 0-.228-.138.205.205 0 0 0-.088.034.22.22 0 0 0-.086.122.227.227 0 0 0 .007.15l.027.07a.015.015 0 0 0-.004.006.208.208 0 0 0-.267-.075.23.23 0 0 0-.105.289l.066.174a.015.015 0 0 0-.008-.003h-.009a.018.018 0 0 0-.009.008.21.21 0 0 0-.341.108.226.226 0 0 0 .008.148l.558 1.469c.078.205.213.382.39.507.176.126.385.194.599.197a.7.7 0 0 0 .498-.2.738.738 0 0 0 .22-.501l.009-.232z" fill="#E98862"/>
        <path d="M141.612 17.553a.019.019 0 0 1-.025-.011l-.361-.908c-.002-.002-.002-.005-.002-.008l.001-.008a.018.018 0 0 1 .004-.007.018.018 0 0 1 .007-.004.019.019 0 0 1 .008-.002.03.03 0 0 1 .008.002.028.028 0 0 1 .006.005.019.019 0 0 1 .004.007l.361.907a.021.021 0 0 1 .002.008.021.021 0 0 1-.002.008.018.018 0 0 1-.011.01zM141.227 17.727a.02.02 0 0 1-.026-.011l-.403-1.013a.02.02 0 0 1 0-.016.02.02 0 0 1 .011-.01.02.02 0 0 1 .015 0 .018.018 0 0 1 .01.01l.404 1.013a.021.021 0 0 1-.001.016.018.018 0 0 1-.01.01zM140.813 17.92a.02.02 0 0 1-.015 0 .023.023 0 0 1-.01-.012l-.322-.808a.02.02 0 0 1 .011-.027.02.02 0 0 1 .026.011l.322.809a.028.028 0 0 1-.001.015.018.018 0 0 1-.01.011h-.001z" fill="#0C0C0C" opacity=".2"/>
        <path d="m146.878 20.755-3.285 5.196a1.447 1.447 0 0 1-.467.463 8.095 8.095 0 0 1-2.293-1.958l-.689-5.504 2.761-.455.314 2.649 1.262-1.995 2.397 1.604z" fill="#367CFF"/>
        <path d="M147.264 16.594c.302.02.601-.063.851-.237a.054.054 0 0 1 .059-.002.059.059 0 0 1 .027.055c-.021.183-.108.52-.482.563-.241.028-.416-.163-.504-.29a.062.062 0 0 1-.01-.03.056.056 0 0 1 .029-.053.053.053 0 0 1 .03-.006z" fill="#fff"/>
        <path d="M153.902 23.332A8.218 8.218 0 0 1 151.495 26l-1.283-5.022 2.889-.782.801 3.135z" fill="#367CFF"/>
        <path d="M151.524 25.982a.42.42 0 0 0-.029.02l-.027.018-.978-3.825.062-.017.972 3.804zM144.517 24.675a.032.032 0 0 1-.021-.01.034.034 0 0 1-.009-.02l-.063-1.426a.03.03 0 0 1 .008-.024.033.033 0 0 1 .022-.01.03.03 0 0 1 .023.008c.006.006.01.014.01.023l.063 1.425a.03.03 0 0 1-.008.024.031.031 0 0 1-.022.01h-.003z" fill="#0C0C0C"/>
        <path d="M181.5 63.492c4.694 0 8.5-3.916 8.5-8.746S186.194 46 181.5 46s-8.5 3.916-8.5 8.746 3.806 8.746 8.5 8.746z" fill="#fff"/>
        <path opacity=".09" d="M181.5 63.492c4.694 0 8.5-3.916 8.5-8.746S186.194 46 181.5 46s-8.5 3.916-8.5 8.746 3.806 8.746 8.5 8.746z" fill="#367CFF"/>
        <path d="M179.16 49.785s.092 2.635 1.801 2.756l.289-3.474-2.09.718z" fill="#0A0A0A"/>
        <path d="M179.489 53.077c.559 0 1.012-.466 1.012-1.042 0-.575-.453-1.041-1.012-1.041-.559 0-1.012.466-1.012 1.041 0 .576.453 1.042 1.012 1.042z" fill="#0A0A0A"/>
        <path d="M183.449 53.761c-.009 0-.109 1.707-2.037 1.558-1.335-.102-1.811-1.56-1.842-1.56.153-.026.303-.063.451-.112.21-.116.47-.237.538-.657.039-.242-.028-1.481-.007-1.726l2.049.47c-.029.518-.229 1.717.473 1.93.117.035.243.067.375.097z" fill="#E98862"/>
        <path opacity=".5" d="M182.629 53.175a1.581 1.581 0 0 1-.061-.327 3.586 3.586 0 0 1 .013-.761 2.22 2.22 0 0 1-1.133-.511c-.038.145-.247.776-.189.914.11.26.624.685 1.37.685z" fill="#0C0C0C"/>
        <path d="M182.309 52.716c-.812.01-1.826-.41-1.952-1.532l-.113-1.013c-.126-1.122.344-2.1 1.371-2.221 1.027-.122 1.896.696 2.022 1.818l.05.449c.048.43.07 2.48-1.378 2.5z" fill="#E98862"/>
        <path d="M183.392 50.185a.13.13 0 0 0 .127-.131.13.13 0 0 0-.127-.131.13.13 0 0 0-.127.13.13.13 0 0 0 .127.132zM182.091 50.339a.13.13 0 0 0 .127-.131.13.13 0 0 0-.127-.13.13.13 0 0 0-.127.13.13.13 0 0 0 .127.131z" fill="#0C0C0C"/>
        <path opacity=".5" d="M182.738 51.205h.002c.041-.005.083-.013.123-.023.061-.015.142-.042.135-.098-.007-.064-.254-.734-.283-.81a.029.029 0 0 0-.005-.008.023.023 0 0 0-.008-.006.028.028 0 0 0-.01-.003c-.004 0-.007 0-.01.002a.036.036 0 0 0-.009.005.091.091 0 0 0-.006.01.034.034 0 0 0-.002.01l.002.01c.105.285.275.753.279.796a.456.456 0 0 1-.212.062.025.025 0 0 0-.018.009.023.023 0 0 0-.006.02c0 .007.003.013.009.018a.026.026 0 0 0 .019.006zM182.553 51.672c.167-.01.329-.06.474-.146a.026.026 0 0 0 .011-.016.027.027 0 0 0-.002-.02.027.027 0 0 0-.015-.012.027.027 0 0 0-.02.001c-.312.178-.61.188-.863.03a.242.242 0 0 0-.015-.01.027.027 0 0 0-.02 0 .028.028 0 0 0-.015.034.03.03 0 0 0 .013.016.765.765 0 0 0 .452.123z" fill="#0C0C0C"/>
        <path d="m179.409 50.457.92-.103c.708-.236 1.002-1.445 1.002-1.445s.634.742 2.513.403c0 0-.073-2.492-2.931-2.141-.995.122-1.745 1.149-1.753 2.491-.005.94.249.795.249.795z" fill="#0A0A0A"/>
        <path d="M180.459 51.516c-.312.037-.603-.276-.639-.597-.036-.321.197-.528.509-.565l.185.196.214.934-.269.032z" fill="#E98862"/>
        <path d="M182.943 49.728a.574.574 0 0 1 .454-.048c.049.017.095.04.139.068a.02.02 0 0 1 .008.012c.001.006.001.011-.002.016-.002.004-.007.008-.012.01a.018.018 0 0 1-.014-.002l-.002-.001a.558.558 0 0 0-.131-.059.522.522 0 0 0-.408.056l-.002.001a.027.027 0 0 1-.011.005.03.03 0 0 1-.012 0 .036.036 0 0 1-.011-.005.033.033 0 0 1-.008-.01.045.045 0 0 1-.004-.011.026.026 0 0 1 .001-.012.04.04 0 0 1 .005-.011.03.03 0 0 1 .009-.008l.001-.001zM182.118 49.885a.52.52 0 0 0-.411.04.569.569 0 0 0-.114.087h-.002a.018.018 0 0 1-.013.005.019.019 0 0 1-.013-.007.022.022 0 0 1-.005-.013.017.017 0 0 1 .004-.014.62.62 0 0 1 .121-.098.572.572 0 0 1 .463-.052.023.023 0 0 1 .008.009.025.025 0 0 1 .004.012.026.026 0 0 1-.001.012.025.025 0 0 1-.006.01.022.022 0 0 1-.009.009.029.029 0 0 1-.011.003c-.005 0-.009 0-.012-.002h-.001l-.002-.001z" fill="#0C0C0C"/>
        <path opacity=".52" d="M182.571 51.925a.508.508 0 0 0 .09-.012.026.026 0 0 0 .016-.012.023.023 0 0 0 .003-.02.027.027 0 0 0-.01-.016.028.028 0 0 0-.02-.005.326.326 0 0 1-.275-.04.028.028 0 0 0-.02-.006.026.026 0 0 0-.017.01.026.026 0 0 0 .004.038c.067.047.148.07.229.063z" fill="#0C0C0C"/>
        <path opacity=".1" d="M181.916 51.225c.134-.004.239-.09.236-.191-.003-.101-.115-.18-.249-.174-.133.005-.239.09-.236.191.004.101.115.18.249.174zM183.347 50.944c.004.101.115.18.249.175a.323.323 0 0 0 .068-.01c.016-.119.026-.233.031-.34a.299.299 0 0 0-.112-.016c-.134.005-.239.09-.236.191z" fill="#0C0C0C"/>
        <path d="M186.33 55.56c-.006.597-.205 1.308-.276 2.167-.019.23-.497.893-.567 1.63-.087.94.108 2.406.134 3.04a8.32 8.32 0 0 1-4.402 1.089 8.34 8.34 0 0 1-4.321-1.388c-.035-1.627-.076-3.636-.129-4.118-.171-1.59-.125-2.596.123-3.067.404-.768 1.124-1.003 1.877-1.108.46-.065 1.151-.11 1.151-.11s.059 1.219 1.456 1.287c1.9.092 1.774-1.287 1.783-1.287.69 0 1.996.17 2.497.521.531.372.68.813.674 1.345z" fill="#FFC239"/>
        <path d="m179.762 56.49-2.579 5.79a8.609 8.609 0 0 1-2.533-2.356l2.152-4.83 2.96 1.396zM188.412 59.837a8.662 8.662 0 0 1-2.518 2.397l-2.647-5.987 2.964-1.388 2.201 4.978z" fill="#FFC239"/>
        <path d="M156.036 139.058c9.408 0 17.035-7.848 17.035-17.529 0-9.681-7.627-17.529-17.035-17.529-9.409 0-17.036 7.848-17.036 17.529 0 9.681 7.627 17.529 17.036 17.529z" fill="#fff"/>
        <path opacity=".09" d="M156.036 139.058c9.408 0 17.035-7.848 17.035-17.529 0-9.681-7.627-17.529-17.035-17.529-9.409 0-17.036 7.848-17.036 17.529 0 9.681 7.627 17.529 17.036 17.529z" fill="#367CFF"/>
        <path d="M159.331 111.033s1.079-1.203.996-3.494c-.065-1.774-1.418-.365-1.418-.365s-.059-1.277-.919-.989c-.861.288-1.126 1.691-1.126 1.691M153.45 107.183s-4.296 1.299-1.638 7.113l.393-.045.796-.093" fill="#0C0C0C"/>
        <path d="M159.537 120.322c-.019-.002-.237 3.707-4.424 3.383-2.899-.224-3.932-3.388-3.999-3.388.313-.069.699-.172.853-.208.334-.08.637-.263.868-.524a1.76 1.76 0 0 0 .425-.939c.085-.526-.059-3.216-.014-3.747l4.449 1.021c-.062 1.124-.497 3.728 1.028 4.189.254.076.527.147.814.213z" fill="#E98862"/>
        <path opacity=".52" d="M157.759 119.046a3.38 3.38 0 0 1-.134-.711 7.808 7.808 0 0 1 .029-1.653 4.807 4.807 0 0 1-2.459-1.108c-.083.314-.537 1.686-.411 1.984.237.564 1.355 1.488 2.975 1.488z" fill="#0C0C0C"/>
        <path d="M157.033 117.869c-1.755.162-4.02-.576-4.474-2.983l-.41-2.172c-.454-2.408.406-4.604 2.609-5.044 2.202-.44 4.217 1.183 4.671 3.59l.181.961c.057.331.092.666.104 1.002.04.889.096 2.239-.319 3.238-.392.943-1.24 1.304-2.362 1.408z" fill="#E98862"/>
        <path opacity=".5" d="M157.298 115.484c.321-.006.637-.09.921-.244a.04.04 0 0 0 .016-.013c.005-.005.008-.011.011-.017a.05.05 0 0 0 .002-.021.046.046 0 0 0-.005-.02.048.048 0 0 0-.03-.026.046.046 0 0 0-.02-.002.06.06 0 0 0-.019.006c-.613.319-1.188.316-1.663-.007a.18.18 0 0 0-.029-.019.07.07 0 0 0-.019-.006.064.064 0 0 0-.02.003.059.059 0 0 0-.017.01.061.061 0 0 0-.012.016.065.065 0 0 0-.005.02l.003.02a.042.042 0 0 0 .01.017.044.044 0 0 0 .015.012l.019.013c.249.17.542.26.842.258z" fill="#0C0C0C"/>
        <path opacity=".52" d="M157.315 115.975a.913.913 0 0 0 .173-.016.044.044 0 0 0 .019-.007c.005-.004.01-.008.014-.014.004-.005.006-.012.008-.018.001-.007.002-.014 0-.02a.044.044 0 0 0-.007-.019.047.047 0 0 0-.013-.015.037.037 0 0 0-.018-.008.04.04 0 0 0-.019-.001.623.623 0 0 1-.528-.098.048.048 0 0 0-.036-.012.05.05 0 0 0-.034.017.058.058 0 0 0-.013.037.056.056 0 0 0 .017.036.67.67 0 0 0 .437.138z" fill="#0C0C0C"/>
        <path d="M158.902 112.823a.28.28 0 0 0 .277-.284.28.28 0 0 0-.277-.284.28.28 0 0 0-.276.284.28.28 0 0 0 .276.284zM156.215 113.145a.28.28 0 0 0 .276-.284.28.28 0 0 0-.276-.284.28.28 0 0 0-.277.284.28.28 0 0 0 .277.284z" fill="#0C0C0C"/>
        <path d="M152.834 115.591c-.67.134-1.351-.495-1.481-1.184-.13-.688.341-1.177 1.01-1.31l.432.392.614 1.987-.575.115z" fill="#E98862"/>
        <path d="M153.305 114.355s-.374-3.456.595-3.854c.646-.265 2.442.41 3.896-.166.635-.252 1.29-.2 1.41.108.047.122.137-1.776-1.137-2.965-1.015-.948-3.756-.758-4.915-.17-3.208 1.63-.904 5.962-.904 5.962l.358 1.149.697-.064z" fill="#0C0C0C"/>
        <path d="M157.71 114.632h.004c.216-.043.573-.139.543-.305-.025-.138-.668-1.551-.741-1.712a.06.06 0 0 0-.032-.03.076.076 0 0 0-.021-.003.054.054 0 0 0-.022.005.055.055 0 0 0-.017.014.045.045 0 0 0-.011.019.054.054 0 0 0-.004.022.079.079 0 0 0 .005.022c.285.626.716 1.591.733 1.684-.014.043-.23.126-.453.17a.06.06 0 0 0-.037.023.061.061 0 0 0-.011.043.06.06 0 0 0 .023.038.056.056 0 0 0 .041.011v-.001z" fill="#0C0C0C" opacity=".52"/>
        <path d="M157.862 111.168c.216-.106.456-.151.695-.129.117.01.232.039.341.084.107.044.209.102.302.172a.08.08 0 0 1 .034.052.09.09 0 0 1-.011.062.086.086 0 0 1-.05.036.078.078 0 0 1-.06-.009l-.007-.002a1.156 1.156 0 0 0-.271-.133.964.964 0 0 0-.292-.052 1.09 1.09 0 0 0-.56.138l-.007.004a.106.106 0 0 1-.045.016.13.13 0 0 1-.048-.003.146.146 0 0 1-.043-.022.156.156 0 0 1-.031-.037.136.136 0 0 1-.012-.096.14.14 0 0 1 .022-.044.11.11 0 0 1 .036-.032l.007-.005zM156.278 111.606a1.083 1.083 0 0 0-.576-.006.955.955 0 0 0-.273.117 1.204 1.204 0 0 0-.237.191l-.004.005a.081.081 0 0 1-.114-.001.083.083 0 0 1-.024-.058.082.082 0 0 1 .022-.059c.076-.09.162-.169.257-.237a1.238 1.238 0 0 1 .661-.225c.12-.007.241.004.359.032a.126.126 0 0 1 .091.151.127.127 0 0 1-.054.079.122.122 0 0 1-.093.015l-.007-.002-.008-.002zM157.127 108.88c.478-.2.634-.948.349-1.671-.285-.724-.904-1.149-1.381-.95-.478.199-.634.947-.349 1.671.285.724.903 1.149 1.381.95z" fill="#0C0C0C"/>
        <path d="M165.324 124.158c.017 1.188-.434 2.524-.585 4.332-.03.367-.103 1.176-.199 2.229-.157 1.744-.38 4.156-.575 6.33a16.65 16.65 0 0 1-9.07 1.971 16.754 16.754 0 0 1-8.917-3.338c-.163-2.458-.355-5.038-.531-6.667-.33-3.043-.78-4.558-.528-5.581.021-.087.048-.172.081-.255.726-1.811 3.037-2.62 4.602-2.838.956-.133 2.393-.229 2.393-.229s.121 2.534 3.022 2.674c3.951.192 3.687-2.674 3.707-2.674.639 0 4.123.479 4.993 1.064a3.8 3.8 0 0 1 .418.321c.378.324.681.731.887 1.192.206.46.309.962.302 1.469z" fill="#383838"/>
        <path d="m150.781 125.995-4.618 9.825c-.062-.048-.123-.093-.184-.138a17.462 17.462 0 0 1-4.471-4.993l3.412-7.255.135-.288 5.726 2.849z" fill="#383838"/>
        <path d="m150.336 127.126-4.201 8.672c-.028-.021-.054-.041-.082-.06l4.195-8.656a.05.05 0 0 1 .029-.026.05.05 0 0 1 .038.003.05.05 0 0 1 .021.067z" fill="#fff"/>
        <path d="M171.636 128.588a17.64 17.64 0 0 1-3.47 5.251l-3.624-3.12-4.604-3.964 4.199-5.259.012-.015 7.487 7.107z" fill="#383838"/>
        <path d="M164.597 130.757a.045.045 0 0 0 .032-.014.05.05 0 0 0 .015-.032l.239-2.885a.048.048 0 0 0-.012-.036.044.044 0 0 0-.033-.018.046.046 0 0 0-.035.012.05.05 0 0 0-.018.034l-.239 2.885a.056.056 0 0 0 .011.037.05.05 0 0 0 .034.017h.006z" fill="#fff"/>
    </g>
    <defs>
        <clipPath id="qtpqv4h8pa">
            <path fill="#fff" d="M0 0h208v163H0z"/>
        </clipPath>
    </defs>
</svg>
