<svg width="108" height="60" viewBox="0 0 108 60" fill="none" xmlns="http://www.w3.org/2000/svg">
<path d="M82.3493 19.9273L73.2125 29.0563C71.6401 30.6274 71.6401 33.1747 73.2125 34.7459C74.785 36.317 77.3344 36.317 78.9069 34.7459L88.0435 25.6168C89.6162 24.0457 89.6162 21.4985 88.0435 19.9273C86.4712 18.3562 83.9218 18.3562 82.3493 19.9273Z" fill="white"/>
<path d="M97.6843 16.034L106.821 6.90491C108.394 5.3338 108.394 2.78654 106.821 1.21544C105.249 -0.355666 102.699 -0.355666 101.127 1.21544L91.99 10.3444C90.4174 11.9156 90.4174 14.4629 91.99 16.034C93.5624 17.6051 96.1119 17.6051 97.6843 16.034Z" fill="white"/>
<path d="M78.906 1.21544C77.3335 -0.355666 74.7841 -0.355666 73.2116 1.21544C71.6391 2.78666 71.6391 5.33392 73.2116 6.90502L82.3484 16.034C83.9208 17.605 86.4703 17.605 88.0428 16.034C89.6151 14.4629 89.6151 11.9155 88.0428 10.3444L78.906 1.21544Z" fill="white"/>
<path d="M97.6843 19.9684C96.1119 18.3973 93.5624 18.3973 91.99 19.9684C90.4174 21.5396 90.4174 24.0869 91.99 25.658L101.127 34.7869C102.699 36.358 105.249 36.358 106.821 34.7869C108.394 33.2158 108.394 30.6684 106.821 29.0973L97.6843 19.9684Z" fill="white"/>
<path d="M52.0226 0.00683594C49.8123 0.00683594 48.0205 1.79706 48.0205 4.00553V31.9967C48.0205 34.2051 49.8123 35.9954 52.0226 35.9954C54.233 35.9954 56.0249 34.2051 56.0249 31.9967V4.00553C56.0249 1.79706 54.233 0.00683594 52.0226 0.00683594Z" fill="white"/>
<path d="M64.0286 0.0244141C61.8184 0.0244141 60.0264 1.81463 60.0264 4.02311V32.0142C60.0264 34.2227 61.8184 36.0129 64.0286 36.0129C66.239 36.0129 68.0308 34.2227 68.0308 32.0142V4.02311C68.0308 1.81463 66.239 0.0244141 64.0286 0.0244141Z" fill="white"/>
<path d="M15.9625 36.0078C13.7266 36.0078 11.9141 37.8188 11.9141 40.0528V55.9552C11.9141 58.1892 13.7266 60.0002 15.9625 60.0002C18.1984 60.0002 20.011 58.1892 20.011 55.9552V40.0528C20.011 37.8188 18.1984 36.0078 15.9625 36.0078Z" fill="white"/>
<path d="M12.0065 32.0086C12.0065 29.8001 10.2147 28.0098 8.00424 28.0098H4.00212C1.79187 28.0098 0 29.8001 0 32.0086C0 34.2171 1.79187 36.0073 4.00212 36.0073H8.00424C10.2147 36.0073 12.0065 34.2171 12.0065 32.0086Z" fill="white"/>
<path d="M26.0075 0H16.0985C13.8387 0 12.0068 1.83031 12.0068 4.08816V24.0122C12.0068 26.2202 13.7984 28.0101 16.0081 28.0101H16.0099C18.2198 28.0101 20.0112 26.2202 20.0112 24.0122V7.9974H25.8197C31.2872 7.9974 35.8877 12.2988 36.017 17.7601C36.1501 23.3859 31.6085 28.0049 26.0075 28.0049L24.009 28.0066C21.8005 28.0085 20.0112 29.7978 20.0112 32.0044C20.0112 34.2124 21.8026 36.0023 24.0125 36.0023H26.0075C35.9578 36.0023 44.024 27.9429 44.024 18.0012C44.024 8.05935 35.9578 0 26.0075 0Z" fill="white"/>
</svg>



