<svg width="160" height="88" viewBox="0 0 160 88" fill="none" xmlns="http://www.w3.org/2000/svg">
    <path d="m112.984 30.81-11.758 11.955c-2.024 2.057-2.024 5.393 0 7.451a5.121 5.121 0 0 0 7.328 0l11.759-11.956c2.024-2.057 2.024-5.393 0-7.45a5.122 5.122 0 0 0-7.329 0zM132.719 25.71l11.759-11.956c2.024-2.057 2.024-5.393 0-7.45a5.121 5.121 0 0 0-7.328-.001l-11.759 11.956c-2.024 2.057-2.024 5.393 0 7.45a5.121 5.121 0 0 0 7.328 0zM108.554 6.303a5.121 5.121 0 0 0-7.328 0c-2.024 2.058-2.024 5.394 0 7.451l11.759 11.956a5.122 5.122 0 0 0 7.328 0c2.023-2.058 2.023-5.394 0-7.451L108.554 6.303zM132.719 30.864a5.121 5.121 0 0 0-7.328 0c-2.024 2.057-2.024 5.393 0 7.45L137.15 50.27a5.121 5.121 0 0 0 7.328 0c2.024-2.057 2.024-5.393 0-7.45l-11.759-11.956zM73.955 4.72c-2.844 0-5.15 2.345-5.15 5.237v36.658c0 2.892 2.306 5.237 5.15 5.237 2.845 0 5.151-2.344 5.151-5.237V9.957c0-2.892-2.306-5.236-5.15-5.236zM89.406 4.743c-2.845 0-5.151 2.345-5.151 5.237v36.658c0 2.892 2.306 5.237 5.15 5.237 2.845 0 5.151-2.345 5.151-5.237V9.98c0-2.892-2.306-5.237-5.15-5.237zM27.546 51.867c-2.877 0-5.21 2.372-5.21 5.298V77.99c0 2.926 2.333 5.297 5.21 5.297 2.878 0 5.21-2.371 5.21-5.297V57.165c0-2.926-2.332-5.298-5.21-5.298zM22.456 46.632c0-2.892-2.306-5.237-5.15-5.237h-5.152c-2.844 0-5.15 2.344-5.15 5.237 0 2.892 2.306 5.236 5.15 5.236h5.151c2.845 0 5.15-2.344 5.15-5.236zM40.472 4.712H27.72c-2.908 0-5.266 2.397-5.266 5.354v26.092c0 2.892 2.306 5.236 5.15 5.236h.002c2.844 0 5.15-2.344 5.15-5.236V15.185h7.475c7.036 0 12.957 5.633 13.123 12.786.172 7.367-5.673 13.416-12.882 13.416l-2.572.003c-2.842.002-5.145 2.346-5.145 5.235 0 2.892 2.306 5.236 5.15 5.236h2.567c12.806 0 23.187-10.555 23.187-23.575S53.279 4.712 40.472 4.712zM80.06 67.535h-1.847v-4.12c0-.589-.099-1.018-.296-1.29a.96.96 0 0 0-.82-.406c-.368 0-.712.142-1.034.428a2.357 2.357 0 0 0-.69 1.114v4.274h-1.847v-4.12c0-.589-.099-1.018-.296-1.29a.96.96 0 0 0-.82-.406c-.358 0-.7.14-1.027.42-.326.28-.558.65-.696 1.108v4.288H68.84v-7.344h1.668v1.36a2.781 2.781 0 0 1 1.096-1.1c.464-.257.994-.386 1.592-.386.606 0 1.075.15 1.405.449.332.299.543.668.635 1.107.293-.505.666-.89 1.116-1.156.45-.267.965-.4 1.544-.4.441 0 .804.084 1.089.253.284.168.505.387.662.658.156.271.264.58.323.925.06.346.09.696.09 1.051v4.583zM86.593 63.247c-.046-.551-.246-.993-.6-1.325a1.816 1.816 0 0 0-1.288-.497 1.815 1.815 0 0 0-1.675 1.079 2.06 2.06 0 0 0-.186.743h3.749zm-1.875 4.428c-.579 0-1.103-.1-1.571-.301a3.589 3.589 0 0 1-1.2-.82 3.64 3.64 0 0 1-.764-1.205 3.923 3.923 0 0 1-.269-1.444c0-.523.087-1.016.262-1.478.174-.463.427-.87.758-1.22.33-.35.732-.628 1.206-.833a3.96 3.96 0 0 1 1.592-.309c.588 0 1.114.103 1.578.309.464.205.86.48 1.186.826.326.346.574.748.744 1.206.17.458.255.934.255 1.43 0 .12-.002.237-.007.35a1.462 1.462 0 0 1-.034.28H82.87c.028.29.097.547.207.77a1.854 1.854 0 0 0 1.02.94c.22.084.45.126.69.126.367 0 .714-.091 1.04-.274.326-.182.549-.422.668-.721l1.585.448c-.266.56-.69 1.021-1.274 1.38-.584.36-1.28.54-2.089.54zM100.541 67.535h-1.847v-4.12c0-.589-.1-1.018-.297-1.29a.96.96 0 0 0-.82-.406c-.367 0-.712.142-1.034.428a2.357 2.357 0 0 0-.689 1.114v4.274h-1.847v-4.12c0-.589-.1-1.018-.296-1.29a.96.96 0 0 0-.82-.406c-.359 0-.701.14-1.028.42a2.29 2.29 0 0 0-.695 1.108v4.288H89.32v-7.344h1.668v1.36a2.781 2.781 0 0 1 1.096-1.1c.464-.257.995-.386 1.592-.386.607 0 1.075.15 1.406.449.331.299.542.668.634 1.107.294-.505.666-.89 1.117-1.156.45-.267.965-.4 1.543-.4.441 0 .805.084 1.09.253.284.168.505.387.661.658.156.271.264.58.324.925.06.346.09.696.09 1.051v4.583zM105.447 66.078c.294 0 .565-.058.814-.175.248-.117.459-.273.634-.47.174-.196.31-.425.406-.686a2.4 2.4 0 0 0 .145-.841c0-.299-.046-.584-.138-.855a2.24 2.24 0 0 0-.393-.715 1.96 1.96 0 0 0-.6-.49 1.593 1.593 0 0 0-.758-.182c-.413 0-.783.137-1.109.413a2.738 2.738 0 0 0-.751 1.016v1.752c.064.187.158.355.282.504a2.043 2.043 0 0 0 .931.638c.183.06.363.091.537.091zm.51 1.598a2.865 2.865 0 0 1-1.474-.379 2.73 2.73 0 0 1-1.02-1.037v1.276h-1.613V57.305h1.847v4.176a2.802 2.802 0 0 1 1.013-1.044c.418-.247.907-.371 1.468-.371.469 0 .896.103 1.282.308.386.206.719.481.999.827s.496.752.648 1.22c.152.467.227.957.227 1.47 0 .533-.085 1.029-.255 1.486-.17.458-.406.858-.709 1.199-.304.34-.662.61-1.076.806a3.075 3.075 0 0 1-1.337.294zM114.587 61.817c-.56.01-1.061.12-1.502.33a1.91 1.91 0 0 0-.951.946v4.442h-1.847v-7.343h1.696v1.57c.128-.253.28-.48.454-.68.175-.201.363-.376.566-.526a2.59 2.59 0 0 1 .613-.343c.207-.08.407-.12.6-.12h.227c.05 0 .099.005.144.014v1.71zM120.184 63.247c-.046-.551-.246-.993-.6-1.325a1.818 1.818 0 0 0-1.289-.497 1.816 1.816 0 0 0-1.675 1.079 2.077 2.077 0 0 0-.186.743h3.75zm-1.875 4.428c-.579 0-1.103-.1-1.571-.301a3.588 3.588 0 0 1-1.199-.82 3.636 3.636 0 0 1-.765-1.205 3.909 3.909 0 0 1-.269-1.444c0-.523.087-1.016.262-1.478.174-.463.427-.87.758-1.22s.732-.628 1.206-.833a3.959 3.959 0 0 1 1.592-.309c.588 0 1.114.103 1.578.309.464.205.859.48 1.186.826.326.346.574.748.744 1.206.17.458.255.934.255 1.43 0 .12-.002.237-.007.35a1.515 1.515 0 0 1-.034.28h-5.583c.028.29.097.547.207.77a1.852 1.852 0 0 0 1.02.94c.22.084.45.126.689.126.367 0 .715-.091 1.041-.274.326-.182.549-.422.668-.721l1.585.448c-.266.56-.691 1.021-1.274 1.38-.584.36-1.28.54-2.089.54zM125.643 67.675a5.503 5.503 0 0 1-1.778-.294 4.327 4.327 0 0 1-1.489-.84l.689-1.178a5.9 5.9 0 0 0 1.289.722c.418.163.834.245 1.248.245.367 0 .656-.07.868-.21a.681.681 0 0 0 .317-.603c0-.261-.124-.453-.372-.575-.248-.12-.653-.26-1.213-.42-.469-.13-.868-.257-1.199-.378a3.049 3.049 0 0 1-.8-.414 1.41 1.41 0 0 1-.441-.532 1.723 1.723 0 0 1-.138-.722c0-.373.071-.71.214-1.01a2.18 2.18 0 0 1 .6-.763c.257-.21.558-.371.902-.483a3.61 3.61 0 0 1 1.124-.169c.542 0 1.05.08 1.523.239.473.159.907.416 1.303.77l-.745 1.136a4.308 4.308 0 0 0-1.068-.617 2.88 2.88 0 0 0-1.027-.196c-.313 0-.574.065-.786.196-.211.131-.317.341-.317.63 0 .132.026.239.076.323.05.084.131.159.241.224.111.066.255.129.434.19.18.06.402.123.669.189.496.13.921.261 1.275.392.353.131.643.28.869.448.224.169.39.363.496.582.105.22.158.484.158.792 0 .72-.262 1.287-.786 1.703-.523.415-1.236.623-2.136.623zM130.853 59.337l-1.185-.365.744-1.667h1.723l-1.282 2.032zm-1.392.855h1.847v7.343h-1.847v-7.343zM135.167 66.302c.312 0 .609-.056.889-.168.28-.112.498-.262.655-.449.202-.159.303-.336.303-.532v-.841a4.48 4.48 0 0 0-.717-.204 3.807 3.807 0 0 0-.744-.077c-.478 0-.869.11-1.172.33-.303.22-.455.497-.455.834 0 .318.12.581.359.791.239.21.533.316.882.316zm-.524 1.373a2.7 2.7 0 0 1-.978-.175 2.335 2.335 0 0 1-.786-.49 2.273 2.273 0 0 1-.517-.736 2.261 2.261 0 0 1-.186-.925c0-.346.076-.666.227-.96.152-.295.363-.544.634-.75.271-.206.595-.367.972-.483.377-.117.79-.176 1.241-.176.321 0 .636.028.944.084.307.056.581.136.82.239v-.42c0-.486-.136-.86-.407-1.122-.271-.261-.673-.392-1.206-.392-.386 0-.763.07-1.13.21-.368.14-.744.346-1.13.617l-.566-1.192c.929-.626 1.93-.939 3.006-.939 1.038 0 1.844.26 2.419.778.574.519.861 1.268.861 2.25v2.284c0 .196.035.336.103.42.069.085.182.131.338.14v1.598a4.062 4.062 0 0 1-.813.098c-.35 0-.618-.08-.807-.238a1.03 1.03 0 0 1-.351-.63l-.041-.407c-.322.43-.713.757-1.172.98-.46.225-.951.337-1.475.337zM143.009 67.675a5.503 5.503 0 0 1-1.778-.294 4.327 4.327 0 0 1-1.489-.84l.689-1.178c.442.318.871.558 1.289.722.418.163.834.245 1.248.245.367 0 .657-.07.868-.21a.681.681 0 0 0 .317-.603c0-.261-.124-.453-.372-.575-.248-.12-.653-.26-1.213-.42-.469-.13-.868-.257-1.199-.378a3.049 3.049 0 0 1-.8-.414 1.41 1.41 0 0 1-.441-.532 1.724 1.724 0 0 1-.137-.722c0-.373.071-.71.213-1.01a2.18 2.18 0 0 1 .6-.763c.257-.21.558-.371.902-.483a3.61 3.61 0 0 1 1.124-.169c.542 0 1.05.08 1.523.239.473.159.907.416 1.303.77l-.745 1.136a4.308 4.308 0 0 0-1.068-.617 2.88 2.88 0 0 0-1.027-.196c-.313 0-.574.065-.786.196-.211.131-.317.341-.317.63 0 .132.026.239.076.323.05.084.131.159.241.224.111.066.255.129.434.19.18.06.403.123.669.189.496.13.921.261 1.275.392.354.131.643.28.869.448.225.169.39.363.496.582.105.22.158.484.158.792 0 .72-.262 1.287-.785 1.703-.524.415-1.237.623-2.137.623z" fill="#0E48A1"/>
</svg>
