<svg width="171" height="147" viewBox="0 0 171 147" fill="none" xmlns="http://www.w3.org/2000/svg">
    <path d="M85.152 147c41.575 0 75.277-32.907 75.277-73.5S126.727 0 85.152 0C43.578 0 9.875 32.907 9.875 73.5S43.578 147 85.152 147z" fill="#fff"/>
    <path opacity=".5" d="M85.152 147c41.575 0 75.277-32.907 75.277-73.5S126.727 0 85.152 0C43.578 0 9.875 32.907 9.875 73.5S43.578 147 85.152 147z" fill="#AAC0EB"/>
    <path d="m36.23 98.463-36-.107.148-47.75 24.893.073 11.073 10.878-.114 36.906z" fill="#fff"/>
    <path opacity=".3" d="m25.27 50.68-.034 10.845 11.107.033L25.27 50.68z" fill="#AAC0EB"/>
    <path d="M36.57 61.543a.227.227 0 0 0-.012-.057l-.007-.021a.22.22 0 0 0-.045-.066L25.433 50.52a.23.23 0 0 0-.148-.064l-.014-.002-24.893-.073c-.06 0-.119.023-.162.065a.221.221 0 0 0-.067.159L0 98.356c0 .06.024.116.067.158a.232.232 0 0 0 .162.066l35.999.107c.06 0 .119-.024.162-.066a.221.221 0 0 0 .067-.158l.115-36.906-.002-.014zM25.497 51.221l5.113 5.02 5.18 5.09-10.323-.031.03-10.08zM.459 98.133.605 50.83l24.435.073-.033 10.62c0 .06.024.116.067.158a.232.232 0 0 0 .162.066l10.878.032L36 98.238.459 98.133z" fill="#D9DADD"/>
    <path d="m109.619 96.554-49.091-.145.202-65.117 33.946.101 15.1 14.833-.157 50.328z" fill="#fff"/>
    <path opacity=".3" d="M94.675 31.393 94.63 46.18l15.146.045-15.1-14.833z" fill="#AAC0EB"/>
    <path d="M110.002 46.212a.224.224 0 0 0-.011-.057l-.008-.023a.224.224 0 0 0-.045-.065l-15.1-14.833a.23.23 0 0 0-.067-.045l-.021-.008a.237.237 0 0 0-.06-.011c-.005 0-.009-.003-.014-.003l-33.945-.1c-.061 0-.12.023-.163.065a.221.221 0 0 0-.067.158L60.3 96.406c0 .06.025.117.068.159a.232.232 0 0 0 .162.065l49.09.145c.061 0 .12-.023.163-.065a.221.221 0 0 0 .067-.158l.156-50.328c0-.003-.003-.007-.003-.012zm-15.1-14.279L109.223 46l-14.363-.042.044-14.024zM60.759 96.185l.2-64.669 33.488.1L94.4 46.18c0 .06.024.117.067.158a.232.232 0 0 0 .162.066l14.917.045-.155 49.88-48.633-.144z" fill="#D9DADD"/>
    <path d="m169.959 98.463-36-.107.149-47.75 24.893.073 11.073 10.878-.115 36.906z" fill="#fff"/>
    <path opacity=".3" d="m159.001 50.678-.034 10.845 11.107.033-11.073-10.878z" fill="#AAC0EB"/>
    <path d="M170.3 61.544a.225.225 0 0 0-.011-.057l-.008-.022a.24.24 0 0 0-.044-.065l-11.074-10.878a.222.222 0 0 0-.067-.044c-.007-.004-.014-.006-.021-.008a.224.224 0 0 0-.06-.012c-.004 0-.009-.003-.014-.003l-24.893-.073a.233.233 0 0 0-.162.065.221.221 0 0 0-.067.159l-.148 47.75c0 .06.024.117.067.159a.232.232 0 0 0 .162.065l36 .107a.231.231 0 0 0 .162-.066.221.221 0 0 0 .067-.158l.115-36.906-.004-.013zm-11.072-10.322 5.111 5.02 5.182 5.09-10.324-.031.031-10.08zM134.19 98.133l.147-47.303 24.434.072-.033 10.621c0 .06.024.116.067.158a.231.231 0 0 0 .162.066l10.878.032-.113 36.459-35.542-.105z" fill="#D9DADD"/>
    <path d="M109.85 46.759c-5.852-6.56-14.132-10.581-23.02-11.18-8.889-.599-17.657 2.274-24.376 7.987C51.23 53.11 47.78 68.98 54.068 82.162a32.587 32.587 0 0 0 4.813 7.328l.413.477-30.769 31.883a3.015 3.015 0 0 0-.835 2.183c.027.807.38 1.571.982 2.124a3.17 3.17 0 0 0 2.23.831 3.165 3.165 0 0 0 2.183-.944l30.761-31.877.514.375c6.638 4.862 14.884 7.153 23.15 6.431 8.264-.721 15.964-4.404 21.613-10.338 5.65-5.935 8.85-13.7 8.985-21.802.134-8.101-2.807-15.964-8.257-22.074h-.001zm1.929 23.379c-.476 6.736-3.55 13.045-8.602 17.656-5.051 4.611-11.705 7.181-18.62 7.192-.639 0-1.28-.022-1.922-.067a27.801 27.801 0 0 1-12.647-4.002 26.992 26.992 0 0 1-9.22-9.352 26.223 26.223 0 0 1-3.611-12.493 26.171 26.171 0 0 1 2.85-12.679 26.88 26.88 0 0 1 8.637-9.868 27.728 27.728 0 0 1 12.384-4.723 27.955 27.955 0 0 1 13.2 1.537 27.36 27.36 0 0 1 10.899 7.435 26.37 26.37 0 0 1 5.31 9.032 25.95 25.95 0 0 1 1.342 10.332z" fill="#2B66B0"/>
    <path d="M99 48H71v41h28V48z" fill="#AAC0EB"/>
    <path d="M96.18 54.046H74.136v32.387H96.18V54.046z" fill="#fff"/>
    <path d="M92.732 72.077H77.584v1.04h15.148v-1.04zM92.732 75.037H77.584v1.042h15.148v-1.041zM92.732 77.997H77.584v1.04h15.148v-1.04zM90.852 80.913h-11.39v1.041h11.39v-1.04z" fill="#AAC0EB"/>
    <path d="M85.158 68.513c3.113 0 5.637-2.448 5.637-5.467 0-3.019-2.524-5.466-5.637-5.466-3.114 0-5.638 2.447-5.638 5.466 0 3.02 2.524 5.467 5.638 5.467z" fill="#4CAF50"/>
    <path d="M85.158 66.59c2.018 0 3.654-1.588 3.654-3.545 0-1.957-1.636-3.544-3.654-3.544-2.019 0-3.655 1.587-3.655 3.544s1.636 3.544 3.655 3.544z" fill="#fff" opacity=".29"/>
    <path opacity=".5" d="M99 48H71v3.371h28V48z" fill="#2B66B0"/>
</svg>
