<svg width="170" height="137" viewBox="0 0 170 137" fill="none" xmlns="http://www.w3.org/2000/svg">
    <path d="M54.106 5.229C36.02 12.72 25.64 30.932 25.64 56.268c0 25.336-5.298 21.992-12.115 34.819-4.868 9.158-2.21 25.111 4.046 32.549 8.668 10.302 23.573 14.528 40.343 13.092 27.235-2.333 29.071-26.791 69.524-16.765 19.258 4.774 36.566-11.7 41.79-35.2 3.134-14.101-3.425-33.243-16.896-40.848-18.36-10.363-17.796-1.5-38.132-23.915C92.344-4.092 73.574-2.835 54.106 5.23z" fill="#F3F5FD"/>
    <path d="M150.759 55.074c5.18 0 9.379-4.18 9.379-9.335 0-5.156-4.199-9.336-9.379-9.336s-9.378 4.18-9.378 9.336c0 5.155 4.198 9.335 9.378 9.335z" fill="#4CAF50"/>
    <path d="M150.759 51.789c3.357 0 6.079-2.71 6.079-6.051 0-3.343-2.722-6.052-6.079-6.052-3.358 0-6.08 2.71-6.08 6.052 0 3.342 2.722 6.05 6.08 6.05z" fill="#fff" opacity=".29"/>
    <path d="m148.77 47.898.567-.875c.349.31.794.492 1.261.518.501 0 .722-.207.722-.608 0-.905-2.335-.89-2.335-2.478 0-1.02.711-1.671 1.832-1.671a2.2 2.2 0 0 1 1.684.747l-.651.741a1.361 1.361 0 0 0-.963-.444c-.425 0-.656.17-.656.566 0 .84 2.334.766 2.334 2.448 0 1.011-.672 1.743-1.966 1.743a2.95 2.95 0 0 1-1.829-.687zm1.555-5.977h.863v1.268h-.863V41.92zm0 6.135h.863v1.392h-.863v-1.392z" fill="#fff"/>
    <path d="M135.091 71.714c3.358 0 6.08-2.71 6.08-6.051 0-3.342-2.722-6.052-6.08-6.052s-6.08 2.71-6.08 6.052c0 3.342 2.722 6.051 6.08 6.051z" fill="#4CAF50"/>
    <path d="M135.091 69.587a3.932 3.932 0 0 0 3.941-3.923 3.932 3.932 0 0 0-3.941-3.923c-2.176 0-3.941 1.756-3.941 3.923 0 2.166 1.765 3.923 3.941 3.923z" fill="#fff" opacity=".29"/>
    <path d="m133.802 67.063.367-.567c.227.2.515.319.818.336.324 0 .467-.135.467-.394 0-.588-1.513-.577-1.513-1.606 0-.662.461-1.084 1.187-1.084a1.425 1.425 0 0 1 1.091.484l-.421.48a.887.887 0 0 0-.624-.288c-.276 0-.425.111-.425.368 0 .544 1.513.496 1.513 1.588 0 .655-.436 1.13-1.275 1.13a1.908 1.908 0 0 1-1.185-.447zm1.008-3.874h.559v.822h-.559v-.822zm0 3.977h.559v.901h-.559v-.901z" fill="#fff"/>
    <path d="M71.562 17.088 0 39.779l28.396 88.734 71.562-22.689-28.396-88.734z" fill="#AAC0EB"/>
    <path d="M24.239 96.969a.31.31 0 0 1-.297-.216l-8.409-26.278a.308.308 0 0 1 .203-.39l60.6-19.213a.313.313 0 0 1 .391.201l8.408 26.279a.309.309 0 0 1-.202.389l-60.6 19.213a.308.308 0 0 1-.094.015zm-8.018-26.387 8.22 25.687 60.006-19.025-8.221-25.687-60.005 19.025zM26.076 102.708a.315.315 0 0 1-.309-.263.309.309 0 0 1 .214-.344l60.6-19.212a.313.313 0 0 1 .391.201.309.309 0 0 1-.202.39l-60.6 19.212a.337.337 0 0 1-.094.016zM27.615 107.517a.313.313 0 0 1-.308-.263.314.314 0 0 1 .213-.343l60.6-19.213a.314.314 0 0 1 .397.2.308.308 0 0 1-.1.334.313.313 0 0 1-.108.057l-60.6 19.213a.304.304 0 0 1-.094.015zM29.153 112.323a.312.312 0 0 1-.307-.262.31.31 0 0 1 .212-.343l60.6-19.214a.313.313 0 0 1 .391.202.309.309 0 0 1-.202.39l-60.599 19.212a.306.306 0 0 1-.095.015zM30.693 117.137a.312.312 0 0 1-.308-.262.31.31 0 0 1 .213-.344l60.6-19.213a.313.313 0 0 1 .405.322.31.31 0 0 1-.216.27l-60.6 19.212a.304.304 0 0 1-.094.015zM14.222 65.664a.313.313 0 0 1-.308-.263.308.308 0 0 1 .213-.343l60.6-19.213a.313.313 0 0 1 .39.202.308.308 0 0 1-.202.39L14.316 65.65a.316.316 0 0 1-.095.014zM32.27 53.846a.313.313 0 0 1-.307-.262.31.31 0 0 1 .213-.343l40.78-12.93a.313.313 0 0 1 .387.203.309.309 0 0 1-.199.389L32.365 53.832a.323.323 0 0 1-.094.014zM68.945 27.775 28.167 40.71l.605 1.89L69.55 29.668l-.605-1.892zM30.37 47.904a.312.312 0 0 1-.308-.263.31.31 0 0 1 .213-.343l40.78-12.93a.313.313 0 0 1 .404.322.308.308 0 0 1-.216.27L30.465 47.888a.313.313 0 0 1-.095.016z" fill="#fff" opacity=".61"/>
    <path d="M36.668 84.748a.311.311 0 0 1-.108.015l-11.485-.48a.313.313 0 0 1-.215-.1.31.31 0 0 1 .242-.52l11.289.472 7.07-13.204a.311.311 0 0 1 .39-.142l9.63 3.79 6.341-6.625a.311.311 0 0 1 .294-.088l10.981 2.48 3.356-9.205a.31.31 0 0 1 .399-.186.31.31 0 0 1 .186.397l-3.449 9.462a.309.309 0 0 1-.361.196L60.15 68.508l-6.363 6.65a.312.312 0 0 1-.34.075l-9.569-3.766-7.03 13.132a.311.311 0 0 1-.181.15z" fill="#52595B"/>
    <path d="M18.408 59.338c4.617 0 8.36-3.726 8.36-8.322 0-4.596-3.742-8.322-8.36-8.322-4.618 0-8.361 3.726-8.361 8.322 0 4.596 3.743 8.322 8.36 8.322z" fill="#F3F5FD"/>
    <path d="m22.462 43.737-4.052 7.279-2.538-7.93a8.367 8.367 0 0 1 6.59.651z" fill="#4CAF50"/>
    <path d="M26.376 48.49a8.23 8.23 0 0 1 .183 4.389l-8.15-1.863 3.842-7.392a8.3 8.3 0 0 1 4.125 4.866z" fill="#52595B"/>
    <path d="M26.85 89.803a.333.333 0 0 1-.329-.29.33.33 0 0 1 .019-.157l6.131-16.248a.33.33 0 0 1 .305-.215c.044 0 .088.007.13.024l13.026 5.163 5.6-7.177a.332.332 0 0 1 .34-.12l11.51 2.689 9.779-15.848a.331.331 0 0 1 .46-.113.332.332 0 0 1 .153.337.33.33 0 0 1-.047.122l-9.903 16.052a.332.332 0 0 1-.36.149l-11.537-2.695-5.624 7.207a.333.333 0 0 1-.385.104l-12.945-5.13-6.012 15.932a.331.331 0 0 1-.311.214z" fill="#fff"/>
    <path d="M125.975 15.441H47.997v99.438h77.978V15.441z" fill="#DEE8F5"/>
    <path d="M68.631 21.765h-14.49v12.913h14.49V21.765z" fill="#fff"/>
    <path d="M119.833 53.545H106.88v30.957h12.953V53.545z" fill="#7897C9"/>
    <path d="M106.881 80.321H54.143v3.947h52.738v-3.947z" fill="#AAC0EB"/>
    <path d="M119.833 51.682H54.14v3.727h65.693v-3.727z" fill="#fff"/>
    <path d="M120.144 84.813H53.828V51.682h.623v32.51h65.07v-32.51h.623v33.13z" fill="#fff"/>
    <path d="M66.522 53.545h-.624v30.957h.624V53.545z" fill="#fff"/>
    <path d="M119.833 59.047h-65.69v.62h65.69v-.62zM119.833 63.238h-65.69v.62h65.69v-.62zM119.833 67.432h-65.69v.62h65.69v-.62zM119.833 71.627h-65.69v.62h65.69v-.62zM119.833 75.819h-65.69v.62h65.69v-.62zM119.833 80.01h-65.69v.62h65.69v-.62z" fill="#fff"/>
    <path d="M93.89 53.545h-.623v30.957h.623V53.545zM107.191 53.545h-.623v30.957h.623V53.545zM119.833 101.647h-19.91v7.084h19.91v-7.084zM119.833 90.557H54.14v.62h65.693v-.62zM119.833 95.95H54.14v.621h65.693v-.62zM119.833 28.978H74.47v.62h45.363v-.62zM97.669 34.367H74.47v.62H97.67v-.62zM119.833 40.347H54.14v.62h65.693v-.62zM119.833 45.736H54.14v.62h65.693v-.62zM119.833 21.987H74.47v2.541h45.363v-2.541z" fill="#fff"/>
    <path d="m158.095 86.236-31.035-9.403a2.934 2.934 0 0 0-3.658 1.942l-11.24 36.759a2.915 2.915 0 0 0 1.95 3.641l31.035 9.403a2.934 2.934 0 0 0 3.658-1.942l11.241-36.759a2.916 2.916 0 0 0-1.951-3.641z" fill="#52595B"/>
    <path d="m155.457 88.687-27.58-8.356a1.7 1.7 0 0 0-2.12 1.126l-1.263 4.128a1.69 1.69 0 0 0 1.131 2.11l27.58 8.356a1.7 1.7 0 0 0 2.12-1.125l1.262-4.129a1.69 1.69 0 0 0-1.13-2.11z" fill="#fff"/>
    <path d="m130.598 92.141-6.201-1.879a1.276 1.276 0 0 0-1.591.845l-1.446 4.727c-.205.67.175 1.38.849 1.584l6.201 1.879a1.276 1.276 0 0 0 1.591-.845l1.445-4.727a1.267 1.267 0 0 0-.848-1.584z" fill="#DB5858"/>
    <path opacity=".16" d="m141.693 95.503-6.201-1.879a1.276 1.276 0 0 0-1.591.845l-1.445 4.727c-.205.67.175 1.38.848 1.584l6.201 1.879a1.277 1.277 0 0 0 1.591-.845l1.446-4.727a1.268 1.268 0 0 0-.849-1.584zM152.787 98.863l-6.201-1.879a1.276 1.276 0 0 0-1.591.845l-1.445 4.727c-.205.671.175 1.38.848 1.584l6.201 1.879a1.277 1.277 0 0 0 1.591-.845l1.446-4.727a1.269 1.269 0 0 0-.849-1.584zM127.665 101.734l-6.201-1.879a1.276 1.276 0 0 0-1.591.845l-1.446 4.727c-.205.671.175 1.38.849 1.584l6.201 1.878a1.276 1.276 0 0 0 1.591-.844l1.445-4.727a1.269 1.269 0 0 0-.848-1.584zM138.759 105.094l-6.2-1.879a1.277 1.277 0 0 0-1.592.845l-1.445 4.727c-.205.67.175 1.38.848 1.584l6.201 1.878a1.276 1.276 0 0 0 1.591-.844l1.446-4.727a1.268 1.268 0 0 0-.849-1.584zM124.732 111.324l-6.201-1.878a1.276 1.276 0 0 0-1.591.845l-1.446 4.727c-.205.67.175 1.379.849 1.583l6.201 1.879a1.276 1.276 0 0 0 1.591-.845l1.445-4.727a1.268 1.268 0 0 0-.848-1.584zM135.827 114.684l-6.2-1.878a1.277 1.277 0 0 0-1.592.844l-1.445 4.727c-.205.671.175 1.38.849 1.584l6.2 1.879a1.276 1.276 0 0 0 1.591-.845l1.446-4.727a1.269 1.269 0 0 0-.849-1.584z" fill="#52595B"/>
    <path d="M143.654 106.577a1.28 1.28 0 0 0-1.592.845l-2.561 8.377-.539 1.762-1.278 4.179c-.049.159-.065.327-.049.493a1.256 1.256 0 0 0 .459.857c.129.106.278.185.439.234l6.2 1.878c.161.049.329.066.496.049a1.27 1.27 0 0 0 1.096-.893l1.278-4.18.539-1.762 2.561-8.376a1.272 1.272 0 0 0-.849-1.584l-6.2-1.879z" fill="#4CAF50"/>
</svg>
