<svg width="288" height="99" viewBox="0 0 288 99" fill="none" xmlns="http://www.w3.org/2000/svg">
    <path d="M0 4a4 4 0 0 1 4-4h280a4 4 0 0 1 4 4v95H0V4z" fill="#0D47A1"/>
    <path fill-rule="evenodd" clip-rule="evenodd" d="M61.163 45.75h.337a27 27 0 0 0 53.872 2.625 28.625 28.625 0 0 1-.081-2.156h.205c.003-.157.004-.313.004-.47h.045c.005-.46.02-.921.047-1.38a27.559 27.559 0 0 0-.07-.862l.134-.013a28.725 28.725 0 0 1 8.204-17.7 28.278 28.278 0 0 1 20.077-8.385 28.279 28.279 0 0 1 20.078 8.384 28.744 28.744 0 0 1 8.315 19.957h.17c0 .156.001.312.004.469h.142c0 .592-.018 1.183-.055 1.772a27.422 27.422 0 0 0 1.93 8.1 27.041 27.041 0 0 0 5.75 8.76 26.468 26.468 0 0 0 8.597 5.847A26.073 26.073 0 0 0 199 72.75c3.476 0 6.919-.697 10.132-2.052a26.468 26.468 0 0 0 8.597-5.847 27.041 27.041 0 0 0 5.75-8.76A27.44 27.44 0 0 0 225.5 45.75h.75c0-.91-.044-1.817-.131-2.719l.249-.024.497-.048.249-.024c.091.934.136 1.873.136 2.815H227c0 3.743-.724 7.449-2.131 10.906a28.556 28.556 0 0 1-6.07 9.246 27.972 27.972 0 0 1-9.084 6.178A27.572 27.572 0 0 1 199 74.25c-3.677 0-7.318-.737-10.715-2.17a27.972 27.972 0 0 1-9.084-6.178 28.556 28.556 0 0 1-6.07-9.246 28.908 28.908 0 0 1-1.51-4.937l-.261-.052-.246-.049c.091-.453.17-.91.237-1.368a29.105 29.105 0 0 1-.35-4.216h-.17l-.002-.284h-.079c0-.454.011-.907.032-1.36a27.235 27.235 0 0 0-7.832-17.54 26.78 26.78 0 0 0-19.013-7.94 26.78 26.78 0 0 0-19.012 7.94 27.242 27.242 0 0 0-7.881 19.184h-.045a28.463 28.463 0 0 1-.386 4.396c.061.398.131.794.21 1.188l-.245.049-.208.041A28.5 28.5 0 0 1 99.406 72.08 28.5 28.5 0 0 1 60 45.75h.163c.013-.783.057-1.563.132-2.34l.249.024.498.048.248.025a28.093 28.093 0 0 0-.127 2.243zm1.146-10.505c-.355.87-.667 1.755-.935 2.653l.24.071.479.143.24.072a27.945 27.945 0 0 1 2.043-5.012l-.221-.116-.443-.233-.22-.117a28.888 28.888 0 0 0-1.183 2.54zm6.122-9.303a28.543 28.543 0 0 0-1.865 2.09l.194.157.39.314.194.157a27.54 27.54 0 0 1 3.777-3.836l-.16-.192-.32-.384-.16-.192a28.41 28.41 0 0 0-2.05 1.886zm9.164-6.218c-.857.361-1.695.764-2.51 1.207l.118.22.239.439.12.22a27.042 27.042 0 0 1 4.935-2.077l-.073-.24-.148-.477-.073-.239a27.97 27.97 0 0 0-2.608.947zm10.811-2.183c-.927 0-1.852.046-2.771.138l.025.25.05.497.025.248a26.824 26.824 0 0 1 5.343 0l.024-.248.05-.498.025-.249a27.825 27.825 0 0 0-2.771-.138zm10.81 2.183a27.97 27.97 0 0 0-2.607-.947l-.073.239-.147.478-.074.239a26.933 26.933 0 0 1 4.936 2.076l.119-.22.239-.439.119-.22a28.196 28.196 0 0 0-2.511-1.206zm9.165 6.218a28.663 28.663 0 0 0-2.049-1.886l-.16.192-.321.384-.16.192a27.359 27.359 0 0 1 3.777 3.837l.195-.158.389-.314.194-.157a28.496 28.496 0 0 0-1.865-2.09zm6.122 9.303a28.657 28.657 0 0 0-1.182-2.538l-.221.116-.443.233-.221.116a27.89 27.89 0 0 1 2.044 5.012l.239-.072.479-.143.24-.071a28.892 28.892 0 0 0-.935-2.653zm5.621 26.906a28.667 28.667 0 0 0 7.912 7.912l.139-.208.278-.415.139-.208a27.65 27.65 0 0 1-7.637-7.636l-.207.138-.416.278-.208.14zm18.25 12.194a28.674 28.674 0 0 0 11.189 0l-.048-.245-.098-.49-.049-.245a27.672 27.672 0 0 1-10.799 0l-.049.245-.097.49-.049.245zm21.527-4.282a28.654 28.654 0 0 0 7.912-7.912l-.208-.139-.415-.278-.208-.139a27.703 27.703 0 0 1-7.637 7.637l.139.208.278.415.139.208zm12.064-32.654a29.008 29.008 0 0 1 2.117-5.204l.221.116.443.232.221.117a27.818 27.818 0 0 0-2.043 5.024l-.24-.071-.479-.143-.24-.071zm5.192-9.89a28.307 28.307 0 0 1 3.914-3.987l.161.192.32.383.161.192a27.651 27.651 0 0 0-3.778 3.847l-.194-.157-.39-.314-.194-.157zm8.519-7.12a27.91 27.91 0 0 1 5.119-2.16l.074.24.147.477.074.239a27.06 27.06 0 0 0-4.936 2.082l-.12-.22-.239-.439-.119-.22zm10.552-3.26a27.796 27.796 0 0 1 5.544 0l-.025.248-.05.498-.025.249a26.767 26.767 0 0 0-5.344 0l-.025-.249-.05-.498-.025-.248zm10.977 1.1a27.933 27.933 0 0 1 5.119 2.16l-.119.22-.239.439-.12.22a27.09 27.09 0 0 0-4.936-2.083l.074-.24.147-.477.074-.239zm9.724 5.293a28.473 28.473 0 0 1 3.914 3.986l-.194.157-.39.314-.194.157a27.651 27.651 0 0 0-3.778-3.847l.161-.192.32-.383.161-.192zm6.989 8.673a29.008 29.008 0 0 1 2.117 5.204l-.24.071-.479.143-.24.071a27.818 27.818 0 0 0-2.043-5.025l.221-.116.443-.232.221-.116zm-132.063.11c.289-.286.534-.615.726-.977a2 2 0 0 1 1.694 1.977v21.547a2 2 0 0 1-2 2h-9.544a2 2 0 0 1-2-2V33.314a2 2 0 0 1 1.694-1.976c.192.362.437.691.726.977a3.987 3.987 0 0 0 2.812 1.155h3.08c1.096 0 2.09-.441 2.812-1.155zm-13.124 1a4.001 4.001 0 0 1 3.232-3.927v-.074H93.043v.074a4.002 4.002 0 0 1 3.232 3.927v21.547a4 4 0 0 1-4 4h-9.544a4 4 0 0 1-4-4V33.314zm8.772 22.778a.923.923 0 1 0 0-1.847.923.923 0 0 0 0 1.847zm108.277-21.87c-.57-.19-1.059-.253-1.445-.19-1.257.206-2.065.684-2.619 1.337-.572.673-.952 1.626-1.167 2.911-.042.252.001.7.223 1.384.215.66.564 1.438 1.021 2.302.912 1.726 2.2 3.695 3.528 5.568a118.154 118.154 0 0 0 4.605 6.047 400 400 0 0 1 .786-.965l.004-.006.01-.011.006-.008.003-.003c1.402-1.718 3.11-3.81 4.66-6.012 1.096-1.557 2.084-3.13 2.796-4.607.72-1.493 1.115-2.803 1.12-3.857.009-2.245-1.918-3.892-4.374-4.069-.322-.023-.745.06-1.25.263a8.655 8.655 0 0 0-1.468.787 14.228 14.228 0 0 0-1.551 1.176l-.032.028-.02.018-.004.003-.001.001-.66.605-.674-.591v-.001l-.005-.004-.023-.02-.031-.027-.067-.055a14.452 14.452 0 0 0-1.701-1.205c-.531-.319-1.107-.61-1.67-.798zm4.143.065a16.388 16.388 0 0 0-1.443-.98c-.606-.364-1.319-.731-2.065-.98-.737-.248-1.576-.403-2.403-.268-1.644.269-2.91.943-3.821 2.015-.893 1.052-1.368 2.397-1.614 3.877-.122.728.038 1.547.293 2.332.264.809.669 1.699 1.154 2.617.972 1.84 2.318 3.89 3.665 5.79a120.587 120.587 0 0 0 3.751 4.987 119.365 119.365 0 0 0 1.604 1.983l.094.112.024.03.007.008.001.002h.001l.766-.642-.766.642.793.945.76-.97c.41-.524.923-1.152 1.499-1.858l.001-.002h.001c1.415-1.735 3.212-3.937 4.805-6.2 1.129-1.602 2.185-3.275 2.963-4.89.77-1.598 1.311-3.226 1.318-4.717.015-3.616-3.076-5.845-6.231-6.072-.745-.053-1.489.142-2.136.4-.657.264-1.284.622-1.818.97-.472.308-.887.619-1.203.87zm-60.344 4.26a1.693 1.693 0 1 1-3.387.001 1.693 1.693 0 0 1 3.387 0zm2 0a3.693 3.693 0 1 1-7.386.002 3.693 3.693 0 0 1 7.386-.001zm-9.394 14.891-.994.115-.993.115v-.004l-.001-.009-.003-.027-.004-.034-.006-.063a14.647 14.647 0 0 1-.05-1.544c.015-.982.121-2.315.498-3.666.376-1.347 1.04-2.776 2.214-3.873 1.196-1.119 2.846-1.821 5.04-1.821 2.159 0 3.801.68 5.01 1.76 1.175-1.069 2.798-1.76 4.975-1.76 2.194 0 3.854.702 5.069 1.813 1.193 1.092 1.888 2.515 2.294 3.86.408 1.35.545 2.682.583 3.663a15.488 15.488 0 0 1-.014 1.545l-.007.097-.003.027v.009l-.001.003c0 .001 0 .002-.995-.09l-.996-.093v-.001l.001-.015.002-.03.003-.04a11.809 11.809 0 0 0 .012-1.334c-.034-.88-.157-2.029-.499-3.162-.343-1.135-.89-2.194-1.73-2.963-.82-.75-1.988-1.289-3.719-1.289-1.715 0-2.875.529-3.687 1.294a9.68 9.68 0 0 1 1.065 2.38c.408 1.349.545 2.68.583 3.663.019.494.013.907.003 1.2-.006.146-.012.262-.018.344l-.007.097-.002.027-.001.009v.003c0 .001 0 .002-.996-.09l-.996-.093v-.001l.002-.015.005-.07a14.158 14.158 0 0 0 .011-1.334c-.034-.88-.156-2.029-.499-3.162-.343-1.135-.889-2.194-1.73-2.963-.82-.75-1.987-1.289-3.718-1.289-1.731 0-2.88.539-3.674 1.282-.817.763-1.337 1.816-1.653 2.95-.316 1.13-.412 2.28-.425 3.159-.007.436.006.799.021 1.049.008.125.016.222.021.285l.004.038.003.032.002.015v.001zm15.685-13.197a1.694 1.694 0 1 0 0-3.388 1.694 1.694 0 0 0 0 3.388zm0 2a3.694 3.694 0 1 0 0-7.387 3.694 3.694 0 0 0 0 7.387z" fill="#fff"/>
</svg>
