<svg width="172" height="157" viewBox="0 0 172 157" fill="none" xmlns="http://www.w3.org/2000/svg">
    <path d="M87.156 156.087a.155.155 0 0 1-.156-.155.155.155 0 0 1 .156-.154c.62 0 1.25-.008 1.87-.023h.003a.152.152 0 0 1 .11.044.154.154 0 0 1 .003.218.16.16 0 0 1-.11.047c-.621.015-1.252.023-1.876.023zm-1.872-.022h-.004a83.095 83.095 0 0 1-1.875-.068.151.151 0 0 1-.06-.015.153.153 0 0 1-.075-.206.15.15 0 0 1 .088-.079c.021-.007.041-.01.062-.008.618.029 1.246.052 1.867.067a.155.155 0 1 1-.003.309zm5.616-.07a.158.158 0 0 1-.11-.043.153.153 0 0 1-.006-.218.155.155 0 0 1 .108-.048 77.909 77.909 0 0 0 1.866-.115c.021-.002.042 0 .062.006.02.007.038.017.053.03a.152.152 0 0 1 .017.22.154.154 0 0 1-.108.052c-.622.046-1.252.085-1.873.115l-.009.001zm-9.357-.111h-.011a74.093 74.093 0 0 1-1.87-.16.15.15 0 0 1-.058-.018.142.142 0 0 1-.046-.038.154.154 0 0 1 .022-.217.157.157 0 0 1 .053-.029c.02-.005.04-.007.06-.005.62.06 1.245.113 1.862.159a.154.154 0 0 1 .1.267.159.159 0 0 1-.11.042l-.002-.001zm13.092-.165a.155.155 0 1 1-.015-.309 77.71 77.71 0 0 0 1.857-.206.16.16 0 0 1 .061.003.156.156 0 0 1 .096.072.154.154 0 0 1-.119.231c-.618.078-1.246.147-1.865.208l-.015.001zm-16.818-.201-.019-.001a72.595 72.595 0 0 1-1.86-.252.155.155 0 0 1-.13-.176.156.156 0 0 1 .062-.101.158.158 0 0 1 .115-.028c.614.091 1.237.175 1.852.251a.154.154 0 0 1-.019.307zm20.534-.259a.156.156 0 0 1-.121-.251.154.154 0 0 1 .099-.056 80.298 80.298 0 0 0 1.844-.298.157.157 0 0 1 .116.025.16.16 0 0 1 .064.1.151.151 0 0 1-.07.157.16.16 0 0 1-.056.022c-.613.107-1.236.207-1.852.299l-.024.003v-.001zm-24.238-.289a.238.238 0 0 1-.026-.002 83.373 83.373 0 0 1-1.845-.344.15.15 0 0 1-.108-.063.156.156 0 0 1-.026-.121.155.155 0 0 1 .194-.118c.609.121 1.227.236 1.837.342a.155.155 0 0 1 .128.166.157.157 0 0 1-.155.141l.001-.001zm27.927-.354a.156.156 0 0 1-.156-.139.156.156 0 0 1 .125-.167c.61-.122 1.225-.253 1.827-.389a.157.157 0 0 1 .119.018.161.161 0 0 1 .07.097.157.157 0 0 1-.12.186 76.395 76.395 0 0 1-1.866.395l.001-.001zm-31.6-.377a.2.2 0 0 1-.034-.004 77.427 77.427 0 0 1-1.824-.435.165.165 0 0 1-.057-.025.156.156 0 0 1-.06-.164.148.148 0 0 1 .027-.055.151.151 0 0 1 .105-.06.16.16 0 0 1 .061.004c.602.152 1.213.297 1.817.434a.153.153 0 0 1 .12.167.153.153 0 0 1-.05.098.153.153 0 0 1-.104.04zm35.251-.448a.155.155 0 0 1-.128-.242.152.152 0 0 1 .09-.062c.6-.152 1.207-.314 1.805-.48a.157.157 0 0 1 .167.051.155.155 0 0 1-.083.246c-.6.168-1.21.33-1.813.482a.158.158 0 0 1-.038.005zm-38.88-.466a.15.15 0 0 1-.042-.006c-.6-.167-1.206-.344-1.8-.525a.157.157 0 0 1-.093-.076.152.152 0 0 1-.01-.117.157.157 0 0 1 .075-.092.157.157 0 0 1 .118-.011c.593.181 1.196.357 1.794.524a.156.156 0 0 1 .112.17.151.151 0 0 1-.052.095.154.154 0 0 1-.102.038zm42.485-.541a.155.155 0 0 1-.154-.132.156.156 0 0 1 .109-.17 75.127 75.127 0 0 0 1.778-.57.155.155 0 0 1 .06-.007.133.133 0 0 1 .059.016.148.148 0 0 1 .078.089.15.15 0 0 1-.008.118.172.172 0 0 1-.037.048.162.162 0 0 1-.053.03c-.588.196-1.189.389-1.786.571a.143.143 0 0 1-.046.007zm-46.072-.556a.165.165 0 0 1-.049-.008 76.874 76.874 0 0 1-1.778-.618.156.156 0 0 1-.087-.08.153.153 0 0 1-.006-.118.157.157 0 0 1 .08-.088.158.158 0 0 1 .12-.005c.584.211 1.18.418 1.77.615a.151.151 0 0 1 .084.067c.019.031.026.068.02.104a.156.156 0 0 1-.154.13v.001zm49.622-.63a.155.155 0 0 1-.053-.3 79.364 79.364 0 0 0 1.747-.657.157.157 0 0 1 .171.035.152.152 0 0 1-.057.252c-.579.226-1.169.448-1.755.66a.162.162 0 0 1-.053.011v-.001zm-53.153-.646a.158.158 0 0 1-.056-.011 73.33 73.33 0 0 1-1.743-.705.17.17 0 0 1-.052-.033.152.152 0 0 1-.035-.171.163.163 0 0 1 .035-.051.17.17 0 0 1 .052-.033.14.14 0 0 1 .06-.01c.021 0 .042.005.06.013.575.241 1.159.477 1.736.702a.159.159 0 0 1 .08.07.153.153 0 0 1-.037.193.156.156 0 0 1-.1.036zm56.632-.713a.153.153 0 0 1-.098-.035.15.15 0 0 1-.054-.089.156.156 0 0 1 .092-.173 72.494 72.494 0 0 0 1.706-.741.156.156 0 0 1 .208.195.153.153 0 0 1-.08.086c-.563.254-1.14.504-1.713.745a.159.159 0 0 1-.061.013v-.001zm-60.092-.737a.156.156 0 0 1-.063-.014 80.32 80.32 0 0 1-1.705-.791.155.155 0 0 1-.068-.204.157.157 0 0 1 .087-.078.161.161 0 0 1 .116.004c.56.268 1.131.533 1.697.788a.153.153 0 0 1 .034.261.157.157 0 0 1-.098.034zm63.494-.79a.157.157 0 0 1-.097-.034.157.157 0 0 1-.043-.188.157.157 0 0 1 .072-.072 76.02 76.02 0 0 0 1.669-.825.156.156 0 0 1 .209.067.153.153 0 0 1-.067.208c-.552.281-1.116.56-1.675.828a.159.159 0 0 1-.068.017v-.001zm-66.875-.831a.146.146 0 0 1-.07-.017 72.704 72.704 0 0 1-1.662-.874.157.157 0 0 1-.08-.152.155.155 0 0 1 .171-.137c.02.002.04.008.057.018a74.45 74.45 0 0 0 1.655.87.156.156 0 0 1 .08.174.151.151 0 0 1-.055.085.153.153 0 0 1-.096.033zm70.197-.865a.155.155 0 0 1-.151-.116.157.157 0 0 1 .077-.174c.544-.294 1.09-.6 1.625-.907a.157.157 0 0 1 .212.057.154.154 0 0 1-.056.21c-.538.309-1.087.616-1.633.912a.17.17 0 0 1-.073.02l-.001-.002zm-73.49-.92a.162.162 0 0 1-.078-.021c-.54-.31-1.083-.632-1.615-.956a.153.153 0 0 1 .044-.283.158.158 0 0 1 .119.02c.53.322 1.07.643 1.608.951a.153.153 0 0 1 .072.174.157.157 0 0 1-.15.115zm76.725-.938a.153.153 0 0 1-.094-.032.155.155 0 0 1-.056-.081.157.157 0 0 1 .069-.174 70.35 70.35 0 0 0 1.579-.987.156.156 0 0 1 .237.163.159.159 0 0 1-.068.098c-.522.335-1.055.669-1.586.991a.161.161 0 0 1-.08.023l-.001-.001zm-79.924-1.009a.15.15 0 0 1-.084-.025 73.272 73.272 0 0 1-1.564-1.033.155.155 0 0 1-.041-.215.155.155 0 0 1 .216-.04c.513.348 1.038.695 1.558 1.029a.155.155 0 0 1 .065.174.155.155 0 0 1-.15.11zm83.064-1.008a.154.154 0 0 1-.088-.282 74.262 74.262 0 0 0 1.528-1.064.162.162 0 0 1 .115-.026c.04.007.076.03.1.062a.154.154 0 0 1-.033.214c-.505.361-1.021.72-1.535 1.069a.15.15 0 0 1-.087.028v-.001zm-86.16-1.093a.155.155 0 0 1-.09-.029 74.984 74.984 0 0 1-1.51-1.11.151.151 0 0 1-.031-.217.149.149 0 0 1 .104-.06.157.157 0 0 1 .115.031c.493.372 1 .744 1.504 1.105a.153.153 0 0 1 0 .25.151.151 0 0 1-.091.03zm89.196-1.077a.15.15 0 0 1-.091-.028.154.154 0 0 1-.003-.25c.494-.372.99-.755 1.474-1.138a.155.155 0 0 1 .172-.015.16.16 0 0 1 .047.039.152.152 0 0 1 .027.054c.006.019.008.04.006.06a.167.167 0 0 1-.019.057.145.145 0 0 1-.039.046c-.486.386-.984.77-1.48 1.143a.153.153 0 0 1-.094.032zm-92.18-1.174a.155.155 0 0 1-.097-.033 79.028 79.028 0 0 1-1.452-1.183.152.152 0 0 1-.016-.215.157.157 0 0 1 .216-.021c.475.397.962.793 1.446 1.177a.155.155 0 0 1-.097.275zm95.105-1.144a.157.157 0 0 1-.146-.102.155.155 0 0 1 .046-.171c.473-.394.949-.801 1.415-1.21a.154.154 0 0 1 .113-.038.15.15 0 0 1 .106.052c.028.03.042.071.039.111a.157.157 0 0 1-.052.107c-.469.41-.947.818-1.422 1.215a.156.156 0 0 1-.099.036zm-97.973-1.25a.156.156 0 0 1-.102-.039c-.467-.41-.936-.831-1.392-1.251a.16.16 0 0 1-.05-.108.153.153 0 0 1 .042-.111.147.147 0 0 1 .05-.035.154.154 0 0 1 .119-.004c.019.007.036.018.051.031.454.419.92.839 1.386 1.247a.154.154 0 0 1-.104.27zm100.78-1.21a.16.16 0 0 1-.087-.027.152.152 0 0 1-.064-.162.155.155 0 0 1 .046-.079c.455-.42.911-.85 1.354-1.279a.156.156 0 0 1 .264.113c0 .041-.017.08-.047.108-.444.431-.902.863-1.359 1.285a.157.157 0 0 1-.107.041zm-103.523-1.322a.157.157 0 0 1-.11-.044 75.652 75.652 0 0 1-1.326-1.319.154.154 0 0 1 .003-.219.161.161 0 0 1 .11-.044.16.16 0 0 1 .11.047c.433.441.878.883 1.322 1.313a.152.152 0 0 1 .035.169.157.157 0 0 1-.144.096v.001zm106.206-1.274a.156.156 0 0 1-.144-.095.15.15 0 0 1-.009-.089.151.151 0 0 1 .041-.079c.435-.442.868-.894 1.29-1.344a.153.153 0 0 1 .108-.049.155.155 0 0 1 .119.26 74.61 74.61 0 0 1-1.294 1.349.154.154 0 0 1-.113.047h.002zm-108.82-1.39a.148.148 0 0 1-.062-.013.154.154 0 0 1-.052-.036 73.903 73.903 0 0 1-1.259-1.382.155.155 0 1 1 .233-.204c.41.461.832.924 1.254 1.376a.152.152 0 0 1 .028.167.154.154 0 0 1-.142.092zm111.369-1.336a.161.161 0 0 1-.142-.091.161.161 0 0 1-.012-.087.158.158 0 0 1 .038-.079 77.26 77.26 0 0 0 1.221-1.406.153.153 0 0 1 .105-.055.158.158 0 0 1 .114.036.157.157 0 0 1 .055.105.156.156 0 0 1-.036.112c-.401.474-.813.949-1.226 1.413a.158.158 0 0 1-.119.053l.002-.001zm-113.846-1.452a.165.165 0 0 1-.066-.014.167.167 0 0 1-.053-.041c-.4-.474-.8-.958-1.188-1.441a.154.154 0 0 1 .139-.25.158.158 0 0 1 .104.057c.386.481.784.964 1.183 1.435a.156.156 0 0 1 .021.165.155.155 0 0 1-.14.089zm116.258-1.398a.162.162 0 0 1-.083-.023.16.16 0 0 1-.057-.064.145.145 0 0 1-.014-.084.143.143 0 0 1 .033-.079c.388-.483.774-.976 1.149-1.466a.156.156 0 0 1 .103-.062.168.168 0 0 1 .117.03.16.16 0 0 1 .06.104.158.158 0 0 1-.032.115c-.377.492-.765.987-1.155 1.472a.152.152 0 0 1-.054.043.166.166 0 0 1-.069.016l.002-.002zm-118.594-1.506a.167.167 0 0 1-.07-.016.162.162 0 0 1-.055-.046 74.55 74.55 0 0 1-1.114-1.497.158.158 0 0 1-.027-.115.163.163 0 0 1 .021-.057.16.16 0 0 1 .097-.069.176.176 0 0 1 .06-.002c.02.003.04.01.057.021a.169.169 0 0 1 .045.041c.36.498.734 1 1.11 1.492a.153.153 0 0 1-.044.224.157.157 0 0 1-.081.023v.001zm120.859-1.458a.161.161 0 0 1-.081-.022.156.156 0 0 1-.074-.144.156.156 0 0 1 .029-.079 72.62 72.62 0 0 0 1.075-1.52.14.14 0 0 1 .043-.044.162.162 0 0 1 .176 0 .18.18 0 0 1 .043.044.157.157 0 0 1-.005.174 76.053 76.053 0 0 1-1.08 1.527.147.147 0 0 1-.055.047.146.146 0 0 1-.071.017zM25.056 123.5a.157.157 0 0 1-.128-.068c-.35-.51-.7-1.031-1.038-1.55a.153.153 0 0 1 .046-.213.156.156 0 0 1 .215.045c.337.517.684 1.037 1.034 1.544a.152.152 0 0 1 .009.159.15.15 0 0 1-.057.06.153.153 0 0 1-.08.023zm125.161-1.517a.157.157 0 0 1-.155-.161.156.156 0 0 1 .025-.078c.337-.517.673-1.046.998-1.572a.153.153 0 0 1 .095-.062.16.16 0 0 1 .113.019.156.156 0 0 1 .056.204c-.327.528-.663 1.06-1.002 1.579a.147.147 0 0 1-.056.052.16.16 0 0 1-.074.019zm-127.192-1.602a.155.155 0 0 1-.076-.019.156.156 0 0 1-.057-.055 74.562 74.562 0 0 1-.958-1.598.154.154 0 0 1 .175-.226c.04.011.073.036.094.071.31.531.63 1.066.954 1.592a.15.15 0 0 1 .019.116.15.15 0 0 1-.07.096.154.154 0 0 1-.081.023zm129.152-1.575a.159.159 0 0 1-.134-.078.149.149 0 0 1-.021-.077c0-.027.007-.054.021-.077.31-.532.619-1.077.917-1.621a.153.153 0 0 1 .093-.074.155.155 0 0 1 .18.222c-.3.546-.61 1.094-.922 1.628a.155.155 0 0 1-.134.077zm-131.024-1.638a.157.157 0 0 1-.08-.021.164.164 0 0 1-.057-.059 77.206 77.206 0 0 1-.876-1.643.152.152 0 0 1 .02-.171.158.158 0 0 1 .219-.018.152.152 0 0 1 .038.047c.283.548.576 1.098.872 1.637a.152.152 0 0 1-.003.152.154.154 0 0 1-.133.076zm132.823-1.633a.165.165 0 0 1-.076-.019.158.158 0 0 1-.057-.055.157.157 0 0 1-.005-.151c.284-.55.565-1.11.835-1.665a.164.164 0 0 1 .089-.083.156.156 0 0 1 .121.006.167.167 0 0 1 .05.037.16.16 0 0 1 .038.115.15.15 0 0 1-.018.059c-.271.558-.553 1.12-.839 1.672a.152.152 0 0 1-.138.084zm-134.53-1.668a.152.152 0 0 1-.083-.024.152.152 0 0 1-.058-.063 77.997 77.997 0 0 1-.793-1.684.157.157 0 0 1-.005-.12.152.152 0 0 1 .032-.051.155.155 0 0 1 .257.044c.255.56.52 1.124.789 1.676a.156.156 0 0 1-.008.15.159.159 0 0 1-.057.053.163.163 0 0 1-.075.019zm136.162-1.691a.16.16 0 0 1-.074-.019.155.155 0 0 1-.081-.124.148.148 0 0 1 .014-.075c.256-.564.509-1.138.75-1.706a.157.157 0 0 1 .256-.051.149.149 0 0 1 .033.052.153.153 0 0 1-.002.119 74.17 74.17 0 0 1-.754 1.713.16.16 0 0 1-.057.067.16.16 0 0 1-.085.025v-.001zm-137.701-1.687a.155.155 0 0 1-.144-.095 73.74 73.74 0 0 1-.706-1.72.153.153 0 0 1 .088-.2.158.158 0 0 1 .119.002.154.154 0 0 1 .082.085c.227.572.464 1.149.704 1.713a.151.151 0 0 1-.014.145.158.158 0 0 1-.13.07zm139.162-1.75a.163.163 0 0 1-.057-.01.161.161 0 0 1-.086-.083.145.145 0 0 1-.012-.059.15.15 0 0 1 .01-.059 75.03 75.03 0 0 0 .664-1.742.156.156 0 0 1 .199-.091.152.152 0 0 1 .093.197 71.297 71.297 0 0 1-.666 1.749.147.147 0 0 1-.057.071.152.152 0 0 1-.088.027zm-140.531-1.707a.157.157 0 0 1-.09-.027.158.158 0 0 1-.056-.074 73.238 73.238 0 0 1-.621-1.76.152.152 0 0 1 .008-.118.155.155 0 0 1 .209-.069c.037.018.065.05.078.089.198.583.406 1.172.619 1.752a.154.154 0 0 1-.147.207zm141.817-1.8a.169.169 0 0 1-.05-.008.16.16 0 0 1-.09-.078.156.156 0 0 1-.008-.118c.198-.585.391-1.182.575-1.774a.156.156 0 0 1 .286-.027.157.157 0 0 1 .011.118 69.813 69.813 0 0 1-.577 1.781.155.155 0 0 1-.147.106zm-143.012-1.726a.155.155 0 0 1-.148-.109 73.861 73.861 0 0 1-.531-1.788.156.156 0 0 1 .015-.117.156.156 0 0 1 .284.033c.168.594.346 1.194.529 1.781a.154.154 0 0 1-.149.2zm144.116-1.836a.16.16 0 0 1-.136-.079.156.156 0 0 1-.014-.118c.167-.59.329-1.193.482-1.793a.153.153 0 0 1 .072-.095.156.156 0 0 1 .213.054.155.155 0 0 1 .017.117c-.154.602-.317 1.209-.485 1.801a.152.152 0 0 1-.055.081.166.166 0 0 1-.094.032zm-145.13-1.746a.156.156 0 0 1-.151-.117 74.44 74.44 0 0 1-.44-1.812.154.154 0 0 1 .117-.183.156.156 0 0 1 .186.115c.138.6.285 1.207.438 1.804a.155.155 0 0 1-.15.193zm146.052-1.861a.157.157 0 0 1-.122-.058.159.159 0 0 1-.03-.062.16.16 0 0 1 0-.07c.138-.602.269-1.213.391-1.815a.155.155 0 0 1 .183-.12.155.155 0 0 1 .099.065c.023.034.031.076.023.116a71.29 71.29 0 0 1-.393 1.823.153.153 0 0 1-.151.121zM13.497 96.297a.156.156 0 0 1-.153-.123 74.264 74.264 0 0 1-.348-1.833.154.154 0 0 1 .126-.182.156.156 0 0 1 .18.129c.108.608.225 1.222.347 1.824a.153.153 0 0 1-.065.16.157.157 0 0 1-.087.025zm147.623-1.882a.164.164 0 0 1-.084-.024.163.163 0 0 1-.044-.041.142.142 0 0 1-.024-.055.153.153 0 0 1-.002-.06 73.57 73.57 0 0 0 .299-1.833.155.155 0 0 1 .279-.069.153.153 0 0 1 .029.115 74.08 74.08 0 0 1-.3 1.84.156.156 0 0 1-.154.127h.001zM12.848 92.633a.156.156 0 0 1-.154-.132 74.807 74.807 0 0 1-.255-1.847.154.154 0 0 1 .135-.168.156.156 0 0 1 .174.13c.076.61.162 1.23.254 1.84a.15.15 0 0 1-.029.114.155.155 0 0 1-.126.063zm148.825-1.897-.02-.001a.156.156 0 0 1-.135-.173c.076-.61.146-1.23.207-1.845a.157.157 0 0 1 .056-.104.157.157 0 0 1 .254.135c-.062.617-.132 1.24-.208 1.853a.154.154 0 0 1-.155.135h.001zM12.383 88.94a.156.156 0 0 1-.154-.14 71.3 71.3 0 0 1-.162-1.856.154.154 0 0 1 .143-.162.156.156 0 0 1 .166.139c.047.616.101 1.238.163 1.85a.153.153 0 0 1-.082.151.159.159 0 0 1-.073.018zm149.658-1.908h-.012a.155.155 0 0 1-.136-.105.152.152 0 0 1-.008-.06c.046-.613.085-1.236.115-1.854a.17.17 0 0 1 .014-.059.162.162 0 0 1 .036-.048.157.157 0 0 1 .172-.025c.018.009.035.02.049.036a.151.151 0 0 1 .04.111 81.4 81.4 0 0 1-.115 1.861.155.155 0 0 1-.05.102.153.153 0 0 1-.106.041h.001zM12.105 85.231a.156.156 0 0 1-.155-.147 74.592 74.592 0 0 1-.07-1.863.154.154 0 0 1 .15-.159.156.156 0 0 1 .16.151c.016.618.04 1.242.07 1.856a.155.155 0 0 1-.147.162h-.008zm150.119-1.914h-.004a.159.159 0 0 1-.109-.047.15.15 0 0 1-.032-.051.152.152 0 0 1-.011-.06c.016-.614.023-1.239.023-1.856v-.107a.155.155 0 0 1 .156-.155c.041 0 .081.017.11.046a.154.154 0 0 1 .045.109v.107c0 .62-.007 1.247-.023 1.864a.153.153 0 0 1-.155.15zM12.011 81.511a.154.154 0 0 1-.155-.155v-.054c0-.6.007-1.21.021-1.81a.147.147 0 0 1 .047-.11.152.152 0 0 1 .112-.04.154.154 0 0 1 .152.158 75.684 75.684 0 0 0-.022 1.803v.053a.154.154 0 0 1-.155.155zm150.21-2.021a.156.156 0 0 1-.156-.15c-.015-.616-.04-1.24-.071-1.856a.156.156 0 0 1 .311-.015c.031.617.055 1.245.071 1.863a.15.15 0 0 1-.042.11.157.157 0 0 1-.109.048h-.004zM12.1 77.79h-.008a.158.158 0 0 1-.108-.05.151.151 0 0 1-.04-.111c.03-.618.069-1.245.114-1.86a.155.155 0 0 1 .226-.128.155.155 0 0 1 .085.15 73.975 73.975 0 0 0-.113 1.853.154.154 0 0 1-.156.148v-.001zm149.932-2.017a.153.153 0 0 1-.106-.04.154.154 0 0 1-.05-.103 78.558 78.558 0 0 0-.163-1.85c-.002-.02 0-.04.006-.06a.156.156 0 0 1 .303.03c.062.618.118 1.243.164 1.857a.153.153 0 0 1-.143.165.03.03 0 0 1-.011.002zM12.373 74.081h-.015a.154.154 0 0 1-.134-.109.154.154 0 0 1-.006-.06c.06-.615.13-1.238.206-1.854a.156.156 0 0 1 .277-.076.153.153 0 0 1 .032.114 75.236 75.236 0 0 0-.206 1.846.154.154 0 0 1-.154.139zm149.285-2.008a.157.157 0 0 1-.103-.039.157.157 0 0 1-.051-.096 74.527 74.527 0 0 0-.256-1.84.153.153 0 0 1 .029-.114.155.155 0 0 1 .217-.033.141.141 0 0 1 .041.044.147.147 0 0 1 .021.057c.093.615.18 1.236.257 1.847.002.02.001.04-.005.06a.14.14 0 0 1-.027.054.148.148 0 0 1-.046.04.15.15 0 0 1-.077.019zM12.832 70.389l-.023-.001a.156.156 0 0 1-.131-.176c.091-.612.192-1.232.299-1.84a.153.153 0 0 1 .119-.125.157.157 0 0 1 .161.062.154.154 0 0 1 .026.115 74.54 74.54 0 0 0-.298 1.833.154.154 0 0 1-.153.131v.001zM161.1 68.394a.156.156 0 0 1-.153-.128 80.57 80.57 0 0 0-.348-1.824.175.175 0 0 1-.001-.06.158.158 0 0 1 .239-.1.16.16 0 0 1 .067.099c.124.608.241 1.225.349 1.831a.153.153 0 0 1-.026.116.152.152 0 0 1-.127.065zm-147.625-1.67a.155.155 0 0 1-.153-.185c.122-.606.254-1.22.391-1.823a.155.155 0 0 1 .186-.113.154.154 0 0 1 .118.181 75.613 75.613 0 0 0-.39 1.816.154.154 0 0 1-.152.123zm146.881-1.977a.158.158 0 0 1-.097-.034.157.157 0 0 1-.054-.086c-.138-.6-.286-1.207-.439-1.805a.15.15 0 0 1 .016-.117.155.155 0 0 1 .213-.055c.036.021.061.055.072.095.154.6.302 1.21.441 1.812a.16.16 0 0 1 0 .069.146.146 0 0 1-.03.062.155.155 0 0 1-.122.058zM14.302 63.094a.155.155 0 0 1-.15-.192 73.4 73.4 0 0 1 .482-1.802.154.154 0 0 1 .131-.116.157.157 0 0 1 .156.08.155.155 0 0 1 .013.12 74.26 74.26 0 0 0-.482 1.793.154.154 0 0 1-.15.117zM159.43 61.14a.157.157 0 0 1-.15-.112c-.167-.59-.346-1.19-.53-1.78a.155.155 0 0 1 .297-.092 77.4 77.4 0 0 1 .533 1.788.168.168 0 0 1 .003.07.155.155 0 0 1-.153.126zm-144.119-1.63a.156.156 0 0 1-.153-.128.153.153 0 0 1 .005-.071 75.87 75.87 0 0 1 .575-1.782.155.155 0 0 1 .197-.098.156.156 0 0 1 .098.196c-.197.585-.39 1.182-.573 1.774a.155.155 0 0 1-.149.11zm143.011-1.923a.155.155 0 0 1-.147-.106 75.81 75.81 0 0 0-.619-1.751.149.149 0 0 1 .005-.118.144.144 0 0 1 .035-.049.16.16 0 0 1 .171-.026.154.154 0 0 1 .081.087c.214.582.423 1.174.622 1.759.008.023.01.048.006.072a.15.15 0 0 1-.083.115.155.155 0 0 1-.071.017zM16.505 55.97a.157.157 0 0 1-.127-.066.153.153 0 0 1-.019-.141 75.07 75.07 0 0 1 .665-1.75.155.155 0 0 1 .202-.087.155.155 0 0 1 .088.2 74.26 74.26 0 0 0-.663 1.742.154.154 0 0 1-.146.102zm140.532-1.878a.156.156 0 0 1-.145-.098 73.214 73.214 0 0 0-.705-1.712.15.15 0 0 1-.012-.06.152.152 0 0 1 .045-.11.15.15 0 0 1 .109-.045.158.158 0 0 1 .111.044.164.164 0 0 1 .034.05c.241.567.48 1.146.707 1.72.008.019.012.039.011.06 0 .02-.004.04-.013.058a.146.146 0 0 1-.034.05.16.16 0 0 1-.051.033.164.164 0 0 1-.057.01zm-139.16-1.596a.154.154 0 0 1-.111-.046.153.153 0 0 1-.033-.169c.242-.571.496-1.148.753-1.713a.155.155 0 0 1 .204-.075.154.154 0 0 1 .08.202 73.686 73.686 0 0 0-.75 1.706.155.155 0 0 1-.144.095zm137.704-1.818a.155.155 0 0 1-.141-.091 74.344 74.344 0 0 0-.791-1.676.151.151 0 0 1-.008-.12.154.154 0 0 1 .079-.089.156.156 0 0 1 .209.074c.271.556.538 1.123.794 1.684a.155.155 0 0 1-.067.2.16.16 0 0 1-.075.018zm-136.16-1.582a.155.155 0 0 1-.14-.222c.27-.558.552-1.12.838-1.673a.155.155 0 0 1 .207-.064.155.155 0 0 1 .07.205c-.285.55-.565 1.11-.835 1.666a.154.154 0 0 1-.14.088zm134.534-1.758a.159.159 0 0 1-.139-.084 73.856 73.856 0 0 0-.873-1.636.153.153 0 0 1 .063-.207.154.154 0 0 1 .209.058c.3.546.595 1.098.878 1.644a.155.155 0 0 1-.138.225zm-132.82-1.56a.156.156 0 0 1-.156-.15c0-.028.006-.054.019-.078.298-.543.608-1.091.92-1.628a.155.155 0 0 1 .155-.077.155.155 0 0 1 .115.232c-.311.534-.62 1.08-.918 1.621a.155.155 0 0 1-.136.08zm131.027-1.697a.152.152 0 0 1-.134-.077 75.52 75.52 0 0 0-.956-1.59.154.154 0 0 1 .052-.213.155.155 0 0 1 .213.05c.327.53.65 1.066.96 1.598a.16.16 0 0 1 0 .155.159.159 0 0 1-.135.077zm-129.15-1.529a.157.157 0 0 1-.135-.079.153.153 0 0 1 .003-.156c.325-.528.662-1.06 1-1.58a.155.155 0 0 1 .262.168 73.96 73.96 0 0 0-.997 1.574.155.155 0 0 1-.133.073zm127.196-1.636a.158.158 0 0 1-.13-.07 79.994 79.994 0 0 0-1.034-1.543.158.158 0 0 1-.028-.117.154.154 0 0 1 .123-.125.153.153 0 0 1 .118.023.152.152 0 0 1 .043.044c.35.509.7 1.03 1.039 1.55.015.023.024.05.025.078a.158.158 0 0 1-.076.138.158.158 0 0 1-.08.022zM25.049 39.425a.156.156 0 0 1-.155-.163.154.154 0 0 1 .027-.078c.351-.511.714-1.025 1.079-1.528a.155.155 0 0 1 .218-.038.155.155 0 0 1 .06.163.155.155 0 0 1-.026.055 75.728 75.728 0 0 0-1.074 1.522.156.156 0 0 1-.129.067zm123.048-1.574a.15.15 0 0 1-.126-.064c-.363-.5-.736-1.002-1.11-1.491a.145.145 0 0 1-.029-.054.142.142 0 0 1-.005-.062.151.151 0 0 1 .06-.105.16.16 0 0 1 .118-.03c.02.004.04.011.058.022.018.01.033.025.045.042a73.6 73.6 0 0 1 1.115 1.497.155.155 0 0 1 .013.16.153.153 0 0 1-.058.062.154.154 0 0 1-.081.023zM27.24 36.403a.156.156 0 0 1-.14-.085.154.154 0 0 1 .015-.162c.377-.495.766-.99 1.153-1.473a.156.156 0 0 1 .276.08.154.154 0 0 1-.032.113c-.387.48-.773.974-1.15 1.467a.155.155 0 0 1-.123.06zm118.594-1.512a.156.156 0 0 1-.121-.058 78.895 78.895 0 0 0-1.184-1.434.155.155 0 0 1 .132-.254.156.156 0 0 1 .106.055c.402.474.802.96 1.189 1.44a.154.154 0 0 1 .018.163.156.156 0 0 1-.14.088zM29.577 33.493a.157.157 0 0 1-.14-.089.154.154 0 0 1 .021-.165c.401-.474.813-.95 1.225-1.413a.155.155 0 0 1 .22-.013.157.157 0 0 1 .052.106.153.153 0 0 1-.039.112c-.41.461-.82.935-1.22 1.407a.153.153 0 0 1-.12.055h.001zm113.848-1.448a.152.152 0 0 1-.063-.013.162.162 0 0 1-.053-.039c-.41-.46-.832-.922-1.255-1.374a.152.152 0 0 1-.041-.111.152.152 0 0 1 .049-.108.156.156 0 0 1 .22.008c.425.454.849.919 1.26 1.38.019.023.032.05.037.08a.153.153 0 0 1-.154.178zM32.056 30.703a.156.156 0 0 1-.142-.092.154.154 0 0 1 .028-.167c.422-.452.858-.906 1.294-1.351a.156.156 0 0 1 .267.106c0 .041-.016.08-.044.11-.435.443-.869.896-1.289 1.345a.156.156 0 0 1-.114.05zm108.821-1.381a.16.16 0 0 1-.112-.047 75.641 75.641 0 0 0-1.321-1.312.15.15 0 0 1-.047-.109.15.15 0 0 1 .044-.11.158.158 0 0 1 .11-.046c.041 0 .081.015.11.044.446.43.892.874 1.328 1.317a.15.15 0 0 1 .041.08.15.15 0 0 1-.009.088.158.158 0 0 1-.057.07.159.159 0 0 1-.087.025zM34.671 28.038a.155.155 0 0 1-.153-.186.155.155 0 0 1 .044-.079 74.71 74.71 0 0 1 1.358-1.285.156.156 0 0 1 .248.178.154.154 0 0 1-.036.049c-.454.418-.909.85-1.352 1.28a.156.156 0 0 1-.11.043zm103.523-1.315a.153.153 0 0 1-.105-.042c-.455-.42-.922-.838-1.386-1.245a.156.156 0 0 1-.053-.107.156.156 0 0 1 .258-.126c.467.41.935.83 1.392 1.252a.154.154 0 0 1-.106.268zm-100.78-1.215a.156.156 0 0 1-.146-.1.154.154 0 0 1 .042-.17c.467-.41.945-.82 1.421-1.217a.157.157 0 0 1 .22.019.155.155 0 0 1 .018.17.156.156 0 0 1-.038.048c-.474.396-.95.803-1.415 1.21a.155.155 0 0 1-.102.04zm97.971-1.248a.156.156 0 0 1-.1-.036 74.125 74.125 0 0 0-1.447-1.176.155.155 0 1 1 .194-.241c.488.386.977.784 1.453 1.18a.15.15 0 0 1 .05.079.147.147 0 0 1-.004.093.155.155 0 0 1-.146.102zm-95.106-1.144a.156.156 0 0 1-.148-.104.154.154 0 0 1 .05-.172c.486-.385.983-.77 1.48-1.144a.157.157 0 0 1 .216.031.153.153 0 0 1-.029.215c-.493.373-.99.757-1.473 1.14a.156.156 0 0 1-.096.034zm92.177-1.177a.157.157 0 0 1-.094-.031 74.937 74.937 0 0 0-1.504-1.104.155.155 0 0 1-.065-.1.157.157 0 0 1 .072-.159.157.157 0 0 1 .175.008c.505.362 1.014.735 1.51 1.109.027.02.046.046.056.078a.155.155 0 0 1-.002.095.154.154 0 0 1-.148.105v-.001zm-89.198-1.07a.157.157 0 0 1-.148-.107.154.154 0 0 1 .057-.173c.504-.361 1.02-.721 1.534-1.07a.156.156 0 0 1 .216.04.154.154 0 0 1-.04.215c-.512.348-1.027.706-1.528 1.066a.156.156 0 0 1-.09.03v-.001zm86.155-1.105a.158.158 0 0 1-.088-.027 72.801 72.801 0 0 0-1.558-1.028.155.155 0 0 1-.068-.098.15.15 0 0 1 .022-.116.157.157 0 0 1 .215-.046c.525.337 1.051.685 1.564 1.033a.152.152 0 0 1 .061.173.156.156 0 0 1-.148.109zm-83.068-.992a.156.156 0 0 1-.149-.11.153.153 0 0 1 .065-.174c.52-.335 1.054-.67 1.584-.992a.156.156 0 0 1 .205.055.154.154 0 0 1-.042.207 72.9 72.9 0 0 0-1.578.989.155.155 0 0 1-.084.026v-.001zm79.919-1.03a.154.154 0 0 1-.081-.023 74.894 74.894 0 0 0-1.609-.95.161.161 0 0 1-.048-.04.16.16 0 0 1-.033-.116.152.152 0 0 1 .061-.104.153.153 0 0 1 .175-.008c.539.31 1.083.63 1.616.954a.152.152 0 0 1 .063.076.145.145 0 0 1 .005.098.153.153 0 0 1-.149.113zm-76.732-.91a.156.156 0 0 1-.15-.115.153.153 0 0 1 .072-.174 73.994 73.994 0 0 1 1.632-.912.157.157 0 0 1 .21.062.153.153 0 0 1-.06.209c-.545.296-1.092.601-1.626.908a.154.154 0 0 1-.077.022h-.001zm73.484-.955a.159.159 0 0 1-.075-.018 75.403 75.403 0 0 0-1.655-.87.153.153 0 0 1-.084-.15.157.157 0 0 1 .054-.105.158.158 0 0 1 .172-.02c.556.284 1.116.577 1.662.873a.148.148 0 0 1 .068.074.153.153 0 0 1-.142.216zm-70.205-.825a.156.156 0 0 1-.15-.118.154.154 0 0 1 .079-.174 75.74 75.74 0 0 1 1.675-.83.156.156 0 0 1 .227.13.154.154 0 0 1-.092.148c-.558.268-1.12.546-1.668.827a.156.156 0 0 1-.07.017zm66.866-.875a.158.158 0 0 1-.068-.016 72.956 72.956 0 0 0-1.698-.786.16.16 0 0 1-.081-.086.151.151 0 0 1 .004-.118.156.156 0 0 1 .205-.077c.571.255 1.144.52 1.705.789a.154.154 0 0 1 .029.26.153.153 0 0 1-.096.033zm-63.504-.74a.155.155 0 0 1-.139-.223.155.155 0 0 1 .075-.072 76.48 76.48 0 0 1 1.713-.745.156.156 0 0 1 .203.082.154.154 0 0 1-.081.203c-.571.24-1.145.49-1.707.742a.157.157 0 0 1-.064.014zm60.081-.794a.155.155 0 0 1-.06-.012 74.964 74.964 0 0 0-1.737-.7.154.154 0 0 1-.087-.2.153.153 0 0 1 .082-.086.157.157 0 0 1 .119-.002c.582.226 1.168.463 1.743.704a.153.153 0 0 1 .038.262.153.153 0 0 1-.098.034zm-56.644-.65a.157.157 0 0 1-.153-.126.153.153 0 0 1 .096-.172c.58-.227 1.17-.45 1.754-.662a.157.157 0 0 1 .2.092.153.153 0 0 1-.093.198c-.582.212-1.17.433-1.747.66a.157.157 0 0 1-.057.01zm53.145-.71a.155.155 0 0 1-.053-.01c-.584-.21-1.18-.417-1.77-.613a.154.154 0 0 1-.02-.286.157.157 0 0 1 .119-.008c.592.197 1.191.405 1.777.616a.152.152 0 0 1 .082.068.158.158 0 0 1 .019.104.158.158 0 0 1-.053.092.16.16 0 0 1-.101.036zm-49.627-.566a.156.156 0 0 1-.153-.13.154.154 0 0 1 .104-.171c.59-.198 1.19-.39 1.786-.573a.156.156 0 0 1 .194.102.154.154 0 0 1-.103.193c-.592.182-1.19.374-1.778.57a.156.156 0 0 1-.05.009zm46.065-.62a.158.158 0 0 1-.046-.006 74.946 74.946 0 0 0-1.793-.523.16.16 0 0 1-.056-.026.151.151 0 0 1-.061-.104.158.158 0 0 1 .004-.061.162.162 0 0 1 .076-.095.152.152 0 0 1 .121-.011c.6.167 1.206.343 1.8.525a.155.155 0 0 1-.045.302zm-42.487-.48a.156.156 0 0 1-.154-.133.154.154 0 0 1 .112-.17c.598-.167 1.208-.33 1.812-.483a.157.157 0 0 1 .189.112.154.154 0 0 1-.112.188c-.602.152-1.21.314-1.805.48a.154.154 0 0 1-.042.007zm38.88-.521a.157.157 0 0 1-.038-.005 76.17 76.17 0 0 0-1.818-.432.154.154 0 0 1-.048-.281.156.156 0 0 1 .117-.02c.608.136 1.222.282 1.825.433a.153.153 0 0 1 .116.17.157.157 0 0 1-.051.096.158.158 0 0 1-.103.039zM70.335 8.7a.156.156 0 0 1-.155-.138.154.154 0 0 1 .12-.168 76.6 76.6 0 0 1 1.835-.392.156.156 0 0 1 .184.12.154.154 0 0 1-.122.183c-.609.122-1.223.254-1.827.39a.157.157 0 0 1-.035.005zm31.598-.424a.16.16 0 0 1-.031-.003 74.4 74.4 0 0 0-1.837-.34.152.152 0 0 1-.057-.022.15.15 0 0 1-.07-.097.153.153 0 0 1 .063-.162.156.156 0 0 1 .118-.024c.614.106 1.234.221 1.844.342a.156.156 0 0 1 .125.167.156.156 0 0 1-.156.139h.001zm-27.928-.314a.156.156 0 0 1-.154-.14.156.156 0 0 1 .128-.165 73.268 73.268 0 0 1 1.851-.302.157.157 0 0 1 .157.073.152.152 0 0 1 .018.117.154.154 0 0 1-.128.116 76.077 76.077 0 0 0-1.872.301zm24.239-.324c-.008 0-.016 0-.023-.002a75.354 75.354 0 0 0-1.852-.25.156.156 0 0 1-.134-.171.154.154 0 0 1 .172-.135c.619.076 1.244.16 1.86.25a.156.156 0 0 1 .132.165.154.154 0 0 1-.155.143zm-20.536-.23a.156.156 0 0 1-.156-.144.156.156 0 0 1 .137-.163 77.767 77.767 0 0 1 1.865-.209.156.156 0 0 1 .17.139.154.154 0 0 1-.139.169 77.438 77.438 0 0 0-1.877.209zm16.819-.223h-.016a75.388 75.388 0 0 0-1.862-.158.156.156 0 0 1-.143-.165.156.156 0 0 1 .166-.143c.62.045 1.25.098 1.87.158a.156.156 0 0 1 .14.162.154.154 0 0 1-.156.146zm-13.092-.146a.156.156 0 0 1-.162-.149.154.154 0 0 1 .15-.16 77.009 77.009 0 0 1 1.873-.117.156.156 0 0 1 .163.147.154.154 0 0 1-.148.162c-.618.031-1.246.07-1.865.116h-.011zm9.357-.124h-.008c-.62-.03-1.248-.052-1.868-.066a.156.156 0 0 1-.151-.158.158.158 0 0 1 .159-.15c.622.013 1.253.036 1.875.065a.156.156 0 0 1 .152.159.154.154 0 0 1-.16.15zm-5.617-.062a.156.156 0 0 1-.157-.152.154.154 0 0 1 .153-.157 79.133 79.133 0 0 1 1.876-.024.156.156 0 0 1 .156.154.154.154 0 0 1-.156.154c-.62 0-1.248.01-1.868.025h-.004z" fill="#52595B"/>
    <path opacity=".1" d="M87.129 125.099c24.346 0 44.083-19.609 44.083-43.798 0-24.188-19.737-43.797-44.083-43.797-24.347 0-44.084 19.609-44.084 43.797 0 24.189 19.737 43.798 44.084 43.798z" fill="#2962FF"/>
    <path d="M152.777 65.506c10.617 0 19.223-8.55 19.223-19.098 0-10.547-8.606-19.098-19.223-19.098-10.616 0-19.222 8.55-19.222 19.098 0 10.548 8.606 19.098 19.222 19.098z" fill="#fff"/>
    <path opacity=".1" d="M152.777 65.506c10.617 0 19.223-8.55 19.223-19.098 0-10.547-8.606-19.098-19.223-19.098-10.616 0-19.222 8.55-19.222 19.098 0 10.548 8.606 19.098 19.222 19.098z" fill="#2962FF"/>
    <path d="m141.291 53.98 22.322 3.628a2.16 2.16 0 0 0 2.481-1.771l2.394-14.534a2.15 2.15 0 0 0-1.784-2.465l-22.321-3.629a2.16 2.16 0 0 0-2.481 1.772l-2.394 14.533a2.148 2.148 0 0 0 1.783 2.465z" fill="#52595B"/>
    <path d="m147.525 44.61-3.951-.642a.367.367 0 1 0-.119.724l3.95.642a.367.367 0 1 0 .12-.724zM153.344 45.555l-3.951-.642a.367.367 0 1 0-.119.724l3.951.642a.367.367 0 1 0 .119-.724zM159.162 46.502l-3.951-.642a.367.367 0 1 0-.119.724l3.95.643a.367.367 0 1 0 .12-.724zM164.98 47.448l-3.951-.643a.367.367 0 1 0-.119.724l3.951.643a.367.367 0 1 0 .119-.724zM19.764 129.108c10.916 0 19.764-8.792 19.764-19.636 0-10.845-8.848-19.636-19.764-19.636C8.85 89.836 0 98.627 0 109.472c0 10.844 8.849 19.636 19.764 19.636z" fill="#fff"/>
    <path opacity=".1" d="M19.764 129.108c10.916 0 19.764-8.792 19.764-19.636 0-10.845-8.848-19.636-19.764-19.636C8.85 89.836 0 98.627 0 109.472c0 10.844 8.849 19.636 19.764 19.636z" fill="#2962FF"/>
    <path d="M28.48 107.779H8.079a.681.681 0 0 0-.687.683l1.337 14.737a.681.681 0 0 0 .687.683H28.48a.681.681 0 0 0 .687-.683v-14.737a.681.681 0 0 0-.687-.683z" fill="#52595B"/>
    <path d="m30.038 100.377-.857 19.218a.492.492 0 0 1-.514.467l-17.612-.775a.495.495 0 0 1-.47-.511l1.017-22.806a.488.488 0 0 1 .514-.468l14.043.618-.16 3.583a.492.492 0 0 0 .287.471c.06.027.124.043.19.046l3.562.157z" fill="#2962FF"/>
    <path opacity=".4" d="m30.038 100.377-.857 19.218a.492.492 0 0 1-.514.467l-17.612-.775a.495.495 0 0 1-.47-.511l1.017-22.806a.488.488 0 0 1 .514-.468l14.043.618-.163 3.659a.417.417 0 0 0 .244.399c.05.024.105.037.16.039l3.638.16z" fill="#fff"/>
    <path d="m13.755 101.83 13.867.61z" fill="#fff"/>
    <path d="M27.622 102.517h-.004l-13.866-.61a.076.076 0 0 1-.054-.026.076.076 0 0 1-.02-.055.077.077 0 0 1 .08-.074l13.867.61a.078.078 0 0 1 .076.079c0 .021-.009.04-.024.054a.077.077 0 0 1-.055.022z" fill="#FAFAFA"/>
    <path d="m13.661 103.953 13.867.611z" fill="#fff"/>
    <path d="M27.528 104.64h-.003l-13.867-.611a.076.076 0 0 1-.054-.025.074.074 0 0 1-.02-.055.08.08 0 0 1 .081-.074l13.866.61a.08.08 0 0 1 .055.024.078.078 0 0 1 .022.055c0 .021-.01.04-.024.054a.077.077 0 0 1-.056.022z" fill="#FAFAFA"/>
    <path d="m13.566 106.078 13.867.611z" fill="#fff"/>
    <path d="M27.433 106.765h-.003l-13.867-.611a.076.076 0 0 1-.054-.025.074.074 0 0 1 .006-.108.081.081 0 0 1 .055-.021l13.867.61a.078.078 0 0 1 .076.079c0 .021-.01.04-.024.054a.077.077 0 0 1-.056.022z" fill="#FAFAFA"/>
    <path d="m13.472 108.201 13.867.611z" fill="#fff"/>
    <path d="M27.338 108.888h-.003l-13.866-.611a.075.075 0 0 1-.054-.025.074.074 0 0 1 .006-.108.08.08 0 0 1 .055-.021l13.866.61a.08.08 0 0 1 .055.024.078.078 0 0 1 .021.055c0 .021-.009.04-.024.054a.077.077 0 0 1-.055.022z" fill="#FAFAFA"/>
    <path d="m13.378 110.326 13.867.611z" fill="#fff"/>
    <path d="M27.244 111.013h-.003l-13.867-.611a.075.075 0 0 1-.054-.025.076.076 0 0 1-.02-.055.08.08 0 0 1 .081-.074l13.867.611c.02 0 .04.009.054.023a.078.078 0 0 1-.002.11.08.08 0 0 1-.056.021z" fill="#FAFAFA"/>
    <path d="m13.282 112.451 6.225.274z" fill="#fff"/>
    <path d="M19.507 112.802h-.004l-6.225-.275a.071.071 0 0 1-.053-.025.076.076 0 0 1-.02-.055c0-.02.01-.04.025-.053a.077.077 0 0 1 .055-.021l6.225.274a.08.08 0 0 1 .055.024.076.076 0 0 1-.002.109.081.081 0 0 1-.056.022z" fill="#FAFAFA"/>
    <path opacity=".7" d="m30.039 100.375-3.542-.156a.52.52 0 0 1-.497-.54l.159-3.56 3.88 4.256z" fill="#2962FF"/>
    <path d="m27.26 101.579 1.541 19.176a.49.49 0 0 1-.452.527l-17.573 1.393a.491.491 0 0 1-.53-.449L8.417 99.47a.487.487 0 0 1 .452-.527l14.011-1.11.288 3.574a.495.495 0 0 0 .537.454l3.555-.282z" fill="#2962FF"/>
    <path opacity=".73" d="m27.26 101.579 1.541 19.176a.49.49 0 0 1-.452.527l-17.573 1.393a.491.491 0 0 1-.53-.449L8.417 99.47a.487.487 0 0 1 .452-.527l14.011-1.11.288 3.575a.493.493 0 0 0 .535.453l3.557-.282z" fill="#fff"/>
    <path d="m11.284 105.021 13.836-1.097z" fill="#fff"/>
    <path d="M11.284 105.097a.076.076 0 0 1-.081-.074c0-.021.007-.041.02-.056a.074.074 0 0 1 .055-.024l13.836-1.097c.02-.001.04.005.056.019a.076.076 0 0 1 .024.082.083.083 0 0 1-.039.045.097.097 0 0 1-.029.008l-13.836 1.097h-.006z" fill="#FAFAFA"/>
    <path d="m11.455 107.136 13.836-1.097z" fill="#fff"/>
    <path d="M11.454 107.214a.076.076 0 0 1-.08-.074c-.002-.02.006-.04.02-.055a.08.08 0 0 1 .054-.025l13.836-1.097c.02-.001.04.005.056.019a.078.078 0 0 1 .028.052.077.077 0 0 1-.072.083l-13.835 1.097h-.007z" fill="#FAFAFA"/>
    <path d="m11.625 109.259 13.836-1.097z" fill="#fff"/>
    <path d="M11.624 109.335a.076.076 0 0 1-.08-.074c-.002-.02.006-.04.02-.055a.08.08 0 0 1 .054-.025l13.836-1.097a.078.078 0 0 1 .057.019.075.075 0 0 1 .027.052.078.078 0 0 1-.018.057.082.082 0 0 1-.054.027l-13.836 1.096h-.006z" fill="#FAFAFA"/>
    <path d="m11.795 111.376 13.836-1.097z" fill="#fff"/>
    <path d="M11.794 111.453a.082.082 0 0 1-.055-.021.077.077 0 0 1-.005-.109.08.08 0 0 1 .054-.025l13.837-1.097a.078.078 0 0 1 .056.019.077.077 0 0 1-.044.136L11.8 111.453h-.007z" fill="#FAFAFA"/>
    <path d="m11.965 113.499 13.836-1.097z" fill="#fff"/>
    <path d="M11.965 113.574a.077.077 0 0 1-.056-.021.075.075 0 0 1-.02-.083.079.079 0 0 1 .016-.026.105.105 0 0 1 .024-.018.099.099 0 0 1 .03-.007l13.836-1.096c.01-.001.02 0 .03.003.01.003.019.008.027.015a.065.065 0 0 1 .018.024.076.076 0 0 1-.01.085.08.08 0 0 1-.024.019.097.097 0 0 1-.029.008l-13.836 1.097h-.006z" fill="#FAFAFA"/>
    <path d="m12.134 115.617 6.212-.492z" fill="#fff"/>
    <path d="M12.135 115.692a.077.077 0 0 1-.06-.129.076.076 0 0 1 .054-.025l6.211-.493a.083.083 0 0 1 .057.018.08.08 0 0 1 .027.053.079.079 0 0 1-.018.057.083.083 0 0 1-.053.027l-6.212.492h-.006z" fill="#FAFAFA"/>
    <path opacity=".3" d="m27.26 101.577-3.532.28a.522.522 0 0 1-.56-.474l-.285-3.553 4.378 3.747z" fill="#fff"/>
    <path d="M25.259 110.007v.51a.681.681 0 0 1-.687.683H10.743a.682.682 0 0 0-.683.603l-1.328 11.32a.677.677 0 0 0 .401.702c.088.039.184.06.281.06H29.86a.684.684 0 0 0 .684-.614l1.35-13.195a.68.68 0 0 0-.405-.693.688.688 0 0 0-.28-.059h-5.262a.697.697 0 0 0-.486.2.689.689 0 0 0-.201.483z" fill="#4CAF50"/>
    <path d="M132.328 157c11.968 0 21.67-9.639 21.67-21.529 0-11.891-9.702-21.53-21.67-21.53-11.968 0-21.67 9.639-21.67 21.53 0 11.89 9.702 21.529 21.67 21.529z" fill="#fff"/>
    <path opacity=".1" d="M132.328 157c11.968 0 21.67-9.639 21.67-21.529 0-11.891-9.702-21.53-21.67-21.53-11.968 0-21.67 9.639-21.67 21.53 0 11.89 9.702 21.529 21.67 21.529z" fill="#2962FF"/>
    <path d="M132.397 143.045c4.165 0 7.541-3.355 7.541-7.492 0-4.138-3.376-7.492-7.541-7.492-4.165 0-7.541 3.354-7.541 7.492 0 4.137 3.376 7.492 7.541 7.492z" fill="#4CAF50"/>
    <path d="m129.988 138.205.697-1.078c.552.421 1.036.637 1.55.637.616 0 .887-.255.887-.748 0-1.115-2.87-1.095-2.87-3.051 0-1.258.874-2.059 2.252-2.059a2.708 2.708 0 0 1 2.069.92l-.799.913c-.396-.358-.731-.547-1.185-.547-.523 0-.807.211-.807.697 0 1.034 2.87.944 2.87 3.016 0 1.246-.826 2.145-2.417 2.145a3.623 3.623 0 0 1-2.247-.845zm1.912-7.361h1.06v1.561h-1.06v-1.561zm0 7.555h1.06v1.713h-1.06v-1.713zM44.884 39.272c10.915 0 19.764-8.792 19.764-19.636C64.648 8.79 55.799 0 44.884 0 33.968 0 25.12 8.791 25.12 19.636c0 10.844 8.848 19.636 19.764 19.636z" fill="#fff"/>
    <path opacity=".1" d="M44.884 39.272c10.915 0 19.764-8.792 19.764-19.636C64.648 8.79 55.799 0 44.884 0 33.968 0 25.12 8.791 25.12 19.636c0 10.844 8.848 19.636 19.764 19.636z" fill="#2962FF"/>
    <path opacity=".8" d="M32.957 29.377h.763a.207.207 0 0 0 .208-.207v-5.433a.207.207 0 0 0-.208-.207h-.763a.207.207 0 0 0-.208.207v5.433c0 .114.093.207.208.207zM48.506 29.377h.763a.207.207 0 0 0 .208-.207V15.553a.207.207 0 0 0-.208-.207h-.763a.207.207 0 0 0-.208.207V29.17c0 .114.093.207.208.207zM53.69 29.377h.763a.207.207 0 0 0 .208-.207V15.553a.207.207 0 0 0-.208-.207h-.763a.207.207 0 0 0-.208.207V29.17c0 .114.093.207.208.207zM38.14 29.377h.763a.207.207 0 0 0 .208-.207V19.123a.207.207 0 0 0-.208-.206h-.763a.207.207 0 0 0-.208.206V29.17c0 .114.093.207.208.207zM43.323 29.377h.763a.207.207 0 0 0 .208-.207v-8.113a.207.207 0 0 0-.208-.207h-.763a.207.207 0 0 0-.208.207v8.113c0 .114.093.207.208.207z" fill="#2962FF"/>
    <path opacity=".5" d="M34.137 29.377h.763a.207.207 0 0 0 .208-.207V13.14a.207.207 0 0 0-.208-.206h-.763a.207.207 0 0 0-.208.207v16.03c0 .113.093.206.208.206zM54.87 29.377h.762a.207.207 0 0 0 .208-.207V13.14a.207.207 0 0 0-.208-.206h-.762a.207.207 0 0 0-.208.207v16.03c0 .113.093.206.208.206zM49.685 29.377h.763a.207.207 0 0 0 .208-.207V19.123a.207.207 0 0 0-.208-.206h-.763a.207.207 0 0 0-.208.206V29.17c0 .114.094.207.208.207zM44.503 29.377h.763a.207.207 0 0 0 .207-.207v-5.079a.207.207 0 0 0-.207-.206h-.763a.207.207 0 0 0-.208.206v5.08c0 .113.093.206.208.206zM39.32 29.377h.763a.207.207 0 0 0 .208-.207V17.898a.207.207 0 0 0-.208-.206h-.763a.207.207 0 0 0-.208.206V29.17c0 .114.093.207.208.207z" fill="#2962FF"/>
    <path opacity=".2" d="M56.049 29.377h.763a.207.207 0 0 0 .208-.207V17.822a.207.207 0 0 0-.208-.207h-.763a.207.207 0 0 0-.208.207V29.17c0 .114.093.207.208.207zM50.866 29.377h.763a.207.207 0 0 0 .208-.207v-6.964a.207.207 0 0 0-.208-.207h-.763a.207.207 0 0 0-.208.207v6.964c0 .114.093.207.208.207zM45.682 29.377h.763a.207.207 0 0 0 .208-.207V19.047a.207.207 0 0 0-.208-.207h-.763a.207.207 0 0 0-.208.207V29.17c0 .114.093.207.208.207zM40.5 29.377h.762a.207.207 0 0 0 .208-.207V19.047a.207.207 0 0 0-.208-.207H40.5a.207.207 0 0 0-.208.207V29.17c0 .114.094.207.208.207zM35.316 29.377h.763a.207.207 0 0 0 .208-.207V13.86a.207.207 0 0 0-.208-.207h-.763a.207.207 0 0 0-.208.207V29.17c0 .114.093.207.208.207z" fill="#2962FF"/>
    <path d="M59.35 29.382H30.72a.156.156 0 0 1-.155-.154V10.852a.154.154 0 0 1 .155-.155.156.156 0 0 1 .156.155v18.221H59.35a.156.156 0 0 1 .156.155.154.154 0 0 1-.156.154z" fill="#52595B"/>
    <path d="M98.751 62.719v36.656h-.041l-2.241-2.337-2.242 2.337h-.154l-2.24-2.337-2.242 2.337h-.01l-2.318-2.417-2.316 2.417h-.004l-2.317-2.417-2.316 2.417h-.016l-2.317-2.417-2.316 2.417h-.004l-2.316-2.417-2.283 2.382V62.719H98.75z" fill="#7897C9"/>
    <path d="M86.023 71.434H74.066v1.103h11.957v-1.103zM82.2 68.045h-8.134v1.103H82.2v-1.103zM84.07 74.82H74.067v1.103h10.005V74.82zM81.468 78.21h-7.402v1.102h7.402V78.21zM84.904 81.598H74.066V82.7h10.838v-1.103zM83.42 84.984h-9.354v1.104h9.354v-1.104zM82.2 88.373h-8.134v1.103H82.2v-1.103zM80.736 91.762h-6.67v1.103h6.67v-1.103zM95.622 71.434H91.23v1.103h4.392v-1.103zM95.621 68.045H91.23v1.103h4.392v-1.103zM95.622 74.82H91.23v1.103h4.392V74.82zM95.621 78.21H91.23v1.102h4.392V78.21zM95.622 81.598H91.23V82.7h4.392v-1.103zM95.622 84.984H91.23v1.104h4.392v-1.104zM95.621 88.373H91.23v1.103h4.392v-1.103zM95.622 91.762H91.23v1.103h4.392v-1.103z" fill="#fff"/>
    <path d="M98.751 102.42c3.426 0 6.203-2.897 6.203-6.47 0-3.574-2.777-6.472-6.203-6.472s-6.203 2.898-6.203 6.471c0 3.574 2.777 6.471 6.203 6.471z" fill="#4CAF50"/>
    <path d="M97.687 99.481a.495.495 0 0 1-.348-.144l-2.356-2.319a.541.541 0 0 1-.015-.74.495.495 0 0 1 .71-.028l1.981 1.949 4.136-4.755a.494.494 0 0 1 .713-.033.543.543 0 0 1 .038.743l-4.484 5.154a.509.509 0 0 1-.375.173z" fill="#fff"/>
</svg>
