<svg width="14" height="14" viewBox="0 0 14 14" fill="none" xmlns="http://www.w3.org/2000/svg">
    <path fill-rule="evenodd" clip-rule="evenodd" d="M2.1 10.85v1.05h11.2v-1.05h-1.453V5.495c0-.98-.291-1.852-.874-2.616A3.77 3.77 0 0 0 8.68 1.435V.927a.86.86 0 0 0-.289-.665A.992.992 0 0 0 7.7 0a.992.992 0 0 0-.691.263.86.86 0 0 0-.289.665v.507a3.796 3.796 0 0 0-1.489.652c.43.105.83.3 1.186.566a3.064 3.064 0 0 1 1.3-.273c.864 0 1.593.303 2.188.91.595.607.893 1.342.893 2.205v5.355H4.62v-.852a3.105 3.105 0 0 1-1.05-.14v.992H2.1zm4.62 2.739c.28.274.607.411.98.411.385 0 .715-.137.989-.411.274-.274.411-.604.411-.989H6.3c0 .385.14.715.42.989z" fill="#fff"/>
    <path fill-rule="evenodd" clip-rule="evenodd" d="M4.275 9.55a4.275 4.275 0 1 0 0-8.55 4.275 4.275 0 0 0 0 8.55zm.278-1.208h-.588v-.577a1.991 1.991 0 0 1-.807-.411 2.238 2.238 0 0 1-.55-.775l.545-.182c.085.271.237.485.454.641.217.157.465.236.743.236.285 0 .522-.07.71-.209a.651.651 0 0 0 .284-.55.767.767 0 0 0-.267-.593c-.179-.16-.506-.34-.984-.54-.427-.178-.748-.37-.962-.577-.213-.207-.32-.485-.32-.834 0-.32.105-.59.315-.807.21-.217.497-.35.86-.4v-.546h.588v.545c.271.029.506.114.706.257.2.142.36.338.48.588l-.512.246a1.17 1.17 0 0 0-.396-.45c-.157-.1-.342-.149-.556-.149-.277 0-.497.064-.657.192a.635.635 0 0 0-.24.524c0 .228.092.41.278.545.185.136.484.289.897.46.492.206.841.424 1.048.652.206.228.31.523.31.887 0 .363-.122.653-.364.87-.242.218-.58.352-1.015.402v.555z" fill="#fff"/>
</svg>
