<svg width="114" height="98" viewBox="0 0 114 98" fill="none" xmlns="http://www.w3.org/2000/svg">
    <path d="M57 97.618c31.412 0 56.877-1.487 56.877-3.32 0-1.835-25.465-3.321-56.877-3.321-31.413 0-56.877 1.486-56.877 3.32 0 1.834 25.464 3.321 56.877 3.321z" fill="#F5F5F5"/>
    <path d="M21.904 29.18c-.258.586-.543 1.22-.792 1.839-.25.619-.507 1.255-.733 1.89a26.8 26.8 0 0 0-1.112 3.792l-.085.47-.03.175c0 .05 0 .115-.017.174-.011.285-.005.571.017.856.056.62.156 1.282.294 1.945.246 1.329.56 2.699.88 4.048l-1.505.587a27.171 27.171 0 0 1-1.787-3.987 16.707 16.707 0 0 1-.621-2.191 7.861 7.861 0 0 1-.165-1.25v-.355c0-.126 0-.267.02-.349l.06-.586c.087-.756.221-1.505.401-2.245.165-.733.376-1.446.587-2.15.211-.704.475-1.396.754-2.077.138-.34.293-.677.428-1.015.135-.337.294-.66.481-1.02l2.925 1.449z" fill="#F8B195"/>
    <path d="m20.246 43.974 1.144 1.117-2.496 1.174s-.604-1.06-.185-2.016l1.537-.275z" fill="#F8B195"/>
    <path d="m22.314 46.755-2.109.862-1.308-1.363 2.493-1.162.924 1.663z" fill="#F8B195"/>
    <path opacity=".4" d="M65.041 45.552a21.121 21.121 0 1 1 4.713-41.979 21.121 21.121 0 0 1-4.713 41.979z" fill="#FAFAFA"/>
    <path opacity=".4" d="M80.407 7.921 48.285 33.587a28.641 28.641 0 0 1-.39-.88 20.895 20.895 0 0 1-1.529-6.008L74.112 4.53a20.872 20.872 0 0 1 6.296 3.391zM87.82 19.165 57.618 43.293a21.08 21.08 0 0 1-7.266-6.242l32.975-26.349a21.12 21.12 0 0 1 4.491 8.463z" fill="#FAFAFA"/>
    <path d="m43.62 16.49-.278-.094a25.727 25.727 0 0 1 1.813-4.121l.255.14a25.503 25.503 0 0 0-1.79 4.075zm3.562-6.847-.238-.173a25.433 25.433 0 0 1 9.203-7.688l.132.264a25.152 25.152 0 0 0-9.097 7.606v-.009zM79.33 2.447a24.526 24.526 0 0 0-2.969-1.346l.106-.276c1.028.392 2.03.85 2.998 1.373l-.135.25z" fill="#2962FF"/>
    <path opacity=".3" d="m43.62 16.49-.278-.094a25.727 25.727 0 0 1 1.813-4.121l.255.14a25.503 25.503 0 0 0-1.79 4.075zm3.562-6.847-.238-.173a25.433 25.433 0 0 1 9.203-7.688l.132.264a25.152 25.152 0 0 0-9.097 7.606v-.009zM79.33 2.447a24.526 24.526 0 0 0-2.969-1.346l.106-.276c1.028.392 2.03.85 2.998 1.373l-.135.25z" fill="#52595B"/>
    <path d="M89.23 13.773a24.348 24.348 0 0 0-44.78 18.989c-1.959.686-3.895 1.423-5.82 2.182a242.66 242.66 0 0 0-8.248 3.45 302.288 302.288 0 0 0-8.117 3.72c-1.347.63-2.676 1.297-4.016 1.942-.698.3-1.33.733-1.86 1.276-.287.3-.54.632-.754.989a5.06 5.06 0 0 0-.587 1.358 3.732 3.732 0 0 0 2.15 4.356c.456.19.936.315 1.426.37a5.53 5.53 0 0 0 1.247 0 5.794 5.794 0 0 0 2.141-.702c1.33-.671 2.667-1.32 3.987-2.009 2.64-1.347 5.28-2.752 7.888-4.177a218.331 218.331 0 0 0 7.765-4.45 180.463 180.463 0 0 0 5.28-3.292 24.348 24.348 0 0 0 42.304-24.002h-.006zM75.895 41.797A19.222 19.222 0 1 1 58.878 7.324a19.222 19.222 0 0 1 17.017 34.473z" fill="#2962FF"/>
    <path opacity=".3" d="M89.23 13.773a24.348 24.348 0 0 0-44.78 18.989c-1.959.686-3.895 1.423-5.82 2.182a242.66 242.66 0 0 0-8.248 3.45 302.288 302.288 0 0 0-8.117 3.72c-1.347.63-2.676 1.297-4.016 1.942-.698.3-1.33.733-1.86 1.276-.287.3-.54.632-.754.989a5.06 5.06 0 0 0-.587 1.358 3.732 3.732 0 0 0 2.15 4.356c.456.19.936.315 1.426.37a5.53 5.53 0 0 0 1.247 0 5.794 5.794 0 0 0 2.141-.702c1.33-.671 2.667-1.32 3.987-2.009 2.64-1.347 5.28-2.752 7.888-4.177a218.331 218.331 0 0 0 7.765-4.45 180.463 180.463 0 0 0 5.28-3.292 24.348 24.348 0 0 0 42.304-24.002h-.006zM75.895 41.797A19.222 19.222 0 1 1 58.878 7.324a19.222 19.222 0 0 1 17.017 34.473z" fill="#52595B"/>
    <path d="M30.012 18.704c0 .174.09.314.205.314.115 0 .206-.14.206-.314 0-.173-.091-.313-.206-.313-.114 0-.205.152-.205.314z" fill="#263238"/>
    <path d="M30.094 19.019c.208.53.487 1.031.83 1.487a1.001 1.001 0 0 1-.83.155V19.02z" fill="#F8B195"/>
    <path d="M29.404 17.74a.11.11 0 0 1-.085-.041.105.105 0 0 1 .024-.144 1.006 1.006 0 0 1 .918-.155.104.104 0 0 1 .065.052.102.102 0 0 1-.02.12.103.103 0 0 1-.118.018.801.801 0 0 0-.725.132.106.106 0 0 1-.059.018z" fill="#263238"/>
    <path d="M24.086 20.01c.293 1.575.616 4.464-.487 5.518 0 0 .431 1.598 3.362 1.598 3.227 0 1.537-1.598 1.537-1.598-1.76-.423-1.71-1.725-1.405-2.951l-3.007-2.567z" fill="#F8B195"/>
    <path d="M22.282 26.358c.349-.543-.238-1.86-.238-1.86s5.187-1.305 7.308.698c.44.414-.047 1.024-.047 1.024l-7.023.138z" fill="#2962FF"/>
    <path opacity=".1" d="M22.282 26.358c.349-.543-.238-1.86-.238-1.86s5.187-1.305 7.308.698c.44.414-.047 1.024-.047 1.024l-7.023.138z" fill="#52595B"/>
    <path d="M13.701 86.21c-.273 0-.71-.455-.839-.625a.05.05 0 0 1 0-.056.053.053 0 0 1 .047-.026c.032 0 .751.064.948.32a.237.237 0 0 1 .047.193.21.21 0 0 1-.153.191l-.05.003zm-.68-.587c.214.247.557.525.704.49 0 0 .058-.015.076-.108a.133.133 0 0 0-.03-.112 1.37 1.37 0 0 0-.75-.276v.006z" fill="#2962FF"/>
    <path d="M13.054 85.618a.792.792 0 0 1-.159 0 .047.047 0 0 1-.04-.032.058.058 0 0 1 0-.053c.02-.018.45-.466.777-.466a.275.275 0 0 1 .208.088.167.167 0 0 1 .04.205c-.084.164-.533.258-.826.258zm-.039-.103c.294 0 .72-.09.79-.22 0 0 .02-.038-.027-.085a.174.174 0 0 0-.135-.055c-.24.055-.459.18-.628.36zM33.06 92.87a3.879 3.879 0 0 1-.663-.063.047.047 0 0 1-.039-.046c-.001-.01 0-.02.004-.03a.053.053 0 0 1 .02-.023c.032-.018.783-.449 1.144-.35a.254.254 0 0 1 .161.118.194.194 0 0 1 0 .223c-.085.132-.352.17-.627.17zm-.496-.139c.399.059.944.056 1.044-.085.015-.017.026-.05 0-.111a.164.164 0 0 0-.1-.074c-.229-.058-.683.135-.944.27z" fill="#2962FF"/>
    <path d="M32.409 92.81a.053.053 0 0 1-.03 0 .047.047 0 0 1-.02-.049c.02-.305.137-.596.334-.83a.367.367 0 0 1 .294-.085c.14 0 .181.085.19.14.038.244-.475.71-.736.828l-.032-.003zm.525-.88a.267.267 0 0 0-.176.065 1.174 1.174 0 0 0-.294.666c.264-.161.617-.525.587-.671 0 0 0-.05-.1-.06h-.017z" fill="#2962FF"/>
    <path d="M30.038 92.757h2.156l.215-4.99h-2.156l-.215 4.99zM10.838 84.192l1.801 1.18 3.978-3.36-1.804-1.182-3.975 3.362z" fill="#F8B195"/>
    <path d="m12.936 85.26-1.872-1.534a.185.185 0 0 0-.234 0l-1.543 1.211a.317.317 0 0 0 0 .496c.663.525 1.012.748 1.836 1.423.508.413 1.76 1.68 2.467 2.253.707.572 1.355-.044 1.12-.34-1.052-1.335-1.466-2.477-1.586-3.184a.531.531 0 0 0-.188-.325zM32.18 92.508h-2.347a.191.191 0 0 0-.185.147l-.425 1.915a.314.314 0 0 0 .311.384c.848-.014 2.074-.064 3.142-.064 1.246 0 2.326.067 3.787.067.88 0 1.132-.894.76-.974-1.684-.37-3.063-.407-4.518-1.308a1.01 1.01 0 0 0-.525-.167zM19.352 26.17c-1.87.88-2.934 6.777-2.934 6.777l4.567 1.821a33.98 33.98 0 0 0 1.617-5.03c.628-2.717-1.338-4.477-3.25-3.568z" fill="#263238"/>
    <path d="M21.774 29.494c-1.13 1.144-1.646 3.385-1.871 4.843l1.094.437a34.239 34.239 0 0 0 1.584-4.884c-.097-.622-.337-.871-.807-.396z" fill="#203048"/>
    <path d="M31.813 26.13s2.294 2.592.129 18.627H20.416c-.079-1.76 1.033-10.4-.675-18.736a29.491 29.491 0 0 1 3.858-.487 41.315 41.315 0 0 1 4.899 0 21.77 21.77 0 0 1 3.315.595z" fill="#263238"/>
    <path d="m32.866 32.354-1.942-3.347a17.106 17.106 0 0 0-.455 4.773c.053 1.15 1.106 5.409 2.054 6.03.251-2.477.366-4.966.343-7.456z" fill="#203048"/>
    <path d="M33.136 28.42c.294 1.426.587 2.886.9 4.318.315 1.432.64 2.869 1.019 4.257.096.343.188.695.293 1.023l.08.253.037.126v-.015c-.02-.026-.044-.03-.026 0 .12.132.275.228.446.279.277.103.563.182.854.237 1.387.22 2.79.311 4.194.273l.28 1.596c-.394.126-.76.217-1.148.308-.387.09-.768.167-1.159.226-.807.134-1.625.19-2.443.164a6.636 6.636 0 0 1-1.35-.176 3.928 3.928 0 0 1-1.548-.719 2.83 2.83 0 0 1-.725-.88c-.047-.088-.088-.187-.126-.272l-.053-.138-.108-.294c-.15-.372-.273-.739-.408-1.106a54.373 54.373 0 0 1-1.273-4.426 64.167 64.167 0 0 1-.94-4.47l3.204-.564z" fill="#F8B195"/>
    <path d="M28.935 27.702c-.607 1.968 1.854 7.838 1.854 7.838l4.902-1.232s-.188-3.051-1.305-5.471c-1.684-3.65-4.723-3.497-5.45-1.135z" fill="#263238"/>
    <path d="m40.892 39.172 2.44-.062-1.173 2.54s-.995.133-1.81-1.208l-.86-1.027.99-.196c.135-.029.274-.044.413-.047zM44.873 39.583l-1.396 2.106-1.318-.038 1.174-2.54 1.54.472zM32.408 87.768l-.111 2.572h-2.156l.111-2.572h2.156zM14.813 80.83l1.804 1.182-2.053 1.731-1.801-1.18 2.05-1.733zM24.22 18.332c.13 2.133.098 3.391 1.174 4.486 1.62 1.651 4.257.674 4.767-1.467.46-1.919.173-5.087-1.915-5.938a2.933 2.933 0 0 0-4.025 2.92z" fill="#F8B195"/>
    <path d="M21.71 17.956c.531 1.945 1.78 4.187 3.397 4.33 2.007.176 2.913-1.898 3.177-4.04 1.203-.823.572-1.73 1.778-1.844 1.549-.147 1.053-2.98-.986-3.435 0 0 .684 1.276-.75.63a8.279 8.279 0 0 0-4.384-.76s1.831.916.041 1.324c-1.789.407-2.323 1.51-1.498 2.176 0 .003-1.124.34-.775 1.62z" fill="#263238"/>
    <path d="M27.061 18.687c.04.53.253 1.032.607 1.429.47.519.96.196 1.042-.434.076-.567-.08-1.52-.655-1.807-.575-.288-1.032.173-.994.812z" fill="#F8B195"/>
    <path d="M27.852 44.757s2.1 15.21.446 21.306C25.676 75.714 15.65 83.86 15.65 83.86l-3.4-2.23s8.54-6.878 9.584-14.96c.939-7.255-1.417-16.029-1.417-21.916l7.436.003z" fill="#2962FF"/>
    <path opacity=".1" d="M27.852 44.757s2.1 15.21.446 21.306C25.676 75.714 15.65 83.86 15.65 83.86l-3.4-2.23s8.54-6.878 9.584-14.96c.939-7.255-1.417-16.029-1.417-21.916l7.436.003z" fill="#52595B"/>
    <path d="M28.721 53.452c-.559-.641-1.174-1.23-1.839-1.76.358 4.937.651 12.25.326 17.445.438-.996.802-2.023 1.091-3.072.807-2.977.722-8.12.422-12.613z" fill="#2962FF"/>
    <path opacity=".3" d="M28.721 53.452c-.559-.641-1.174-1.23-1.839-1.76.358 4.937.651 12.25.326 17.445.438-.996.802-2.023 1.091-3.072.807-2.977.722-8.12.422-12.613z" fill="#52595B"/>
    <path d="M17.02 83.1c.014 0-1.318.881-1.318.881l-3.713-2.435 1.173-.97 3.857 2.525z" fill="#2962FF"/>
    <path opacity=".3" d="M17.02 83.1c.014 0-1.318.881-1.318.881l-3.713-2.435 1.173-.97 3.857 2.525z" fill="#52595B"/>
    <path d="M31.942 44.757s3.244 13.758 3.473 20.332c.258 7.369-2.315 24.753-2.315 24.753h-3.652s-.449-17.52-.61-24.231c-.179-7.319-4.474-20.854-4.474-20.854h7.578z" fill="#2962FF"/>
    <path opacity=".1" d="M31.942 44.757s3.244 13.758 3.473 20.332c.258 7.369-2.315 24.753-2.315 24.753h-3.652s-.449-17.52-.61-24.231c-.179-7.319-4.474-20.854-4.474-20.854h7.578z" fill="#52595B"/>
    <path d="M33.802 88.39c.018 0-.205 1.513-.205 1.513h-4.441l-.12-1.352 4.766-.161z" fill="#2962FF"/>
    <path opacity=".3" d="M33.802 88.39c.018 0-.205 1.513-.205 1.513h-4.441l-.12-1.352 4.766-.161z" fill="#52595B"/>
    <path d="M88.096 31.536c.249.235.445.434.65.657.206.223.4.44.587.666.382.449.74.921 1.086 1.396.691.954 1.306 1.96 1.84 3.01l.108.214a2.675 2.675 0 0 1 .261.986c.019.398-.036.796-.162 1.173a5.913 5.913 0 0 1-.941 1.737 12.522 12.522 0 0 1-2.582 2.482l-.73-.84c.343-.401.7-.832 1.02-1.264.326-.417.62-.859.88-1.32.244-.402.424-.84.535-1.296.038-.164.044-.333.02-.499a.654.654 0 0 0-.09-.226l-.095-.158a30.862 30.862 0 0 0-1.839-2.673 24.812 24.812 0 0 0-1.027-1.252c-.173-.206-.352-.405-.53-.605-.18-.199-.373-.398-.529-.554l1.537-1.634z" fill="#F8B195"/>
    <path d="m88.494 42.771-2.192-.358 1.147 1.919s1.412-.05 1.813-.88l-.768-.681z" fill="#F8B195"/>
    <path d="m84.683 43.299 1.045 1.558 1.722-.525-1.147-1.919-1.62.886z" fill="#F8B195"/>
    <path d="M88.388 92.843a.631.631 0 0 1-.42-.114.295.295 0 0 1-.085-.276.173.173 0 0 1 .103-.147c.255-.114.924.314 1 .364a.047.047 0 0 1 .021.053.047.047 0 0 1-.038.041 2.6 2.6 0 0 1-.581.08zm-.293-.454a.212.212 0 0 0-.065 0 .076.076 0 0 0-.044.067.198.198 0 0 0 .053.185c.111.1.399.114.783.038a1.933 1.933 0 0 0-.727-.29z" fill="#2962FF"/>
    <path d="M88.975 92.76h-.026c-.208-.12-.61-.586-.56-.841a.19.19 0 0 1 .176-.147.264.264 0 0 1 .22.07c.24.212.243.846.243.88a.056.056 0 0 1-.026.045l-.026-.006zm-.375-.88h-.023c-.065 0-.08.036-.086.062-.029.15.22.508.429.675a1.199 1.199 0 0 0-.203-.692.166.166 0 0 0-.06-.037c-.024-.007-.048-.01-.072-.007h.015zM78.391 92.843a.813.813 0 0 1-.53-.135.294.294 0 0 1-.098-.252.17.17 0 0 1 .088-.138c.273-.153 1.147.293 1.247.349a.06.06 0 0 1 .026.056.05.05 0 0 1-.04.04 3.67 3.67 0 0 1-.693.08zm-.39-.455a.181.181 0 0 0-.097.02.062.062 0 0 0-.035.056.19.19 0 0 0 .059.168c.135.12.495.14.982.058a2.854 2.854 0 0 0-.91-.302z" fill="#2962FF"/>
    <path d="M79.074 92.76h-.023c-.261-.117-.78-.586-.74-.842 0-.058.053-.132.197-.146a.387.387 0 0 1 .294.09c.275.23.328.822.328.849a.05.05 0 0 1-.02.046.055.055 0 0 1-.036.003zm-.525-.88h-.032c-.094 0-.1.047-.103.059-.023.15.329.522.587.684a1.22 1.22 0 0 0-.293-.678.273.273 0 0 0-.159-.065z" fill="#2962FF"/>
    <path d="M82.543 24.792c-.086 1.326-.314 4.019.703 4.764 0 0-.184 1.358-2.587 1.675-2.64.343-1.434-1.147-1.434-1.147 1.399-.534 1.22-1.599.839-2.573l2.479-2.719z" fill="#F8B195"/>
    <path d="M77.077 22.448a.1.1 0 0 1-.076-.035.831.831 0 0 0-.69-.294.103.103 0 0 1-.099-.165.106.106 0 0 1 .07-.04 1.029 1.029 0 0 1 .88.37.106.106 0 0 1-.08.172l-.005-.008z" fill="#263238"/>
    <path d="M76.62 23.747c-.105.42-.265.825-.479 1.203a.757.757 0 0 0 .643.035l-.165-1.238z" fill="#F8B195"/>
    <path d="M76.736 23.424c.024.177-.05.329-.164.347-.114.017-.229-.118-.25-.294-.02-.176.05-.328.165-.343.114-.015.229.103.25.29z" fill="#263238"/>
    <path d="m76.54 23.138-.437-.068s.258.302.437.068z" fill="#263238"/>
    <path d="M81.492 92.714h-2.2l-.147-5.09h2.2l.147 5.09zM91.48 92.714h-2.2l-.707-5.09h2.2l.707 5.09z" fill="#F8B195"/>
    <path d="M89.146 92.468h2.47a.173.173 0 0 1 .173.15l.293 1.956a.351.351 0 0 1-.352.39c-.86-.014-1.276-.064-2.361-.064-.67 0-1.646.067-2.567.067-.921 0-.971-.912-.587-.994 1.722-.37 1.995-.88 2.573-1.37a.587.587 0 0 1 .358-.135zM79.219 92.468h2.467a.176.176 0 0 1 .176.15l.293 1.956a.351.351 0 0 1-.352.39c-.86-.014-1.276-.064-2.362-.064-.668 0-2.053.067-2.974.067-.921 0-.971-.912-.587-.994 1.722-.37 2.4-.88 2.98-1.37a.587.587 0 0 1 .359-.135z" fill="#263238"/>
    <path d="m79.145 87.624.076 2.626h2.2l-.076-2.626h-2.2zM90.773 87.624h-2.2l.367 2.626h2.197l-.364-2.626zM82.572 22.046c.15 2.176.258 3.095-.687 4.347-1.422 1.88-4.127 1.59-4.925-.498-.719-1.88-.842-5.122 1.159-6.26a2.978 2.978 0 0 1 4.453 2.41z" fill="#F8B195"/>
    <path d="M83.838 24.067c1.22.68 2.127-.997 2.127-.997s-2.188.238-1.992-1.065c.258-1.728-.98-3.828-4.083-3.558a6.398 6.398 0 0 0-.499.061 1.596 1.596 0 0 0-1.93.446c-.88.073-2.068 1.124-1.261 2.511.056-.16.144-.306.258-.431.067.813.777 2.103 1.663 2.188.19 1.112-.549 2.4-.293 3.562.378 1.675 3.203 2.053 3.203 2.053a1.223 1.223 0 0 1 .164-1.294c1.919.88 3.183.021 3.183.021-1.308-.487-.912-1.355-.912-1.355a1.91 1.91 0 0 0 2.49-.907 2.253 2.253 0 0 1-2.118-1.235z" fill="#263238"/>
    <path d="M78.887 23.556a1.582 1.582 0 0 1-.44 1.136c-.387.401-.862.12-.992-.393-.114-.464-.05-1.23.455-1.44a.717.717 0 0 1 .977.697z" fill="#F8B195"/>
    <path d="M80.714 43.836s.558 14.48 1.884 22.981c1.067 6.87 5.81 22.922 5.81 22.922h2.999s-2.473-15.503-3.016-22.294c-1.373-17.187 2.192-20.878-1.173-24.457l-6.504.848z" fill="#263238"/>
    <path d="M83.22 48.415s-1.356-.235-2.148 2.346c.293 4.89.795 11.38 1.525 16.056.162 1.04.408 2.296.71 3.672-.572-8.26-.088-22.074-.088-22.074z" fill="#161F33"/>
    <path d="M78.376 44.14s-2.47 16.02-2.326 22.724c.15 6.972 2.704 22.88 2.704 22.88h2.972s-.47-15.494-.208-22.34c.293-7.466 3.341-24.105 3.341-24.105l-6.483.842z" fill="#263238"/>
    <path d="M91.841 89.88h-3.986l-.311-1.338 4.268.03.03 1.308z" fill="#2962FF"/>
    <path opacity=".2" d="M91.841 89.88h-3.986l-.311-1.338 4.268.03.03 1.308z" fill="#52595B"/>
    <path d="M87.068 29.559c1.147.111 2.89 3.37 2.89 3.37l-2.896 2.221s-2.397-2.103-2.112-3.285c.296-1.23 1.018-2.409 2.118-2.306z" fill="#2962FF"/>
    <path opacity=".1" d="M87.068 29.559c1.147.111 2.89 3.37 2.89 3.37l-2.896 2.221s-2.397-2.103-2.112-3.285c.296-1.23 1.018-2.409 2.118-2.306z" fill="#52595B"/>
    <path d="M86.203 30.96a2.973 2.973 0 0 0-.898-.099c-.154.32-.273.657-.355 1.003-.293 1.174 2.112 3.286 2.112 3.286l.215-.164-1.074-4.025z" fill="#2962FF"/>
    <path opacity=".3" d="M86.203 30.96a2.973 2.973 0 0 0-.898-.099c-.154.32-.273.657-.355 1.003-.293 1.174 2.112 3.286 2.112 3.286l.215-.164-1.074-4.025z" fill="#52595B"/>
    <path d="M77.394 34.091c-.836 2.115-1.716 4.265-2.418 6.386-.046.135-.085.264-.126.396l-.1.326a.536.536 0 0 0 0 .293c.166.367.429.681.76.91.877.629 1.833 1.14 2.843 1.522l-.264 1.08a10.178 10.178 0 0 1-3.544-1.156 3.793 3.793 0 0 1-1.58-1.602 2.455 2.455 0 0 1-.203-1.396 1.61 1.61 0 0 1 .03-.173l.028-.123.05-.224c.035-.15.07-.293.109-.44.293-1.173.669-2.288 1.065-3.394.396-1.105.81-2.197 1.276-3.285l2.074.88z" fill="#F8B195"/>
    <path d="M75.613 31.122s-.991.502 2.764 13.019l8.853-1.156c-.622-3.585-.915-5.805-.161-13.427a26.7 26.7 0 0 0-3.814 0 28.024 28.024 0 0 0-4.022.528c-1.698.379-3.62 1.036-3.62 1.036z" fill="#2962FF"/>
    <path opacity=".1" d="M75.613 31.122s-.991.502 2.764 13.019l8.853-1.156c-.622-3.585-.915-5.805-.161-13.427a26.7 26.7 0 0 0-3.814 0 28.024 28.024 0 0 0-4.022.528c-1.698.379-3.62 1.036-3.62 1.036z" fill="#52595B"/>
    <path d="m87.294 42.448.508.737c.038.058-.027.129-.126.143l-9.285 1.215c-.079 0-.152-.02-.164-.07l-.182-.784c-.015-.053.05-.108.138-.12l8.965-1.173a.162.162 0 0 1 .146.052z" fill="#2962FF"/>
    <path opacity=".2" d="m87.294 42.448.508.737c.038.058-.027.129-.126.143l-9.285 1.215c-.079 0-.152-.02-.164-.07l-.182-.784c-.015-.053.05-.108.138-.12l8.965-1.173a.162.162 0 0 1 .146.052z" fill="#52595B"/>
    <path d="m86.22 43.607.24-.032c.048 0 .08-.036.074-.065l-.246-1.015a.085.085 0 0 0-.1-.041l-.24.03c-.05 0-.083.034-.074.067l.247 1.012c.005.032.053.05.1.044zM80.401 44.358l.24-.032c.047 0 .083-.035.074-.065l-.247-1.015a.091.091 0 0 0-.1-.044l-.24.033c-.047 0-.082.035-.073.064l.246 1.015c.006.044.053.062.1.044z" fill="#263238"/>
    <path d="M76.027 35.37a78.118 78.118 0 0 0 1.088 4.383l.109-4.603-1.197.22z" fill="#2962FF"/>
    <path opacity=".3" d="M76.027 35.37a78.118 78.118 0 0 0 1.088 4.383l.109-4.603-1.197.22z" fill="#52595B"/>
    <path d="M75.613 31.122c-1.1.443-2.054 4.207-2.054 4.207l3.785 1.842s1.827-4.603 1.009-5.5c-.819-.898-1.473-1.056-2.74-.549z" fill="#2962FF"/>
    <path opacity=".1" d="M75.613 31.122c-1.1.443-2.054 4.207-2.054 4.207l3.785 1.842s1.827-4.603 1.009-5.5c-.819-.898-1.473-1.056-2.74-.549z" fill="#52595B"/>
    <path d="M82.234 89.88h-3.987l-.31-1.338 4.438.03-.141 1.308z" fill="#2962FF"/>
    <path opacity=".2" d="M82.234 89.88h-3.987l-.31-1.338 4.438.03-.141 1.308z" fill="#52595B"/>
    <path d="m78.414 43.56-.32-.132a.481.481 0 0 0-.656.516l.231 1.529a.523.523 0 0 0 .693.416 1.17 1.17 0 0 0 .322-.179.881.881 0 0 0 .317-.727l-.032-.634a.88.88 0 0 0-.555-.789z" fill="#F8B195"/>
</svg>
