<svg width="126" height="96" viewBox="0 0 126 96" fill="none" xmlns="http://www.w3.org/2000/svg">
    <g clip-path="url(#2eh6gv93ba)">
        <path d="M129.207 48.191c25.67 14.833 25.67 38.837 0 53.67-25.67 14.833-67.287 14.817-92.955 0-25.668-14.817-25.67-38.837 0-53.67 25.67-14.833 67.288-14.833 92.955 0z" fill="#fff"/>
        <g clip-path="url(#9mb8nxrohb)">
            <path d="M81.345 29.622s7.17-5.048 8.459-5.398c1.289-.35 22.61 14.253 22.61 14.253l.106 15.183-37.905 23.175-21.97-13.648.483-10.16 28.217-23.405z" fill="#455A64"/>
            <path d="M102.918 43.987c-4.074 3.292-25.343 19.415-30.058 22.986a2.32 2.32 0 0 0-.921 1.866l.022 7.428c.002.762.543 1.074 1.2.687l38.76-22.369a2.656 2.656 0 0 0 1.19-2.073l-.039-13.201c-.002-.762-.541-1.075-1.198-.687l-7.013 4.048c-.696.362-1.348.803-1.943 1.315z" fill="#263238"/>
            <path d="M94.94 44.534c-4.917-2.944-15.027-9.202-15.027-9.202s3.305-3.113 6.174-4.718c.752-.371 1.254.042 1.645.274.391.231 14.493 8.72 14.493 8.72-3.077 1.672-4.367 2.755-6.165 4.847-.425.387-.668.432-1.12.079z" fill="#2196F3"/>
            <path d="M99.409 32.67c3.316-5.447 7.391-8.936 10.124-7.265 2.467 1.509 1.338 6.887-1.939 12.27" fill="#FAFAFA"/>
            <path d="m107.959 24.746-23.85-14.585c-1.428-.706-3.255-.224-5.221 1.232-1.959 1.45-3.985 3.82-5.75 6.72l-.003.005-33.85 52.9 4.863 10.212 12.322-1.479.513-.061-.27.44c-.305.5-.534.797-.717 1.034-.058.075-.111.145-.16.213-.2.273-.368.553-.6 1.207l-.185.516a71.216 71.216 0 0 0-.707 2.034c-.305.934-.55 1.82-.595 2.386-.021.272.009.455.059.59.05.133.126.237.226.345.036.039.077.08.121.123.192.19.44.435.58.84.132.373.47.788.88 1.171.406.378.855.701 1.17.894.598.365 1.342.502 2.204.383.864-.12 1.823-.494 2.822-1.114.999-.619 2.01-1.466 2.974-2.497a21.254 21.254 0 0 0 2.634-3.498l31.71-52.102h.001l8.829-7.909zm0 0c-1.087.022-2.255.555-3.414 1.431-1.806 1.367-3.67 3.624-5.336 6.355l8.75-7.786z" fill="#FAFAFA" stroke="#E0E1E3" stroke-width=".5"/>
            <path d="M84.935 39.292 74.25 32.758c-.482-.294-.404-1.303.173-2.252.578-.949 1.437-1.48 1.919-1.184l10.685 6.533c.482.295.404 1.303-.174 2.252-.577.949-1.436 1.48-1.918 1.185zM66.1 39.268l16.788 10.264c.206.126.172.556-.074.96-.246.404-.612.63-.817.505L65.208 40.732c-.205-.125-.172-.555.074-.96.246-.404.612-.63.818-.504zM68.242 35.75 85.03 46.015c.205.125.172.555-.074.96-.246.404-.612.63-.818.504L67.351 37.215c-.206-.126-.173-.555.073-.96.247-.404.613-.63.818-.505zM63.958 42.788l16.788 10.264c.206.126.172.555-.074.96-.246.404-.612.63-.817.504L63.066 44.252c-.205-.126-.172-.555.074-.96.246-.404.612-.63.818-.505zM61.815 46.307l16.789 10.265c.205.125.172.554-.074.959-.246.404-.612.63-.817.505L60.923 47.77c-.204-.125-.171-.555.075-.959.246-.404.612-.63.817-.505zM59.673 49.825l16.789 10.264c.205.126.172.555-.074.96-.247.404-.612.63-.818.504L58.782 51.29c-.206-.126-.173-.555.073-.96.247-.404.613-.63.818-.504zM55.388 56.864l16.789 10.264c.205.126.172.555-.074.96-.246.404-.612.63-.817.504l-16.79-10.264c-.204-.126-.171-.555.075-.96.246-.404.612-.63.817-.504zM57.53 53.344 74.32 63.61c.205.125.171.555-.075.959-.246.404-.612.63-.817.505L56.639 54.808c-.205-.125-.172-.555.074-.959.246-.404.612-.63.818-.505zM58.294 63.468l6.692 4.092c.205.125.172.555-.074.96-.246.404-.612.63-.817.504l-6.692-4.091c-.205-.126-.172-.555.074-.96.246-.404.612-.63.818-.505z" fill="#E0E1E3"/>
            <mask id="q1wlqxauuc" fill="#fff">
                <path fill-rule="evenodd" clip-rule="evenodd" d="M56.162 80.903c1.224-1.275 2.438-2.599 2.781-4.055l-2.361 1.029-1.377-3.174-2.362 1.028-1.375-3.17-2.362 1.03-1.376-3.173-2.361 1.03-1.379-3.18-2.362 1.03-1.377-3.175-2.361 1.03L37 64c-.146.62-.355 1.153-.567 1.694-.254.649-.513 1.308-.672 2.141-.643 1.083-1.478 3.273-1.478 3.273l-.528 3.28s.183 1.96.534 2.733c.352.772.866 1.374 1.514 1.77L56.42 91.496l.018.012.023.013-.041-.025c-.633-.392-1.136-.983-1.482-1.738-.354-.772-.536-1.701-.537-2.734-.001-1.033.18-2.149.531-3.284.298-.961.714-1.92 1.23-2.837zm41.026 154.393 1.782-3.616.754 5.182-2.536-1.566zm5.323 3.288-1.085.459-1.59-1.405-.112-.776 2.787 1.722zm11.246 6.947-11.246-6.947 7.215-3.056 4.031 10.003zm2.696 1.666.027.44-2.617-1.843-.106-.263 2.696 1.666zm12.075 7.458-12.075-7.458-.034-.558 7.832-2.985 2.894 6.334 1.383 4.667zm1.753 1.084-1.241.645-.512-1.729 1.753 1.084zm27.762 17.149-27.762-17.149 3.128-1.627 5.398-1.834 5.196 11.203 8.83-3.047 3.423 6.803 1.787 5.651zm.144.09-.066.156-.078-.246.144.09zm0 0 .371-.873 3.901-1.742 4.886-2.003 5.757 12.17 6.815-3.223 1.996-.123-5.061 7.324-18.665-11.53z"/>
            </mask>
            <path fill-rule="evenodd" clip-rule="evenodd" d="M56.162 80.903c1.224-1.275 2.438-2.599 2.781-4.055l-2.361 1.029-1.377-3.174-2.362 1.028-1.375-3.17-2.362 1.03-1.376-3.173-2.361 1.03-1.379-3.18-2.362 1.03-1.377-3.175-2.361 1.03L37 64c-.146.62-.355 1.153-.567 1.694-.254.649-.513 1.308-.672 2.141-.643 1.083-1.478 3.273-1.478 3.273l-.528 3.28s.183 1.96.534 2.733c.352.772.866 1.374 1.514 1.77L56.42 91.496l.018.012.023.013-.041-.025c-.633-.392-1.136-.983-1.482-1.738-.354-.772-.536-1.701-.537-2.734-.001-1.033.18-2.149.531-3.284.298-.961.714-1.92 1.23-2.837zm41.026 154.393 1.782-3.616.754 5.182-2.536-1.566zm5.323 3.288-1.085.459-1.59-1.405-.112-.776 2.787 1.722zm11.246 6.947-11.246-6.947 7.215-3.056 4.031 10.003zm2.696 1.666.027.44-2.617-1.843-.106-.263 2.696 1.666zm12.075 7.458-12.075-7.458-.034-.558 7.832-2.985 2.894 6.334 1.383 4.667zm1.753 1.084-1.241.645-.512-1.729 1.753 1.084zm27.762 17.149-27.762-17.149 3.128-1.627 5.398-1.834 5.196 11.203 8.83-3.047 3.423 6.803 1.787 5.651zm.144.09-.066.156-.078-.246.144.09zm0 0 .371-.873 3.901-1.742 4.886-2.003 5.757 12.17 6.815-3.223 1.996-.123-5.061 7.324-18.665-11.53z" fill="#FAFAFA"/>
            <path d="m58.943 76.848.487.115.23-.972-.916.399.2.458zm-2.78 4.055-.361-.346-.044.045-.032.056.436.245zm.419-3.026-.46.199.2.46.46-.2-.2-.46zm-1.377-3.174.459-.2-.2-.459-.459.2.2.459zm-2.362 1.028-.459.2.2.459.459-.2-.2-.459zm-1.375-3.17.459-.198-.2-.46-.459.2.2.459zm-2.362 1.03-.459.198.2.46.459-.2-.2-.459zm-1.376-3.173.46-.199-.2-.459-.46.2.2.458zm-2.361 1.03-.46.198.2.46.46-.2-.2-.459zm-1.379-3.18.459-.198-.2-.46-.459.2.2.459zm-2.362 1.03-.459.198.2.46.459-.2-.2-.459zm-1.377-3.175.46-.199-.2-.459-.46.2.2.458zm-2.361 1.03-.482.135.156.551.525-.228-.2-.459zM37 64l.481-.136-.524-1.86-.444 1.881.487.115zm-.567 1.694-.465-.182.465.182zm-.672 2.141.43.256.044-.076.017-.085-.491-.095zm-1.478 3.273-.467-.178-.018.048-.008.05.493.08zm-.528 3.28-.493-.08-.01.063.006.063.497-.046zm.534 2.733.455-.207-.455.207zm1.514 1.77.261-.426-.26.426zM56.44 91.508l-.261.426.26-.426zm.022.013-.258.429.518-.855-.26.426zm-1.523-1.763.454-.209-.454.209zm-.537-2.734h.5-.5zm.531-3.284.478.148-.478-.148zM98.97 231.68l.495-.072-.232-1.593-.711 1.444.448.221zm-1.782 3.616-.448-.221-.201.407.386.239.263-.425zm4.238 3.747-.331.375.236.208.29-.122-.195-.461zm-1.59-1.405-.494.072.026.181.138.121.33-.374zm9.89-2.11.464-.187-.19-.472-.469.199.195.46zm6.754 12.109-.287.409.85.599-.063-1.039-.5.031zm-2.617-1.843-.464.187.055.137.121.085.288-.409zm2.556.845-.178-.467-.343.131.022.367.499-.031zm7.832-2.985.455-.208-.195-.427-.438.167.178.468zm2.894 6.334.479-.142-.01-.034-.015-.032-.454.208zm1.895 6.396-.479.142.172.581.538-.279-.231-.444zm4.369-2.272-.161-.473-.036.012-.034.018.231.443zm5.398-1.834.453-.21-.189-.408-.425.145.161.473zm5.196 11.203-.454.21.19.41.427-.147-.163-.473zm8.83-3.047.446-.225-.196-.39-.413.143.163.472zm3.423 6.803.477-.15-.012-.039-.019-.035-.446.224zm1.865 5.897-.477.151.407 1.289.53-1.244-.46-.196zm.437-1.029-.204-.456-.179.08-.077.181.46.195zm3.901-1.742-.19-.462-.007.002-.007.004.204.456zm4.886-2.003.452-.214-.202-.428-.439.179.189.463zm5.757 12.17-.452.214.214.452.452-.214-.214-.452zm6.815-3.223-.031-.499-.096.006-.087.041.214.452zm1.996-.123.412.285.585-.847-1.027.063.03.499zm-5.061 7.324-.262.425.404.25.27-.391-.412-.284zM58.457 76.733c-.15.636-.497 1.268-.975 1.912-.479.644-1.068 1.273-1.68 1.912l.72.692c.612-.637 1.242-1.307 1.763-2.008.52-.7.952-1.458 1.145-2.278l-.973-.23zm-1.676 1.602 2.362-1.028-.4-.917-2.361 1.028.4.917zm-2.035-3.433 1.377 3.174.917-.398-1.376-3.174-.918.398zm-1.703 1.288 2.361-1.029-.399-.917-2.362 1.03.4.916zm-2.034-3.43 1.375 3.17.918-.398-1.375-3.17-.918.398zm-1.703 1.289 2.362-1.029-.4-.917-2.361 1.029.399.917zm-2.034-3.432 1.376 3.172.917-.398-1.376-3.172-.917.398zm-1.704 1.288 2.362-1.028-.4-.917-2.361 1.029.4.916zm-2.037-3.437 1.379 3.178.917-.398-1.378-3.178-.918.398zm-1.703 1.288 2.362-1.029-.4-.917-2.361 1.03.399.916zm-2.035-3.434 1.377 3.174.917-.397-1.377-3.175-.917.398zm-1.704 1.289 2.362-1.03-.4-.916-2.361 1.029.4.917zm-1.57-3.474.89 3.151.962-.272-.89-3.15-.962.27zm.38 1.74c.21-.537.432-1.102.588-1.761l-.974-.23c-.136.58-.332 1.083-.545 1.627l.93.365zm-.647 2.054c.15-.783.392-1.404.647-2.053l-.931-.365c-.254.647-.529 1.346-.698 2.23l.982.188zm-.921-.35c-.34.574-.721 1.42-1.01 2.103a43.748 43.748 0 0 0-.466 1.148l-.029.073-.007.02-.002.005v.001l.466.178.468.178.002-.005.007-.018.027-.07a37.702 37.702 0 0 1 .455-1.12c.288-.682.646-1.473.949-1.982l-.86-.51zM33.79 71.03l-.528 3.28.987.158.528-3.28-.987-.158zm-.035 3.359-.497.046v.007l.002.018a8.922 8.922 0 0 0 .033.304c.023.2.057.476.103.777.089.578.23 1.329.438 1.788l.91-.414c-.142-.314-.268-.93-.36-1.525a20.753 20.753 0 0 1-.123-.967l-.006-.06a1.351 1.351 0 0 1-.002-.02l-.498.046zm.08 2.94c.387.852.964 1.536 1.707 1.99l.522-.853c-.553-.338-1.005-.858-1.32-1.551l-.91.414zm1.707 1.99L56.16 91.923l.521-.853-20.616-12.604-.522.853zm20.614 12.602.022.013.521-.853-.016-.01-.527.85zm.022.013.025.016.515-.857-.019-.012-.521.853zm.544-.84-.042-.024-.521.853.04.025.523-.853zm-.039-.022c-.539-.335-.98-.846-1.29-1.523l-.91.417c.382.834.948 1.505 1.673 1.955l.527-.85zm-1.29-1.523c-.318-.694-.491-1.55-.492-2.526l-1 .001c.001 1.09.193 2.092.582 2.942l.91-.416zm-.492-2.526c-.001-.975.17-2.041.509-3.135l-.955-.296c-.365 1.176-.555 2.342-.554 3.432h1zm.509-3.135c.287-.926.689-1.853 1.188-2.74l-.872-.49a15.189 15.189 0 0 0-1.271 2.934l.955.296zM98.522 231.46l-1.782 3.616.897.442 1.782-3.616-.897-.442zm1.697 5.331-.754-5.182-.99.144.754 5.182.99-.144zm-3.293-1.069 2.535 1.566.526-.85-2.536-1.567-.525.851zm4.695 3.783 1.085-.46-.39-.921-1.085.46.39.921zm-2.115-1.492 1.589 1.406.662-.749-1.589-1.406-.663.749zm-.277-1.078.113.776.989-.144-.112-.776-.99.144zm3.545 1.224-2.787-1.721-.526.85 2.787 1.722.526-.851zm-.526.851 11.246 6.947.525-.851-11.245-6.947-.526.851zm7.283-3.941-7.215 3.055.39.921 7.215-3.056-.39-.92zm4.689 10.276-4.03-10.003-.928.374 4.031 10.003.927-.374zm2.76 2.262-.027-.44-.999.061.027.441.999-.062zm-3.405-1.403 2.618 1.843.575-.818-2.617-1.843-.576.818zm-.282-.485.106.263.927-.374-.106-.263-.927.374zm3.423 1.053-2.697-1.666-.525.851 2.697 1.666.525-.851zm-.525.851 12.074 7.459.525-.851-12.074-7.459-.525.851zm-.271-.952.034.557.999-.061-.035-.558-.998.062zm8.153-3.484-7.832 2.986.356.934 7.832-2.985-.356-.935zm3.526 6.594-2.893-6.334-.91.415 2.894 6.335.909-.416zm1.408 4.733-1.383-4.667-.959.284 1.383 4.668.959-.285zm.264 2.315 1.241-.646-.462-.887-1.241.646.462.887zm-1.223-2.03.513 1.728.958-.284-.512-1.729-.959.285zm2.496.515-1.754-1.083-.525.851 1.753 1.083.526-.851zm-.526.851 27.762 17.15.526-.851-27.762-17.15-.526.851zm3.16-2.495-3.128 1.626.462.887 3.128-1.626-.462-.887zm5.468-1.864-5.398 1.834.322.947 5.398-1.834-.322-.947zm5.81 11.465-5.196-11.202-.907.42 5.196 11.203.907-.421zm8.214-3.308-8.83 3.046.326.946 8.83-3.047-.326-.945zm4.032 7.051-3.423-6.804-.893.45 3.423 6.803.893-.449zm1.818 5.725-1.787-5.651-.954.301 1.787 5.651.954-.301zm.061.592.066-.157-.92-.391-.066.156.92.392zm-1.015-.291.078.246.953-.302-.077-.245-.954.301zm.884-.487-.144-.089-.526.851.144.089.526-.851zm-.352-.642-.371.872.92.391.371-.872-.92-.391zm4.157-2.003-3.901 1.742.408.913 3.901-1.742-.408-.913zm4.901-2.01-4.887 2.004.38.925 4.886-2.003-.379-.926zm6.398 12.42-5.757-12.171-.904.428 5.757 12.17.904-.427zm6.149-3.462-6.815 3.223.428.904 6.815-3.223-.428-.904zm2.18-.17-1.997.123.062.998 1.996-.123-.061-.998zm-4.619 8.107 5.061-7.323-.823-.569-5.061 7.324.823.568zm-19.34-11.389 18.666 11.53.525-.85-18.665-11.531-.526.851z" fill="#E0E1E3" mask="url(#q1wlqxauuc)"/>
            <path d="m107.133 48.062-1.009 2.1c-.173.361-.147.733.058.83.206.097.513-.117.687-.479l1.008-2.1c.174-.36.148-.732-.058-.83-.206-.096-.513.118-.686.48zM108.941 46.207l1.009-2.1c.173-.361.147-.733-.058-.83-.206-.097-.513.117-.687.479l-1.008 2.1c-.174.36-.148.733.058.83.206.096.513-.118.686-.48zM106.526 45.623c-.206-.097-.513.118-.686.479-.174.361-.148.733.058.83l1.195.563c.205.097.513-.117.686-.478.174-.362.148-.733-.058-.83l-1.195-.564zM108.982 46.78c-.206-.098-.513.117-.687.478-.173.362-.147.733.059.83l1.194.564c.206.097.513-.118.687-.48.174-.36.147-.732-.058-.83l-1.195-.563zM103.272 47.706c-.266.186-.464.598-.441.92l.286 4.083c.022.322.257.433.523.247.267-.186.464-.598.442-.92l-.286-4.083c-.023-.322-.257-.432-.524-.247zM104.72 46.7c-.266.186-.464.598-.442.92l.287 4.083c.022.322.256.433.523.247.266-.186.464-.598.442-.92l-.286-4.083c-.023-.322-.257-.432-.524-.246zM99.293 55.99c-.27.188-.47.604-.447.93l.162 2.32c.023.326.26.437.53.25.27-.189.469-.605.447-.931l-.163-2.32c-.023-.325-.26-.437-.53-.25zM98.775 55.74c-.023-.322-.257-.433-.524-.247l-.482.337c-.267.185-.464.597-.442.92.023.322.257.432.524.246l.482-.336c.267-.186.464-.598.442-.92zM100.136 49.893l-1.195.833c-.273.19-.475.611-.452.94l.204 2.907c.023.322.257.432.523.247.267-.186.465-.598.442-.92l-.164-2.336.701-.489c.659-.46 1.258-.219 1.329.567.073.81-.427 1.865-1.102 2.336l-.241.169c-.266.185-.464.597-.441.919.022.322.257.432.523.246l.241-.167c1.199-.837 2.089-2.69 1.988-4.14-.102-1.451-1.157-1.948-2.356-1.112zM104.335 54.304l-.173.12-.033-.458c-.004-.066-.017-.107-.037-.124-.021-.018-.048-.015-.08.008a.314.314 0 0 0-.094.115.526.526 0 0 0-.056.17l.034.475-.174.12-.032-.458c-.004-.066-.017-.107-.038-.124-.02-.018-.047-.015-.08.008a.324.324 0 0 0-.092.114.5.5 0 0 0-.057.169l.033.477-.173.121-.057-.818.156-.109.011.152a.677.677 0 0 1 .094-.194.583.583 0 0 1 .146-.148c.057-.04.102-.053.135-.041.034.011.056.039.068.082a.779.779 0 0 1 .096-.202.544.544 0 0 1 .142-.146c.041-.028.076-.043.104-.043.027 0 .05.01.067.03.016.02.029.048.037.082a.633.633 0 0 1 .017.112l.036.51zM104.913 53.4c-.009-.059-.031-.095-.066-.109-.036-.014-.078-.004-.125.029a.394.394 0 0 0-.115.14.531.531 0 0 0-.034.09.344.344 0 0 0-.011.094l.351-.245zm-.141.615a.388.388 0 0 1-.15.07.183.183 0 0 1-.118-.014.182.182 0 0 1-.081-.084.355.355 0 0 1-.037-.143.668.668 0 0 1 .013-.182.837.837 0 0 1 .168-.357.705.705 0 0 1 .147-.138.38.38 0 0 1 .15-.07.187.187 0 0 1 .118.015.186.186 0 0 1 .079.086c.019.04.031.087.035.143l.002.04-.001.033-.523.364c.005.03.013.055.025.073.012.017.027.03.045.036a.1.1 0 0 0 .058.002.203.203 0 0 0 .066-.031.396.396 0 0 0 .152-.223l.152-.053a.79.79 0 0 1-.3.433zM106.254 52.966l-.174.12-.032-.458c-.004-.066-.017-.107-.037-.124-.021-.018-.048-.015-.08.008a.314.314 0 0 0-.094.115.526.526 0 0 0-.056.17l.033.475-.173.121-.032-.459c-.004-.066-.017-.107-.038-.124-.02-.017-.047-.015-.08.008a.335.335 0 0 0-.093.114.52.52 0 0 0-.056.169l.033.477-.173.121-.057-.818.156-.109.011.152a.677.677 0 0 1 .094-.194.585.585 0 0 1 .146-.147c.057-.04.102-.054.135-.042.034.011.056.039.068.082a.779.779 0 0 1 .096-.202.554.554 0 0 1 .141-.145c.042-.03.076-.044.104-.044.028 0 .051.01.068.03.016.02.029.048.037.082a.742.742 0 0 1 .017.112l.036.51zM106.702 52.484a.447.447 0 0 0 .163-.27c.007-.035.009-.069.007-.102a.242.242 0 0 0-.02-.086.114.114 0 0 0-.042-.054.095.095 0 0 0-.06-.016.144.144 0 0 0-.072.03.333.333 0 0 0-.101.118.658.658 0 0 0-.063.162l.014.195c.008.017.018.03.03.038a.095.095 0 0 0 .043.015c.015.002.032 0 .05-.005a.194.194 0 0 0 .051-.025zm.06.145a.258.258 0 0 1-.141.054.127.127 0 0 1-.104-.049l.01.142-.151.106-.08-1.14.173-.12.033.465a.642.642 0 0 1 .087-.183.528.528 0 0 1 .134-.137.247.247 0 0 1 .123-.05.155.155 0 0 1 .1.027c.029.02.052.052.07.094a.461.461 0 0 1 .033.149.813.813 0 0 1-.164.522.543.543 0 0 1-.123.12zM107.525 51.413a.62.62 0 0 0-.138.135.457.457 0 0 0-.082.167l.035.495-.174.12-.057-.817.159-.11.012.174a.869.869 0 0 1 .086-.2.602.602 0 0 1 .055-.08.303.303 0 0 1 .055-.052l.022-.015a.069.069 0 0 1 .013-.007l.014.19zM108.06 51.206c-.009-.058-.031-.095-.066-.108-.036-.014-.078-.005-.125.028a.397.397 0 0 0-.115.14.532.532 0 0 0-.034.09.343.343 0 0 0-.011.095l.351-.245zm-.141.616a.388.388 0 0 1-.15.069.182.182 0 0 1-.118-.013.182.182 0 0 1-.081-.084.355.355 0 0 1-.037-.144.669.669 0 0 1 .013-.181.833.833 0 0 1 .168-.357.705.705 0 0 1 .147-.139.379.379 0 0 1 .15-.069.187.187 0 0 1 .118.015.186.186 0 0 1 .079.086c.019.04.031.087.035.142l.002.04-.001.033-.523.365c.005.03.013.054.025.072a.09.09 0 0 0 .045.036.1.1 0 0 0 .058.002.203.203 0 0 0 .066-.03.397.397 0 0 0 .152-.223l.152-.054a.79.79 0 0 1-.3.434zM108.606 51.343a.572.572 0 0 1-.169.083.249.249 0 0 1-.146.004l.056-.176a.34.34 0 0 0 .126-.004.344.344 0 0 0 .198-.135.142.142 0 0 0 .025-.087c-.002-.03-.015-.043-.039-.04a.623.623 0 0 0-.117.032 1.285 1.285 0 0 1-.115.036.181.181 0 0 1-.078.007.067.067 0 0 1-.046-.03.158.158 0 0 1-.018-.072.39.39 0 0 1 .012-.127.54.54 0 0 1 .131-.237.583.583 0 0 1 .248-.165.207.207 0 0 1 .128.001l-.06.175a.244.244 0 0 0-.105.001.283.283 0 0 0-.17.119.143.143 0 0 0-.025.09c.001.015.004.026.01.032.005.006.013.009.024.009a.15.15 0 0 0 .042-.008.651.651 0 0 0 .064-.022c.048-.018.089-.031.123-.04a.21.21 0 0 1 .085-.007.076.076 0 0 1 .051.033.179.179 0 0 1 .021.078.426.426 0 0 1-.061.24.636.636 0 0 1-.195.21zM109.029 50.073l-.114.037.057-.235.161-.112-.104.31zm-.124.186.173-.12.058.817-.173.121-.058-.818zM109.488 50.568a.438.438 0 0 0 .139-.17.15.15 0 0 0 .025-.08l-.007-.093a.41.41 0 0 0-.246.178.206.206 0 0 0-.036.122c.002.036.015.057.039.065.025.008.053 0 .086-.022zm-.039.187a.28.28 0 0 1-.093.044.126.126 0 0 1-.077-.003.105.105 0 0 1-.054-.048.206.206 0 0 1-.025-.091.35.35 0 0 1 .014-.122.522.522 0 0 1 .053-.125.678.678 0 0 1 .202-.218.642.642 0 0 1 .09-.052.319.319 0 0 1 .078-.027l-.003-.047c-.004-.054-.019-.087-.047-.098-.027-.012-.066 0-.116.035a.54.54 0 0 0-.104.097c-.034.04-.067.087-.101.143l-.063-.096c.083-.13.174-.23.275-.301.097-.068.174-.092.232-.071.058.02.091.084.099.194l.017.254c.002.022.006.035.013.04.008.005.018.003.033-.006l.013.178a.638.638 0 0 1-.076.064c-.033.023-.058.031-.077.026-.019-.005-.032-.021-.038-.047l-.007-.043a.792.792 0 0 1-.102.186.62.62 0 0 1-.136.134zM110.233 50.208a.574.574 0 0 1-.169.083.248.248 0 0 1-.146.004l.056-.176a.336.336 0 0 0 .245-.058.298.298 0 0 0 .08-.08.148.148 0 0 0 .025-.088c-.002-.03-.016-.043-.04-.04a.62.62 0 0 0-.117.033 1.29 1.29 0 0 1-.115.036.185.185 0 0 1-.078.006.07.07 0 0 1-.046-.03.159.159 0 0 1-.018-.072.391.391 0 0 1 .012-.126.542.542 0 0 1 .131-.237.587.587 0 0 1 .249-.165.208.208 0 0 1 .128 0l-.061.175a.245.245 0 0 0-.105.002.285.285 0 0 0-.17.118.143.143 0 0 0-.025.09c.001.015.004.026.01.032.005.006.013.009.024.009a.153.153 0 0 0 .042-.007.615.615 0 0 0 .064-.023c.048-.018.089-.03.123-.04a.21.21 0 0 1 .085-.006.076.076 0 0 1 .051.032.179.179 0 0 1 .021.078.433.433 0 0 1-.06.241.64.64 0 0 1-.196.209z" fill="#8D989C"/>
            <g clip-path="url(#uf9zfdp6bd)">
                <path d="m78.495 24.45-.093-.978-.538-.301-.395.704-.584-.327 1.416-2.53 1.094.612c.203.108.38.257.521.439a.993.993 0 0 1 .204.53 1 1 0 0 1-.14.563.983.983 0 0 1-.407.41.983.983 0 0 1-.56.097l.113 1.13-.63-.35zm.891-1.617a.459.459 0 0 0 .047-.404.7.7 0 0 0-.337-.337l-.478-.268-.494.881.477.267a.7.7 0 0 0 .465.109.46.46 0 0 0 .32-.248zm2.373 2.827-.263.47-1.956-1.096 1.416-2.53 1.91 1.07-.262.469-1.33-.744-.307.548 1.173.657-.255.456-1.173-.657-.328.585 1.375.772zm1.381 1.447a1.664 1.664 0 0 1-.604-.558 1.437 1.437 0 0 1-.23-.741 1.47 1.47 0 0 1 .202-.771 1.47 1.47 0 0 1 .552-.576c.228-.132.488-.198.752-.191.28.007.553.085.796.226.205.11.386.263.53.447.13.171.22.37.259.582l-.571.139a.925.925 0 0 0-.47-.652.966.966 0 0 0-.477-.131.84.84 0 0 0-.448.126.967.967 0 0 0-.337.361.967.967 0 0 0-.132.476.838.838 0 0 0 .127.448c.089.142.213.258.36.337a.92.92 0 0 0 .805.056l.18.56a1.342 1.342 0 0 1-.63.076 1.701 1.701 0 0 1-.663-.214h-.001zm2.877-1.766.586.328-1.417 2.53-.585-.328 1.416-2.53zm2.362 2.916c.113.114.186.26.21.42a.725.725 0 0 1-.097.463.67.67 0 0 1-.548.365 1.512 1.512 0 0 1-.85-.247l-1.305-.73 1.416-2.53 1.236.691c.257.123.471.323.611.572a.641.641 0 0 1-.021.62.71.71 0 0 1-.652.376zm-.843-1.487-.333.596.58.325c.111.072.24.11.372.108a.29.29 0 0 0 .237-.161.285.285 0 0 0 .013-.285.685.685 0 0 0-.287-.259l-.582-.324zm-.24 2.029a.743.743 0 0 0 .392.12.3.3 0 0 0 .249-.17c.117-.209.02-.4-.29-.574l-.683-.383-.35.625.682.382zm2.45 2.006a1.69 1.69 0 0 1-.614-.567 1.444 1.444 0 0 1-.233-.745c-.005-.27.064-.535.2-.767.128-.238.318-.436.55-.573.23-.131.492-.197.757-.19.282.007.559.085.804.227.248.135.459.33.612.567a1.452 1.452 0 0 1 .038 1.516 1.452 1.452 0 0 1-1.312.759 1.678 1.678 0 0 1-.802-.227zm.279-.498c.14.081.3.124.462.124.157-.001.311-.046.445-.129a.966.966 0 0 0 .337-.36.967.967 0 0 0 .131-.477.847.847 0 0 0-.123-.446.918.918 0 0 0-.346-.33.92.92 0 0 0-.463-.124.848.848 0 0 0-.444.128.967.967 0 0 0-.337.361.966.966 0 0 0-.132.477.847.847 0 0 0 .123.446.92.92 0 0 0 .347.33z" fill="#0E48A1"/>
            </g>
        </g>
    </g>
    <defs>
        <clipPath id="2eh6gv93ba">
            <path fill="#fff" d="M0 0h131v100H0z"/>
        </clipPath>
        <clipPath id="9mb8nxrohb">
            <path fill="#fff" transform="translate(16 7)" d="M0 0h99v86H0z"/>
        </clipPath>
        <clipPath id="uf9zfdp6bd">
            <path fill="#fff" transform="rotate(34.266 8.888 132.537)" d="M0 0h20.563v3.846H0z"/>
        </clipPath>
    </defs>
</svg>
