<svg width="272" height="199" viewBox="0 0 272 199" fill="none" xmlns="http://www.w3.org/2000/svg">
    <circle cx="135.5" cy="99.5" r="86.5" transform="rotate(-90 135.5 99.5)" fill="#FFC107"/>
    <path d="M135 148c-2.72 0-5.02-.94-6.9-2.819-1.88-1.879-2.82-4.178-2.82-6.897h19.44c0 2.719-.94 5.018-2.82 6.897-1.88 1.879-4.18 2.819-6.9 2.819zm-19.44-17.153v-7.197h38.88v7.197h-38.88zm.6-14.514c-5.28-3.439-9.46-7.737-12.54-12.895C100.54 98.28 99 92.463 99 85.985c0-9.756 3.56-18.192 10.68-25.31C116.8 53.56 125.24 50 135 50s18.2 3.559 25.32 10.676c7.12 7.117 10.68 15.553 10.68 25.31 0 6.477-1.52 12.294-4.56 17.452-3.04 5.158-7.24 9.456-12.6 12.895h-37.68zm2.64-7.197h32.52c3.84-2.559 6.88-5.878 9.12-9.956 2.24-4.078 3.36-8.477 3.36-13.195 0-7.916-2.82-14.694-8.46-20.331-5.64-5.638-12.42-8.457-20.34-8.457s-14.7 2.819-20.34 8.457c-5.64 5.637-8.46 12.415-8.46 20.331 0 4.718 1.12 9.117 3.36 13.195 2.24 4.078 5.32 7.397 9.24 9.956z" fill="#fff"/>
</svg>
