<svg width="49" height="51" viewBox="0 0 49 51" fill="none" xmlns="http://www.w3.org/2000/svg">
<path d="M24.2869 22.4773C25.7748 22.4773 26.9879 21.221 26.9879 19.6661V2.81122C26.9879 1.26256 25.7808 0 24.2869 0C22.799 0 21.5859 1.25634 21.5859 2.81122V19.6661C21.5859 21.221 22.793 22.4773 24.2869 22.4773Z" fill="#0D47A1"/>
<path d="M45.8724 22.4775H29.6785C28.1906 22.4775 26.9775 23.7339 26.9775 25.2888C26.9775 26.8374 28.1846 28.1 29.6785 28.1H45.8724C47.3603 28.1 48.5734 26.8436 48.5734 25.2888C48.5734 23.7401 47.3663 22.4775 45.8724 22.4775Z" fill="#0D47A1"/>
<path d="M24.2869 28.2363C22.799 28.2363 21.5859 29.4927 21.5859 31.0475V47.9024C21.5859 49.4511 22.793 50.7136 24.2869 50.7136C25.7748 50.7136 26.9879 49.4573 26.9879 47.9024V31.0475C26.9819 29.4927 25.7748 28.2363 24.2869 28.2363Z" fill="#0D47A1"/>
<path d="M18.8949 22.6201H2.70098C1.21305 22.6201 0 23.8765 0 25.4313C0 26.98 1.20707 28.2426 2.70098 28.2426H18.8949C20.3828 28.2426 21.5959 26.9862 21.5959 25.4313C21.5899 23.8765 20.3828 22.6201 18.8949 22.6201Z" fill="#0D47A1"/>
</svg>
